<svg width="3515" height="2901" viewBox="0 0 3515 2901" fill="none" xmlns="http://www.w3.org/2000/svg">
<mask id="path-1-inside-1_250_1361" fill="white">
<path fill-rule="evenodd" clip-rule="evenodd" d="M2220.74 887.43L2401.66 546.381L2136.27 840.386C2134.58 839.54 2132.89 838.698 2131.2 837.86L2219.6 662.243L2099.73 822.899C2051.64 800.933 2001.06 781.895 1948.3 766.204L1959.22 614.151L1966.17 573.816L1961.14 587.494L1976.12 378.83L1853.89 742.277C1810.97 733.258 1768.24 726.785 1725.97 722.75L1702.49 523.685L1691.24 719.976C1681.15 719.326 1671.08 718.816 1661.05 718.443L1531.45 307.098L1565.56 719.061C1551.19 719.79 1536.91 720.805 1522.74 722.103L1440.07 514.042L1487.88 725.89C1456 729.902 1424.73 735.361 1394.18 742.209L1107.19 337.56L1230.57 603.437L1190.38 545.309L1303.15 767.449C1258.55 782.302 1216.01 800.331 1176.02 821.329L964.331 616.119L1061.61 735.468L741.012 467.508L1095.8 869.824C1078 882.152 1060.9 895.163 1044.56 908.833L771.808 723.378L1018.64 931.653C1010.52 939.184 1002.61 946.894 994.928 954.776L465.466 685.397L932.916 1009.03L621.224 862.397L924.089 1041.88C906.953 1067.46 891.836 1094.33 878.925 1122.42L544.967 1034.81L519.158 1027.1L525.926 1029.81L305.032 971.865L851.55 1194.48C849.697 1200.57 847.941 1206.71 846.284 1212.9C841.863 1229.4 838.215 1245.96 835.321 1262.56L470.073 1210.29L830.516 1295.94C829.577 1304.2 828.82 1312.46 828.243 1320.73L273.966 1301.46L828.014 1397.71C828.062 1398.46 828.11 1399.21 828.161 1399.96L476.112 1403.96L831.399 1433.83C835.847 1469.63 843.51 1505.18 854.195 1540.24L788.423 1554.61L537.013 1599.65L605.196 1594.62L375.029 1644.89L882.013 1615.36C892.602 1639.59 904.635 1663.48 918.045 1686.93L650.113 1788.8L936.087 1716.91C945.995 1732.59 956.525 1748.04 967.655 1763.25L599.239 1971.65L1009.49 1833.48L810.469 1963.14L1043.1 1852.99C1077.96 1889.36 1116.53 1923.69 1158.44 1955.47L1011.07 2115.07L1096.25 2047.73L926.676 2252.7L1242.48 2012.96C1271.02 2030.54 1300.75 2047.01 1331.59 2062.26L1243.16 2237.93L1363.06 2077.22C1385.01 2087.25 1407.48 2096.67 1430.45 2105.44L1328.24 2463.07L1521.33 2135.93C1523.89 2136.68 1526.45 2137.41 1529.02 2138.14L1496.58 2326.35L1562.6 2147.14C1614.4 2160.21 1666.06 2169.55 1717.12 2175.32L1768.26 2584.06L1815.27 2182.1C1857.55 2183.15 1899.22 2181.75 1940 2178.02L2022.69 2386.13L1974.87 2174.23C1979.41 2173.66 1983.95 2173.06 1988.47 2172.43L2207.64 2604.93L2084.38 2154.23C2098.42 2150.84 2112.3 2147.14 2126 2143.16L2272.38 2354.86L2159.59 2132.68C2180.44 2125.74 2200.83 2118.11 2220.73 2109.8L2607.32 2523.82L2357.95 2147.87L2498.43 2284.05L2317.33 2061.87C2348.32 2043.81 2377.59 2023.86 2404.9 2002.15L2931.81 2347.93L2471.2 1941.89C2488.26 1924.12 2504.2 1905.48 2518.92 1886L2841.53 2037.77L2544.75 1861.9L3152.26 2092.91L2580.59 1784.67C2583.37 1778.85 2586.05 1772.96 2588.63 1767.03L2943.6 1873.07L2601.16 1735.71C2606.95 1719.89 2612.08 1703.72 2616.5 1687.22C2616.5 1687.21 2616.5 1687.2 2616.51 1687.19L3249.09 1781.4L2869.84 1672.3L2992.68 1689.88L2637.7 1605.52L2632.29 1603.97C2636.21 1569.39 2636.93 1534.73 2634.63 1500.21L2986.64 1496.21L2776 1478.5L3213.7 1441.08L2620.69 1405.41C2617.04 1389.34 2612.76 1373.36 2607.85 1357.47L2925.74 1300.52L2596.82 1324.76C2591.09 1309.11 2584.77 1293.58 2577.86 1278.19L3049.22 1102.2L2629.58 1180.97L2812.64 1111.37L2526.72 1183.24C2502.58 1145.06 2474.76 1108.18 2443.56 1073.02L2652.29 937.027L2523.89 997.828L2770.28 794.864L2372.6 1001.31C2350.98 981.66 2328.21 962.747 2304.35 944.659L2451.68 785.104L2276.06 923.951C2258.17 911.313 2239.72 899.128 2220.74 887.43Z"/>
</mask>
<path fill-rule="evenodd" clip-rule="evenodd" d="M2220.74 887.43L2401.66 546.381L2136.27 840.386C2134.58 839.54 2132.89 838.698 2131.2 837.86L2219.6 662.243L2099.73 822.899C2051.64 800.933 2001.06 781.895 1948.3 766.204L1959.22 614.151L1966.17 573.816L1961.14 587.494L1976.12 378.83L1853.89 742.277C1810.97 733.258 1768.24 726.785 1725.97 722.75L1702.49 523.685L1691.24 719.976C1681.15 719.326 1671.08 718.816 1661.05 718.443L1531.45 307.098L1565.56 719.061C1551.19 719.79 1536.91 720.805 1522.74 722.103L1440.07 514.042L1487.88 725.89C1456 729.902 1424.73 735.361 1394.18 742.209L1107.19 337.56L1230.57 603.437L1190.38 545.309L1303.15 767.449C1258.55 782.302 1216.01 800.331 1176.02 821.329L964.331 616.119L1061.61 735.468L741.012 467.508L1095.8 869.824C1078 882.152 1060.9 895.163 1044.56 908.833L771.808 723.378L1018.64 931.653C1010.52 939.184 1002.61 946.894 994.928 954.776L465.466 685.397L932.916 1009.03L621.224 862.397L924.089 1041.88C906.953 1067.46 891.836 1094.33 878.925 1122.42L544.967 1034.81L519.158 1027.1L525.926 1029.81L305.032 971.865L851.55 1194.48C849.697 1200.57 847.941 1206.71 846.284 1212.9C841.863 1229.4 838.215 1245.96 835.321 1262.56L470.073 1210.29L830.516 1295.94C829.577 1304.2 828.82 1312.46 828.243 1320.73L273.966 1301.46L828.014 1397.71C828.062 1398.46 828.11 1399.21 828.161 1399.96L476.112 1403.96L831.399 1433.83C835.847 1469.63 843.51 1505.18 854.195 1540.24L788.423 1554.61L537.013 1599.65L605.196 1594.62L375.029 1644.89L882.013 1615.36C892.602 1639.59 904.635 1663.48 918.045 1686.93L650.113 1788.8L936.087 1716.91C945.995 1732.59 956.525 1748.04 967.655 1763.25L599.239 1971.65L1009.49 1833.48L810.469 1963.14L1043.1 1852.99C1077.96 1889.36 1116.53 1923.69 1158.44 1955.47L1011.07 2115.07L1096.25 2047.73L926.676 2252.7L1242.48 2012.96C1271.02 2030.54 1300.75 2047.01 1331.59 2062.26L1243.16 2237.93L1363.06 2077.22C1385.01 2087.25 1407.48 2096.67 1430.45 2105.44L1328.24 2463.07L1521.33 2135.93C1523.89 2136.68 1526.45 2137.41 1529.02 2138.14L1496.58 2326.35L1562.6 2147.14C1614.4 2160.21 1666.06 2169.55 1717.12 2175.32L1768.26 2584.06L1815.27 2182.1C1857.55 2183.15 1899.22 2181.75 1940 2178.02L2022.69 2386.13L1974.87 2174.23C1979.41 2173.66 1983.95 2173.06 1988.47 2172.43L2207.64 2604.93L2084.38 2154.23C2098.42 2150.84 2112.3 2147.14 2126 2143.16L2272.38 2354.86L2159.59 2132.68C2180.44 2125.74 2200.83 2118.11 2220.73 2109.8L2607.32 2523.82L2357.95 2147.87L2498.43 2284.05L2317.33 2061.87C2348.32 2043.81 2377.59 2023.86 2404.9 2002.15L2931.81 2347.93L2471.2 1941.89C2488.26 1924.12 2504.2 1905.48 2518.92 1886L2841.53 2037.77L2544.75 1861.9L3152.26 2092.91L2580.59 1784.67C2583.37 1778.85 2586.05 1772.96 2588.63 1767.03L2943.6 1873.07L2601.16 1735.71C2606.95 1719.89 2612.08 1703.72 2616.5 1687.22C2616.5 1687.21 2616.5 1687.2 2616.51 1687.19L3249.09 1781.4L2869.84 1672.3L2992.68 1689.88L2637.7 1605.52L2632.29 1603.97C2636.21 1569.39 2636.93 1534.73 2634.63 1500.21L2986.64 1496.21L2776 1478.5L3213.7 1441.08L2620.69 1405.41C2617.04 1389.34 2612.76 1373.36 2607.85 1357.47L2925.74 1300.52L2596.82 1324.76C2591.09 1309.11 2584.77 1293.58 2577.86 1278.19L3049.22 1102.2L2629.58 1180.97L2812.64 1111.37L2526.72 1183.24C2502.58 1145.06 2474.76 1108.18 2443.56 1073.02L2652.29 937.027L2523.89 997.828L2770.28 794.864L2372.6 1001.31C2350.98 981.66 2328.21 962.747 2304.35 944.659L2451.68 785.104L2276.06 923.951C2258.17 911.313 2239.72 899.128 2220.74 887.43Z" fill="black"/>
<path d="M2401.66 546.381L2404.83 548.061L2399 543.978L2401.66 546.381ZM2220.74 887.43L2217.57 885.75L2216 888.719L2218.86 890.482L2220.74 887.43ZM2136.27 840.386L2134.67 843.592L2137.1 844.814L2138.93 842.788L2136.27 840.386ZM2131.2 837.86L2127.99 836.248L2126.37 839.473L2129.61 841.074L2131.2 837.86ZM2219.6 662.243L2222.8 663.856L2216.72 660.099L2219.6 662.243ZM2099.73 822.899L2098.24 826.16L2100.88 827.363L2102.61 825.043L2099.73 822.899ZM1948.3 766.204L1944.73 765.947L1944.52 768.819L1947.28 769.641L1948.3 766.204ZM1959.22 614.151L1955.69 613.542L1955.66 613.717L1955.65 613.895L1959.22 614.151ZM1966.17 573.816L1969.71 574.425L1962.81 572.576L1966.17 573.816ZM1961.14 587.494L1957.56 587.237L1964.5 588.733L1961.14 587.494ZM1976.12 378.83L1979.69 379.086L1972.72 377.687L1976.12 378.83ZM1853.89 742.277L1853.15 745.787L1856.27 746.442L1857.29 743.42L1853.89 742.277ZM1725.97 722.75L1722.41 723.17L1722.74 726.045L1725.63 726.32L1725.97 722.75ZM1702.49 523.685L1706.05 523.265L1698.91 523.48L1702.49 523.685ZM1691.24 719.976L1691.01 723.554L1694.61 723.786L1694.82 720.181L1691.24 719.976ZM1661.05 718.443L1657.63 719.521L1658.39 721.933L1660.92 722.027L1661.05 718.443ZM1531.45 307.098L1534.87 306.021L1527.88 307.394L1531.45 307.098ZM1565.56 719.061L1565.74 722.642L1569.44 722.455L1569.13 718.765L1565.56 719.061ZM1522.74 722.103L1519.41 723.427L1520.4 725.918L1523.07 725.674L1522.74 722.103ZM1440.07 514.042L1443.4 512.718L1436.57 514.832L1440.07 514.042ZM1487.88 725.89L1488.33 729.448L1492.25 728.954L1491.38 725.101L1487.88 725.89ZM1394.18 742.209L1391.26 744.284L1392.64 746.23L1394.97 745.708L1394.18 742.209ZM1107.19 337.56L1110.11 335.485L1103.93 339.069L1107.19 337.56ZM1230.57 603.437L1227.62 605.476L1233.82 601.928L1230.57 603.437ZM1190.38 545.309L1193.33 543.27L1187.18 546.932L1190.38 545.309ZM1303.15 767.449L1304.28 770.851L1308.23 769.536L1306.35 765.826L1303.15 767.449ZM1176.02 821.329L1173.52 823.903L1175.39 825.71L1177.69 824.503L1176.02 821.329ZM964.331 616.119L966.827 613.545L961.551 618.385L964.331 616.119ZM1061.61 735.468L1059.31 738.219L1064.39 733.203L1061.61 735.468ZM741.012 467.508L743.311 464.757L738.322 469.88L741.012 467.508ZM1095.8 869.824L1097.84 872.772L1101.15 870.476L1098.49 867.453L1095.8 869.824ZM1044.56 908.833L1042.54 911.798L1044.78 913.321L1046.86 911.584L1044.56 908.833ZM771.808 723.378L773.825 720.412L769.496 726.118L771.808 723.378ZM1018.64 931.653L1021.08 934.282L1024.05 931.526L1020.96 928.912L1018.64 931.653ZM994.928 954.776L993.302 957.972L995.654 959.169L997.496 957.279L994.928 954.776ZM465.466 685.397L467.092 682.201L463.424 688.345L465.466 685.397ZM932.916 1009.03L931.389 1012.27L934.957 1006.08L932.916 1009.03ZM621.224 862.397L622.75 859.152L619.396 865.481L621.224 862.397ZM924.089 1041.88L927.068 1043.88L929.177 1040.73L925.917 1038.8L924.089 1041.88ZM878.925 1122.42L878.015 1125.89L880.926 1126.65L882.183 1123.92L878.925 1122.42ZM544.967 1034.81L543.941 1038.25L543.998 1038.26L544.057 1038.28L544.967 1034.81ZM519.158 1027.1L520.185 1023.66L517.823 1030.43L519.158 1027.1ZM525.926 1029.81L525.016 1033.28L527.261 1026.49L525.926 1029.81ZM305.032 971.865L305.942 968.397L303.679 975.186L305.032 971.865ZM851.55 1194.48L854.98 1195.52L855.933 1192.39L852.903 1191.16L851.55 1194.48ZM835.321 1262.56L834.814 1266.11L838.257 1266.6L838.854 1263.17L835.321 1262.56ZM470.073 1210.29L470.581 1206.74L469.244 1213.78L470.073 1210.29ZM830.516 1295.94L834.079 1296.35L834.439 1293.19L831.345 1292.46L830.516 1295.94ZM828.243 1320.73L828.119 1324.31L831.579 1324.43L831.82 1320.98L828.243 1320.73ZM273.966 1301.46L274.091 1297.88L273.352 1304.99L273.966 1301.46ZM828.014 1397.71L831.593 1397.48L831.415 1394.66L828.628 1394.17L828.014 1397.71ZM828.161 1399.96L828.201 1403.54L831.991 1403.5L831.738 1399.72L828.161 1399.96ZM476.112 1403.96L476.071 1400.38L475.812 1407.53L476.112 1403.96ZM831.399 1433.83L834.958 1433.39L834.599 1430.5L831.7 1430.26L831.399 1433.83ZM854.195 1540.24L854.96 1543.74L858.758 1542.91L857.625 1539.2L854.195 1540.24ZM788.423 1554.61L789.055 1558.14L789.122 1558.12L789.188 1558.11L788.423 1554.61ZM537.013 1599.65L536.38 1596.12L537.276 1603.22L537.013 1599.65ZM605.196 1594.62L605.961 1598.13L604.933 1591.05L605.196 1594.62ZM375.029 1644.89L374.263 1641.39L375.237 1648.47L375.029 1644.89ZM882.013 1615.36L885.299 1613.93L884.299 1611.64L881.805 1611.78L882.013 1615.36ZM918.045 1686.93L919.319 1690.28L923.239 1688.79L921.158 1685.15L918.045 1686.93ZM650.113 1788.8L648.839 1785.45L650.987 1792.27L650.113 1788.8ZM936.087 1716.91L939.118 1715L937.731 1712.8L935.213 1713.44L936.087 1716.91ZM967.655 1763.25L969.42 1766.37L972.93 1764.38L970.548 1761.13L967.655 1763.25ZM599.239 1971.65L597.474 1968.53L600.384 1975.05L599.239 1971.65ZM1009.49 1833.48L1011.44 1836.48L1008.34 1830.08L1009.49 1833.48ZM810.469 1963.14L808.512 1960.14L812.004 1966.38L810.469 1963.14ZM1043.1 1852.99L1045.69 1850.51L1043.9 1848.64L1041.56 1849.75L1043.1 1852.99ZM1158.44 1955.47L1161.08 1957.9L1163.76 1955L1160.61 1952.61L1158.44 1955.47ZM1011.07 2115.07L1008.44 2112.63L1013.3 2117.88L1011.07 2115.07ZM1096.25 2047.73L1099.01 2050.02L1094.02 2044.92L1096.25 2047.73ZM926.676 2252.7L923.913 2250.42L928.844 2255.56L926.676 2252.7ZM1242.48 2012.96L1244.37 2009.91L1242.27 2008.62L1240.32 2010.11L1242.48 2012.96ZM1331.59 2062.26L1334.79 2063.87L1336.41 2060.65L1333.18 2059.05L1331.59 2062.26ZM1243.16 2237.93L1239.96 2236.31L1246.03 2240.07L1243.16 2237.93ZM1363.06 2077.22L1364.55 2073.96L1361.91 2072.76L1360.18 2075.08L1363.06 2077.22ZM1430.45 2105.44L1433.89 2106.42L1434.8 2103.26L1431.73 2102.09L1430.45 2105.44ZM1328.24 2463.07L1324.8 2462.08L1331.33 2464.89L1328.24 2463.07ZM1521.33 2135.93L1522.33 2132.49L1519.66 2131.71L1518.24 2134.11L1521.33 2135.93ZM1529.02 2138.14L1532.56 2138.75L1533.1 2135.57L1530 2134.69L1529.02 2138.14ZM1496.58 2326.35L1493.05 2325.75L1499.95 2327.59L1496.58 2326.35ZM1562.6 2147.14L1563.47 2143.66L1560.35 2142.87L1559.23 2145.9L1562.6 2147.14ZM1717.12 2175.32L1720.68 2174.87L1720.33 2172.07L1717.52 2171.75L1717.12 2175.32ZM1768.26 2584.06L1764.71 2584.51L1771.83 2584.48L1768.26 2584.06ZM1815.27 2182.1L1815.36 2178.51L1812.08 2178.43L1811.7 2181.68L1815.27 2182.1ZM1940 2178.02L1943.33 2176.7L1942.34 2174.21L1939.67 2174.45L1940 2178.02ZM2022.69 2386.13L2019.36 2387.45L2026.19 2385.34L2022.69 2386.13ZM1974.87 2174.23L1974.42 2170.68L1970.5 2171.17L1971.37 2175.02L1974.87 2174.23ZM1988.47 2172.43L1991.67 2170.81L1990.51 2168.52L1987.97 2168.88L1988.47 2172.43ZM2207.64 2604.93L2204.44 2606.55L2211.1 2603.98L2207.64 2604.93ZM2084.38 2154.23L2083.53 2150.75L2079.94 2151.62L2080.92 2155.18L2084.38 2154.23ZM2126 2143.16L2128.95 2141.12L2127.48 2138.99L2125 2139.71L2126 2143.16ZM2272.38 2354.86L2269.43 2356.9L2275.58 2353.24L2272.38 2354.86ZM2159.59 2132.68L2158.46 2129.28L2154.51 2130.6L2156.39 2134.31L2159.59 2132.68ZM2220.73 2109.8L2223.35 2107.35L2221.65 2105.53L2219.35 2106.49L2220.73 2109.8ZM2607.32 2523.82L2604.7 2526.27L2610.31 2521.84L2607.32 2523.82ZM2357.95 2147.87L2360.44 2145.3L2354.96 2149.85L2357.95 2147.87ZM2498.43 2284.05L2495.93 2286.63L2501.21 2281.79L2498.43 2284.05ZM2317.33 2061.87L2315.52 2058.77L2311.9 2060.89L2314.55 2064.14L2317.33 2061.87ZM2404.9 2002.15L2406.87 1999.15L2404.7 1997.73L2402.67 1999.35L2404.9 2002.15ZM2931.81 2347.93L2929.84 2350.93L2934.18 2345.24L2931.81 2347.93ZM2471.2 1941.89L2468.61 1939.4L2466.02 1942.1L2468.83 1944.58L2471.2 1941.89ZM2518.92 1886L2520.45 1882.76L2517.81 1881.52L2516.06 1883.84L2518.92 1886ZM2841.53 2037.77L2840.01 2041.02L2843.36 2034.69L2841.53 2037.77ZM2544.75 1861.9L2546.03 1858.54L2542.93 1864.98L2544.75 1861.9ZM3152.26 2092.91L3150.99 2096.26L3153.96 2089.75L3152.26 2092.91ZM2580.59 1784.67L2577.36 1783.13L2575.89 1786.21L2578.89 1787.83L2580.59 1784.67ZM2588.63 1767.03L2589.66 1763.59L2586.61 1762.68L2585.34 1765.6L2588.63 1767.03ZM2943.6 1873.07L2942.57 1876.51L2944.93 1869.74L2943.6 1873.07ZM2601.16 1735.71L2597.79 1734.48L2596.6 1737.75L2599.83 1739.04L2601.16 1735.71ZM2616.51 1687.19L2617.03 1683.65L2613.87 1683.18L2613.04 1686.27L2616.51 1687.19ZM3249.09 1781.4L3248.56 1784.94L3250.08 1777.95L3249.09 1781.4ZM2869.84 1672.3L2870.35 1668.75L2868.85 1675.75L2869.84 1672.3ZM2992.68 1689.88L2992.18 1693.43L2993.51 1686.39L2992.68 1689.88ZM2637.7 1605.52L2636.71 1608.97L2636.79 1608.99L2636.87 1609.01L2637.7 1605.52ZM2632.29 1603.97L2628.73 1603.56L2628.39 1606.57L2631.3 1607.41L2632.29 1603.97ZM2634.63 1500.21L2634.58 1496.63L2630.79 1496.67L2631.05 1500.45L2634.63 1500.21ZM2986.64 1496.21L2986.69 1499.79L2986.95 1492.64L2986.64 1496.21ZM2776 1478.5L2775.7 1474.93L2775.7 1482.07L2776 1478.5ZM3213.7 1441.08L3214 1444.65L3213.91 1437.5L3213.7 1441.08ZM2620.69 1405.41L2617.19 1406.2L2617.79 1408.82L2620.47 1408.99L2620.69 1405.41ZM2607.85 1357.47L2607.22 1353.95L2603.23 1354.66L2604.42 1358.53L2607.85 1357.47ZM2925.74 1300.52L2926.38 1304.05L2925.48 1296.95L2925.74 1300.52ZM2596.82 1324.76L2593.45 1325.99L2594.38 1328.53L2597.08 1328.33L2596.82 1324.76ZM2577.86 1278.19L2576.61 1274.83L2573.02 1276.17L2574.59 1279.66L2577.86 1278.19ZM3049.22 1102.2L3050.48 1105.56L3048.56 1098.68L3049.22 1102.2ZM2629.58 1180.97L2628.3 1177.62L2630.24 1184.5L2629.58 1180.97ZM2812.64 1111.37L2813.92 1114.72L2811.77 1107.9L2812.64 1111.37ZM2526.72 1183.24L2523.69 1185.16L2525.08 1187.35L2527.59 1186.72L2526.72 1183.24ZM2443.56 1073.02L2441.6 1070.01L2438.12 1072.28L2440.88 1075.4L2443.56 1073.02ZM2652.29 937.027L2654.24 940.031L2650.75 933.786L2652.29 937.027ZM2523.89 997.828L2521.61 995.061L2525.42 1001.07L2523.89 997.828ZM2770.28 794.864L2772.56 797.632L2768.63 791.682L2770.28 794.864ZM2372.6 1001.31L2370.19 1003.96L2372.04 1005.64L2374.25 1004.49L2372.6 1001.31ZM2304.35 944.659L2301.72 942.227L2299.04 945.129L2302.19 947.517L2304.35 944.659ZM2451.68 785.104L2454.32 787.536L2449.46 782.291L2451.68 785.104ZM2276.06 923.951L2273.99 926.88L2276.18 928.426L2278.28 926.764L2276.06 923.951ZM2398.5 544.701L2217.57 885.75L2223.91 889.11L2404.83 548.061L2398.5 544.701ZM2138.93 842.788L2404.33 548.784L2399 543.978L2133.61 837.983L2138.93 842.788ZM2137.88 837.18C2136.18 836.332 2134.49 835.487 2132.79 834.646L2129.61 841.074C2131.3 841.91 2132.98 842.749 2134.67 843.592L2137.88 837.18ZM2134.4 839.472L2222.8 663.856L2216.39 660.631L2127.99 836.248L2134.4 839.472ZM2216.72 660.099L2096.86 820.755L2102.61 825.043L2222.47 664.388L2216.72 660.099ZM2101.22 819.637C2052.98 797.602 2002.24 778.505 1949.33 762.767L1947.28 769.641C1999.88 785.284 2050.3 804.264 2098.24 826.16L2101.22 819.637ZM1955.65 613.895L1944.73 765.947L1951.88 766.46L1962.8 614.408L1955.65 613.895ZM1962.76 614.76L1969.71 574.425L1962.64 573.207L1955.69 613.542L1962.76 614.76ZM1962.81 572.576L1957.77 586.254L1964.5 588.733L1969.54 575.055L1962.81 572.576ZM1972.54 378.573L1957.56 587.237L1964.71 587.751L1979.69 379.086L1972.54 378.573ZM1857.29 743.42L1979.52 379.973L1972.72 377.687L1850.49 741.134L1857.29 743.42ZM1854.63 738.768C1811.58 729.722 1768.72 723.228 1726.31 719.181L1725.63 726.32C1767.77 730.341 1810.36 736.795 1853.15 745.787L1854.63 738.768ZM1729.53 722.33L1706.05 523.265L1698.93 524.105L1722.41 723.17L1729.53 722.33ZM1698.91 523.48L1687.66 719.77L1694.82 720.181L1706.07 523.89L1698.91 523.48ZM1691.47 716.397C1681.34 715.746 1671.25 715.234 1661.19 714.86L1660.92 722.027C1670.92 722.398 1680.95 722.907 1691.01 723.554L1691.47 716.397ZM1528.03 308.176L1657.63 719.521L1664.47 717.366L1534.87 306.021L1528.03 308.176ZM1569.13 718.765L1535.03 306.802L1527.88 307.394L1561.99 719.357L1569.13 718.765ZM1565.38 715.48C1550.96 716.211 1536.63 717.23 1522.41 718.532L1523.07 725.674C1537.19 724.381 1551.42 723.369 1565.74 722.642L1565.38 715.48ZM1526.07 720.779L1443.4 512.718L1436.73 515.366L1519.41 723.427L1526.07 720.779ZM1436.57 514.832L1484.38 726.68L1491.38 725.101L1443.56 513.253L1436.57 514.832ZM1487.43 722.333C1455.44 726.359 1424.05 731.837 1393.4 738.71L1394.97 745.708C1425.4 738.885 1456.56 733.446 1488.33 729.448L1487.43 722.333ZM1104.26 339.634L1391.26 744.284L1397.11 740.135L1110.11 335.485L1104.26 339.634ZM1233.82 601.928L1110.44 336.051L1103.93 339.069L1227.32 604.946L1233.82 601.928ZM1233.52 601.398L1193.33 543.27L1187.43 547.349L1227.62 605.476L1233.52 601.398ZM1187.18 546.932L1299.95 769.072L1306.35 765.826L1193.57 543.686L1187.18 546.932ZM1302.01 764.047C1257.24 778.959 1214.52 797.062 1174.35 818.154L1177.69 824.503C1217.5 803.599 1259.86 785.646 1304.28 770.851L1302.01 764.047ZM1178.52 818.754L966.827 613.545L961.835 618.694L1173.52 823.903L1178.52 818.754ZM961.551 618.385L1058.83 737.734L1064.39 733.203L967.11 613.854L961.551 618.385ZM738.712 470.26L1059.31 738.219L1063.91 732.717L743.311 464.757L738.712 470.26ZM1098.49 867.453L743.701 465.137L738.322 469.88L1093.11 872.196L1098.49 867.453ZM1093.76 866.877C1075.87 879.264 1058.69 892.341 1042.26 906.083L1046.86 911.584C1063.12 897.984 1080.13 885.039 1097.84 872.772L1093.76 866.877ZM1046.58 905.868L773.825 720.412L769.792 726.343L1042.54 911.798L1046.58 905.868ZM769.496 726.118L1016.33 934.393L1020.96 928.912L774.121 720.637L769.496 726.118ZM1016.21 929.023C1008.04 936.596 1000.09 944.347 992.361 952.273L997.496 957.279C1005.14 949.44 1013 941.773 1021.08 934.282L1016.21 929.023ZM463.84 688.593L993.302 957.972L996.554 951.581L467.092 682.201L463.84 688.593ZM934.957 1006.08L467.507 682.449L463.424 688.345L930.875 1011.98L934.957 1006.08ZM934.442 1005.78L622.75 859.152L619.697 865.641L931.389 1012.27L934.442 1005.78ZM619.396 865.481L922.261 1044.96L925.917 1038.8L623.052 859.312L619.396 865.481ZM921.11 1039.88C903.87 1065.62 888.659 1092.66 875.667 1120.92L882.183 1123.92C895.013 1096 910.036 1069.3 927.068 1043.88L921.11 1039.88ZM544.057 1038.28L878.015 1125.89L879.835 1118.95L545.877 1031.34L544.057 1038.28ZM545.993 1031.37L520.185 1023.66L518.132 1030.54L543.941 1038.25L545.993 1031.37ZM517.823 1030.43L524.591 1033.14L527.261 1026.49L520.493 1023.77L517.823 1030.43ZM304.122 975.334L525.016 1033.28L526.836 1026.35L305.942 968.397L304.122 975.334ZM852.903 1191.16L306.385 968.545L303.679 975.186L850.197 1197.8L852.903 1191.16ZM848.119 1193.44C846.255 1199.57 844.488 1205.74 842.821 1211.97L849.748 1213.82C851.395 1207.68 853.139 1201.58 854.98 1195.52L848.119 1193.44ZM842.821 1211.97C838.372 1228.57 834.701 1245.24 831.789 1261.94L838.854 1263.17C841.729 1246.68 845.354 1230.22 849.748 1213.82L842.821 1211.97ZM835.829 1259.01L470.581 1206.74L469.565 1213.84L834.814 1266.11L835.829 1259.01ZM469.244 1213.78L829.687 1299.43L831.345 1292.46L470.902 1206.8L469.244 1213.78ZM826.954 1295.54C826.008 1303.85 825.247 1312.16 824.666 1320.48L831.82 1320.98C832.393 1312.77 833.146 1304.56 834.079 1296.35L826.954 1295.54ZM273.842 1305.04L828.119 1324.31L828.368 1317.15L274.091 1297.88L273.842 1305.04ZM828.628 1394.17L274.58 1297.93L273.352 1304.99L827.401 1401.24L828.628 1394.17ZM824.436 1397.93C824.483 1398.69 824.532 1399.44 824.583 1400.2L831.738 1399.72C831.688 1398.97 831.64 1398.23 831.593 1397.48L824.436 1397.93ZM828.12 1396.37L476.071 1400.38L476.153 1407.55L828.201 1403.54L828.12 1396.37ZM475.812 1407.53L831.099 1437.41L831.7 1430.26L476.412 1400.39L475.812 1407.53ZM827.841 1434.27C832.315 1470.28 840.022 1506.04 850.765 1541.29L857.625 1539.2C846.998 1504.33 839.379 1468.97 834.958 1433.39L827.841 1434.27ZM789.188 1558.11L854.96 1543.74L853.43 1536.74L787.658 1551.1L789.188 1558.11ZM787.791 1551.08L536.38 1596.12L537.645 1603.18L789.055 1558.14L787.791 1551.08ZM537.276 1603.22L605.46 1598.2L604.933 1591.05L536.749 1596.07L537.276 1603.22ZM375.794 1648.4L605.961 1598.13L604.431 1591.12L374.263 1641.39L375.794 1648.4ZM881.805 1611.78L374.82 1641.31L375.237 1648.47L882.222 1618.94L881.805 1611.78ZM878.728 1616.8C889.369 1641.15 901.461 1665.15 914.932 1688.71L921.158 1685.15C907.81 1661.81 895.834 1638.03 885.299 1613.93L878.728 1616.8ZM916.77 1683.58L648.839 1785.45L651.387 1792.15L919.319 1690.28L916.77 1683.58ZM650.987 1792.27L936.962 1720.39L935.213 1713.44L649.239 1785.32L650.987 1792.27ZM933.057 1718.83C943.009 1734.57 953.584 1750.09 964.761 1765.36L970.548 1761.13C959.466 1745.99 948.982 1730.6 939.118 1715L933.057 1718.83ZM601.005 1974.77L969.42 1766.37L965.889 1760.12L597.474 1968.53L601.005 1974.77ZM1008.34 1830.08L598.095 1968.25L600.384 1975.05L1010.63 1836.88L1008.34 1830.08ZM1007.53 1830.48L808.512 1960.14L812.427 1966.15L1011.44 1836.48L1007.53 1830.48ZM812.004 1966.38L1044.63 1856.23L1041.56 1849.75L808.935 1959.9L812.004 1966.38ZM1040.51 1855.47C1075.5 1891.98 1114.22 1926.44 1156.27 1958.33L1160.61 1952.61C1118.84 1920.94 1080.41 1886.74 1045.69 1850.51L1040.51 1855.47ZM1155.81 1953.04L1008.44 2112.63L1013.71 2117.5L1161.08 1957.9L1155.81 1953.04ZM1013.3 2117.88L1098.47 2050.54L1094.02 2044.92L1008.85 2112.25L1013.3 2117.88ZM929.439 2254.99L1099.01 2050.02L1093.48 2045.44L923.913 2250.42L929.439 2254.99ZM1240.32 2010.11L924.508 2249.85L928.844 2255.56L1244.65 2015.82L1240.32 2010.11ZM1240.6 2016.02C1269.24 2033.65 1299.06 2050.17 1330 2065.47L1333.18 2059.05C1302.44 2043.84 1272.81 2027.43 1244.37 2009.91L1240.6 2016.02ZM1328.38 2060.65L1239.96 2236.31L1246.36 2239.54L1334.79 2063.87L1328.38 2060.65ZM1246.03 2240.07L1365.93 2079.37L1360.18 2075.08L1240.29 2235.78L1246.03 2240.07ZM1361.57 2080.49C1383.59 2090.55 1406.13 2099.99 1429.17 2108.79L1431.73 2102.09C1408.83 2093.35 1386.43 2083.96 1364.55 2073.96L1361.57 2080.49ZM1331.69 2464.05L1433.89 2106.42L1427 2104.45L1324.8 2462.08L1331.69 2464.05ZM1518.24 2134.11L1325.16 2461.25L1331.33 2464.89L1524.42 2137.75L1518.24 2134.11ZM1520.33 2139.38C1522.9 2140.12 1525.47 2140.86 1528.04 2141.59L1530 2134.69C1527.44 2133.97 1524.88 2133.23 1522.33 2132.49L1520.33 2139.38ZM1525.49 2137.53L1493.05 2325.75L1500.12 2326.96L1532.56 2138.75L1525.49 2137.53ZM1499.95 2327.59L1565.96 2148.38L1559.23 2145.9L1493.22 2325.11L1499.95 2327.59ZM1561.72 2150.61C1613.68 2163.73 1665.5 2173.09 1716.72 2178.88L1717.52 2171.75C1666.62 2166 1615.13 2156.7 1563.47 2143.66L1561.72 2150.61ZM1771.82 2583.62L1720.68 2174.87L1713.56 2175.76L1764.71 2584.51L1771.82 2583.62ZM1811.7 2181.68L1764.7 2583.64L1771.83 2584.48L1818.83 2182.51L1811.7 2181.68ZM1815.18 2185.68C1857.6 2186.74 1899.41 2185.34 1940.33 2181.59L1939.67 2174.45C1899.03 2178.17 1857.51 2179.56 1815.36 2178.51L1815.18 2185.68ZM1936.67 2179.34L2019.36 2387.45L2026.02 2384.8L1943.33 2176.7L1936.67 2179.34ZM2026.19 2385.34L1978.36 2173.44L1971.37 2175.02L2019.19 2386.92L2026.19 2385.34ZM1975.31 2177.79C1979.88 2177.22 1984.43 2176.61 1988.97 2175.98L1987.97 2168.88C1983.47 2169.51 1978.95 2170.11 1974.42 2170.68L1975.31 2177.79ZM2210.84 2603.31L1991.67 2170.81L1985.27 2174.05L2204.44 2606.55L2210.84 2603.31ZM2080.92 2155.18L2204.18 2605.87L2211.1 2603.98L2087.83 2153.29L2080.92 2155.18ZM2085.22 2157.72C2099.31 2154.31 2113.25 2150.6 2127 2146.6L2125 2139.71C2111.35 2143.68 2097.52 2147.36 2083.53 2150.75L2085.22 2157.72ZM2123.05 2145.19L2269.43 2356.9L2275.33 2352.82L2128.95 2141.12L2123.05 2145.19ZM2275.58 2353.24L2162.79 2131.06L2156.39 2134.31L2269.18 2356.48L2275.58 2353.24ZM2160.72 2136.09C2181.65 2129.12 2202.13 2121.45 2222.11 2113.11L2219.35 2106.49C2199.53 2114.77 2179.22 2122.37 2158.46 2129.28L2160.72 2136.09ZM2609.94 2521.37L2223.35 2107.35L2218.11 2112.25L2604.7 2526.27L2609.94 2521.37ZM2354.96 2149.85L2604.33 2525.8L2610.31 2521.84L2360.93 2145.89L2354.96 2149.85ZM2355.45 2150.45L2495.93 2286.63L2500.92 2281.48L2360.44 2145.3L2355.45 2150.45ZM2501.21 2281.79L2320.11 2059.61L2314.55 2064.14L2495.65 2286.32L2501.21 2281.79ZM2319.13 2064.97C2350.27 2046.82 2379.68 2026.78 2407.13 2004.96L2402.67 1999.35C2375.5 2020.95 2346.37 2040.79 2315.52 2058.77L2319.13 2064.97ZM2933.77 2344.94L2406.87 1999.15L2402.93 2005.15L2929.84 2350.93L2933.77 2344.94ZM2468.83 1944.58L2929.44 2350.62L2934.18 2345.24L2473.57 1939.2L2468.83 1944.58ZM2473.78 1944.37C2490.95 1926.5 2506.98 1907.75 2521.78 1888.17L2516.06 1883.84C2501.43 1903.2 2485.58 1921.73 2468.61 1939.4L2473.78 1944.37ZM2517.39 1889.25L2840.01 2041.02L2843.06 2034.53L2520.45 1882.76L2517.39 1889.25ZM2843.36 2034.69L2546.58 1858.81L2542.93 1864.98L2839.7 2040.86L2843.36 2034.69ZM3153.53 2089.56L2546.03 1858.54L2543.48 1865.25L3150.99 2096.26L3153.53 2089.56ZM2578.89 1787.83L3150.56 2096.06L3153.96 2089.75L2582.3 1781.52L2578.89 1787.83ZM2583.83 1786.22C2586.62 1780.35 2589.32 1774.43 2591.92 1768.46L2585.34 1765.6C2582.78 1771.5 2580.11 1777.34 2577.36 1783.13L2583.83 1786.22ZM2587.6 1770.47L2942.57 1876.51L2944.62 1869.63L2589.66 1763.59L2587.6 1770.47ZM2944.93 1869.74L2602.5 1732.39L2599.83 1739.04L2942.26 1876.4L2944.93 1869.74ZM2604.53 1736.95C2610.36 1721.02 2615.51 1704.75 2619.96 1688.15L2613.03 1686.3C2608.64 1702.69 2603.55 1718.76 2597.79 1734.48L2604.53 1736.95ZM2619.96 1688.15C2619.96 1688.15 2619.96 1688.15 2619.96 1688.14C2619.96 1688.14 2619.96 1688.14 2619.96 1688.14C2619.97 1688.14 2619.96 1688.14 2619.97 1688.14C2619.97 1688.13 2619.97 1688.13 2619.97 1688.12L2613.04 1686.27C2613.04 1686.27 2613.04 1686.27 2613.04 1686.27C2613.04 1686.27 2613.04 1686.28 2613.04 1686.28C2613.04 1686.28 2613.04 1686.28 2613.04 1686.28C2613.04 1686.28 2613.04 1686.28 2613.04 1686.28C2613.04 1686.28 2613.04 1686.28 2613.04 1686.28C2613.04 1686.28 2613.04 1686.28 2613.04 1686.28C2613.04 1686.28 2613.04 1686.28 2613.04 1686.28C2613.04 1686.28 2613.04 1686.28 2613.04 1686.28C2613.04 1686.28 2613.04 1686.28 2613.04 1686.28C2613.04 1686.28 2613.04 1686.28 2613.04 1686.28C2613.04 1686.28 2613.04 1686.28 2613.04 1686.28C2613.04 1686.28 2613.04 1686.28 2613.04 1686.28C2613.04 1686.28 2613.04 1686.28 2613.04 1686.28C2613.04 1686.28 2613.04 1686.28 2613.04 1686.28C2613.04 1686.28 2613.04 1686.28 2613.04 1686.28C2613.04 1686.28 2613.04 1686.28 2613.04 1686.28C2613.04 1686.28 2613.04 1686.28 2613.04 1686.28C2613.04 1686.28 2613.04 1686.28 2613.04 1686.28C2613.04 1686.28 2613.04 1686.28 2613.04 1686.28C2613.04 1686.28 2613.04 1686.28 2613.04 1686.28C2613.04 1686.28 2613.04 1686.28 2613.04 1686.28C2613.04 1686.28 2613.04 1686.28 2613.04 1686.28C2613.04 1686.28 2613.04 1686.28 2613.04 1686.28C2613.04 1686.28 2613.04 1686.28 2613.04 1686.28C2613.04 1686.28 2613.04 1686.28 2613.04 1686.28C2613.04 1686.28 2613.04 1686.28 2613.04 1686.28C2613.04 1686.28 2613.04 1686.28 2613.04 1686.28C2613.04 1686.28 2613.04 1686.28 2613.04 1686.28C2613.04 1686.28 2613.04 1686.28 2613.04 1686.28C2613.04 1686.28 2613.04 1686.28 2613.04 1686.28C2613.04 1686.28 2613.04 1686.28 2613.04 1686.28C2613.04 1686.28 2613.04 1686.28 2613.04 1686.28C2613.04 1686.28 2613.04 1686.28 2613.04 1686.28C2613.04 1686.28 2613.04 1686.28 2613.04 1686.28C2613.04 1686.28 2613.04 1686.28 2613.04 1686.28C2613.04 1686.29 2613.04 1686.29 2613.03 1686.3L2619.96 1688.15ZM3249.62 1777.85L2617.03 1683.65L2615.98 1690.74L3248.56 1784.94L3249.62 1777.85ZM2868.85 1675.75L3248.1 1784.84L3250.08 1777.95L2870.83 1668.85L2868.85 1675.75ZM2869.33 1675.85L2992.18 1693.43L2993.19 1686.33L2870.35 1668.75L2869.33 1675.85ZM2993.51 1686.39L2638.53 1602.03L2636.87 1609.01L2991.86 1693.37L2993.51 1686.39ZM2631.3 1607.41L2636.71 1608.97L2638.69 1602.08L2633.28 1600.52L2631.3 1607.41ZM2635.85 1604.37C2639.8 1569.58 2640.52 1534.7 2638.2 1499.97L2631.05 1500.45C2633.34 1534.76 2632.62 1569.21 2628.73 1603.56L2635.85 1604.37ZM2634.67 1503.8L2986.69 1499.79L2986.6 1492.62L2634.58 1496.63L2634.67 1503.8ZM2986.95 1492.64L2776.3 1474.93L2775.7 1482.07L2986.34 1499.78L2986.95 1492.64ZM3213.39 1437.51L2775.7 1474.93L2776.31 1482.07L3214 1444.65L3213.39 1437.51ZM2620.47 1408.99L3213.48 1444.66L3213.91 1437.5L2620.91 1401.83L2620.47 1408.99ZM2624.19 1404.61C2620.52 1388.46 2616.21 1372.38 2611.28 1356.42L2604.42 1358.53C2609.3 1374.33 2613.57 1390.23 2617.19 1406.2L2624.19 1404.61ZM2608.48 1361L2926.38 1304.05L2925.11 1296.99L2607.22 1353.95L2608.48 1361ZM2925.48 1296.95L2596.55 1321.18L2597.08 1328.33L2926.01 1304.1L2925.48 1296.95ZM2600.18 1323.52C2594.43 1307.8 2588.07 1292.19 2581.13 1276.73L2574.59 1279.66C2581.46 1294.97 2587.76 1310.42 2593.45 1325.99L2600.18 1323.52ZM3047.97 1098.84L2576.61 1274.83L2579.12 1281.55L3050.48 1105.56L3047.97 1098.84ZM2630.24 1184.5L3049.89 1105.72L3048.56 1098.68L2628.92 1177.45L2630.24 1184.5ZM2630.85 1184.33L2813.92 1114.72L2811.37 1108.02L2628.3 1177.62L2630.85 1184.33ZM2811.77 1107.9L2525.84 1179.77L2527.59 1186.72L2813.52 1114.85L2811.77 1107.9ZM2529.75 1181.33C2505.51 1142.98 2477.57 1105.94 2446.24 1070.64L2440.88 1075.4C2471.96 1110.42 2499.66 1147.15 2523.69 1185.16L2529.75 1181.33ZM2445.52 1076.02L2654.24 940.031L2650.33 934.023L2441.6 1070.01L2445.52 1076.02ZM2650.75 933.786L2522.35 994.587L2525.42 1001.07L2653.82 940.268L2650.75 933.786ZM2768 792.097L2521.61 995.061L2526.17 1000.6L2772.56 797.632L2768 792.097ZM2374.25 1004.49L2771.94 798.047L2768.63 791.682L2370.95 998.123L2374.25 1004.49ZM2375.01 998.652C2353.31 978.933 2330.46 959.953 2306.52 941.802L2302.19 947.517C2325.96 965.541 2348.65 984.386 2370.19 1003.96L2375.01 998.652ZM2306.99 947.092L2454.32 787.536L2449.05 782.671L2301.72 942.227L2306.99 947.092ZM2449.46 782.291L2273.84 921.138L2278.28 926.764L2453.91 787.917L2449.46 782.291ZM2278.13 921.022C2260.17 908.341 2241.66 896.115 2222.62 884.378L2218.86 890.482C2237.77 902.141 2256.16 914.285 2273.99 926.88L2278.13 921.022Z" fill="#E8E7E5" mask="url(#path-1-inside-1_250_1361)"/>
<path d="M2195.46 1486.3C2181.72 1537.57 2117.11 1565.53 2050.43 1547.66C1983.76 1529.8 1941.78 1473.28 1955.52 1422C1969.26 1370.73 2033.87 1342.77 2100.55 1360.63C2167.23 1378.5 2209.2 1435.02 2195.46 1486.3Z" fill="#E8E7E5" stroke="#E8E7E5" stroke-width="3.5857"/>
<path d="M2129.08 1468.51C2123.03 1491.09 2094.37 1503.75 2064.35 1495.71C2034.34 1487.67 2015.85 1462.37 2021.9 1439.79C2027.95 1417.21 2056.61 1404.54 2086.63 1412.59C2116.64 1420.63 2135.13 1445.92 2129.08 1468.51Z" fill="black" stroke="#E8E7E5" stroke-width="3.5857"/>
<path d="M1540.48 1310.79C1526.74 1362.07 1462.13 1390.03 1395.46 1372.16C1328.78 1354.3 1286.8 1297.78 1300.54 1246.5C1314.28 1195.23 1378.89 1167.27 1445.57 1185.13C1512.25 1203 1554.22 1259.52 1540.48 1310.79Z" fill="#E8E7E5" stroke="#E8E7E5" stroke-width="3.5857"/>
<path d="M1474.1 1293C1468.05 1315.59 1439.39 1328.25 1409.38 1320.21C1379.36 1312.16 1360.88 1286.87 1366.93 1264.29C1372.98 1241.7 1401.64 1229.04 1431.65 1237.08C1461.66 1245.13 1480.15 1270.42 1474.1 1293Z" fill="black" stroke="#E8E7E5" stroke-width="3.5857"/>
</svg>
