<svg width="3515" height="2900" viewBox="0 0 3515 2900" fill="none" xmlns="http://www.w3.org/2000/svg">
<mask id="path-1-inside-1_250_1370" fill="white">
<path fill-rule="evenodd" clip-rule="evenodd" d="M1877.58 730.476L1863.74 344.656L1780.9 731.97C1779.02 732.082 1777.13 732.199 1775.24 732.32L1763.99 536.033L1740.51 735.095C1687.88 740.118 1634.56 748.921 1581.03 761.709L1514.43 624.524L1500.3 586.163L1502.78 600.51L1411.43 412.326L1487.3 788.196C1445.62 801.846 1405.38 817.603 1366.75 835.248L1246.88 674.591L1335.28 850.21C1326.22 854.693 1317.25 859.282 1308.38 863.973L990.471 572.536L1225.99 912.254C1213.91 920.073 1202.05 928.092 1190.42 936.302L1014.8 797.452L1162.13 957.011C1136.53 976.425 1112.17 996.788 1089.15 1017.99L638.275 811.05L878.088 979.632L814.191 949.375L1022.92 1085.37C991.725 1120.53 963.902 1157.41 939.769 1195.59L653.834 1123.72L797.737 1178.43L386.132 1106.68L894.545 1277.7C885.296 1297.27 876.994 1317.09 869.675 1337.1L540.734 1312.87L858.64 1369.82C855.371 1380.41 852.378 1391.04 849.664 1401.7L256.447 1433.15L823.105 1479.7L479.833 1508.56L831.867 1512.56C829.815 1543.28 830.16 1574.11 833.024 1604.89L499.935 1696.02L473.794 1702.23L480.994 1701.2L260.741 1761.45L845.347 1680.98C846.788 1687.19 848.337 1693.38 849.994 1699.57C854.415 1716.07 859.537 1732.23 865.331 1748.06L522.88 1885.42L877.863 1779.37C881.178 1786.99 884.654 1794.53 888.286 1801.97L398.635 2062.42L926.576 1868.75C926.992 1869.38 927.41 1870 927.828 1870.63L624.945 2050.12L947.571 1898.35C969.319 1927.12 993.734 1954.08 1020.52 1979.1L970.741 2024.42L775.53 2189.14L832.068 2150.7L657.875 2309.31L1082.17 2030.25C1103.45 2045.94 1125.82 2060.61 1149.16 2074.21L968.052 2296.4L1179.77 2091.16C1196.19 2099.78 1213.04 2107.89 1230.28 2115.5L1015.43 2480.19L1301.62 2155.41L1194.1 2367.21L1340.48 2155.5C1388.86 2169.57 1439.43 2180.01 1491.61 2186.58L1443.79 2398.48L1483.89 2297.56L1439.52 2559.87L1593.15 2194.35C1626.65 2195.3 1660.63 2194.7 1694.96 2192.49L1706.21 2388.83L1729.69 2189.71C1753.72 2187.42 1777.89 2184.34 1802.17 2180.45L1892.47 2541.27L1896.12 2161.42C1898.71 2160.78 1901.3 2160.14 1903.88 2159.48L1969.9 2338.7L1937.46 2150.49C1988.86 2135.91 2038.26 2118.16 2085.37 2097.63L2334.04 2426.04L2173.76 2054.43C2210.91 2034.2 2246.29 2012.16 2279.74 1988.53L2455.4 2127.41L2308.04 1967.82C2311.69 1965.05 2315.32 1962.26 2318.92 1959.45L2724.98 2224.42L2392.88 1895.74C2403.34 1885.78 2413.51 1875.64 2423.39 1865.34L2656.01 1975.49L2447.24 1839.48C2461.83 1823.04 2475.67 1806.23 2488.75 1789.09L3030.56 1954.34L2626.64 1753.46L2816.37 1801.14L2548.44 1699.28C2566.25 1668.14 2581.63 1636.23 2594.42 1603.77L3223.63 1639.78L2621.71 1518.43C2627.6 1494.51 2632.08 1470.4 2635.09 1446.18L2990.37 1416.31L2645.39 1412.38L3287.03 1308.69L2637.84 1327.59C2637.33 1321.15 2636.71 1314.72 2635.98 1308.29L2996.41 1222.64L2631.17 1274.9C2628.28 1258.3 2624.63 1241.74 2620.21 1225.24C2620.21 1225.23 2620.2 1225.22 2620.2 1225.21L3215.14 990.498L2832.16 1085.64L2947.32 1039.45L2597.77 1143.87L2592.25 1145.24C2578.36 1113.34 2561.66 1082.96 2542.4 1054.22L2845.25 874.744L2653.98 964.728L3014.33 713.473L2482.93 979.082C2471.74 966.994 2460.03 955.293 2447.84 943.992L2694.67 735.725L2421.93 921.174C2409.15 910.485 2395.91 900.199 2382.23 890.327L2702.45 502.23L2378.41 780.276L2502.15 628.467L2290.47 833.669C2250.47 812.671 2207.94 794.643 2163.33 779.789L2276.1 557.657L2195.31 674.504L2307.21 375.538L2066.03 753.166C2037.48 746.963 2008.3 741.97 1978.6 738.232L2026.41 526.39L1943.74 734.446C1921.93 732.448 1899.86 731.119 1877.58 730.476Z"/>
</mask>
<path fill-rule="evenodd" clip-rule="evenodd" d="M1877.58 730.476L1863.74 344.656L1780.9 731.97C1779.02 732.082 1777.13 732.199 1775.24 732.32L1763.99 536.033L1740.51 735.095C1687.88 740.118 1634.56 748.921 1581.03 761.709L1514.43 624.524L1500.3 586.163L1502.78 600.51L1411.43 412.326L1487.3 788.196C1445.62 801.846 1405.38 817.603 1366.75 835.248L1246.88 674.591L1335.28 850.21C1326.22 854.693 1317.25 859.282 1308.38 863.973L990.471 572.536L1225.99 912.254C1213.91 920.073 1202.05 928.092 1190.42 936.302L1014.8 797.452L1162.13 957.011C1136.53 976.425 1112.17 996.788 1089.15 1017.99L638.275 811.05L878.088 979.632L814.191 949.375L1022.92 1085.37C991.725 1120.53 963.902 1157.41 939.769 1195.59L653.834 1123.72L797.737 1178.43L386.132 1106.68L894.545 1277.7C885.296 1297.27 876.994 1317.09 869.675 1337.1L540.734 1312.87L858.64 1369.82C855.371 1380.41 852.378 1391.04 849.664 1401.7L256.447 1433.15L823.105 1479.7L479.833 1508.56L831.867 1512.56C829.815 1543.28 830.16 1574.11 833.024 1604.89L499.935 1696.02L473.794 1702.23L480.994 1701.2L260.741 1761.45L845.347 1680.98C846.788 1687.19 848.337 1693.38 849.994 1699.57C854.415 1716.07 859.537 1732.23 865.331 1748.06L522.88 1885.42L877.863 1779.37C881.178 1786.99 884.654 1794.53 888.286 1801.97L398.635 2062.42L926.576 1868.75C926.992 1869.38 927.41 1870 927.828 1870.63L624.945 2050.12L947.571 1898.35C969.319 1927.12 993.734 1954.08 1020.52 1979.1L970.741 2024.42L775.53 2189.14L832.068 2150.7L657.875 2309.31L1082.17 2030.25C1103.45 2045.94 1125.82 2060.61 1149.16 2074.21L968.052 2296.4L1179.77 2091.16C1196.19 2099.78 1213.04 2107.89 1230.28 2115.5L1015.43 2480.19L1301.62 2155.41L1194.1 2367.21L1340.48 2155.5C1388.86 2169.57 1439.43 2180.01 1491.61 2186.58L1443.79 2398.48L1483.89 2297.56L1439.52 2559.87L1593.15 2194.35C1626.65 2195.3 1660.63 2194.7 1694.96 2192.49L1706.21 2388.83L1729.69 2189.71C1753.72 2187.42 1777.89 2184.34 1802.17 2180.45L1892.47 2541.27L1896.12 2161.42C1898.71 2160.78 1901.3 2160.14 1903.88 2159.48L1969.9 2338.7L1937.46 2150.49C1988.86 2135.91 2038.26 2118.16 2085.37 2097.63L2334.04 2426.04L2173.76 2054.43C2210.91 2034.2 2246.29 2012.16 2279.74 1988.53L2455.4 2127.41L2308.04 1967.82C2311.69 1965.05 2315.32 1962.26 2318.92 1959.45L2724.98 2224.42L2392.88 1895.74C2403.34 1885.78 2413.51 1875.64 2423.39 1865.34L2656.01 1975.49L2447.24 1839.48C2461.83 1823.04 2475.67 1806.23 2488.75 1789.09L3030.56 1954.34L2626.64 1753.46L2816.37 1801.14L2548.44 1699.28C2566.25 1668.14 2581.63 1636.23 2594.42 1603.77L3223.63 1639.78L2621.71 1518.43C2627.6 1494.51 2632.08 1470.4 2635.09 1446.18L2990.37 1416.31L2645.39 1412.38L3287.03 1308.69L2637.84 1327.59C2637.33 1321.15 2636.71 1314.72 2635.98 1308.29L2996.41 1222.64L2631.17 1274.9C2628.28 1258.3 2624.63 1241.74 2620.21 1225.24C2620.21 1225.23 2620.2 1225.22 2620.2 1225.21L3215.14 990.498L2832.16 1085.64L2947.32 1039.45L2597.77 1143.87L2592.25 1145.24C2578.36 1113.34 2561.66 1082.96 2542.4 1054.22L2845.25 874.744L2653.98 964.728L3014.33 713.473L2482.93 979.082C2471.74 966.994 2460.03 955.293 2447.84 943.992L2694.67 735.725L2421.93 921.174C2409.15 910.485 2395.91 900.199 2382.23 890.327L2702.45 502.23L2378.41 780.276L2502.15 628.467L2290.47 833.669C2250.47 812.671 2207.94 794.643 2163.33 779.789L2276.1 557.657L2195.31 674.504L2307.21 375.538L2066.03 753.166C2037.48 746.963 2008.3 741.97 1978.6 738.232L2026.41 526.39L1943.74 734.446C1921.93 732.448 1899.86 731.119 1877.58 730.476Z" fill="#A3B7BC"/>
<path d="M1863.74 344.656L1867.32 344.527L1860.23 343.906L1863.74 344.656ZM1877.58 730.476L1873.99 730.605L1874.11 733.964L1877.47 734.061L1877.58 730.476ZM1780.9 731.97L1781.11 735.55L1783.84 735.388L1784.41 732.72L1780.9 731.97ZM1775.24 732.32L1771.66 732.525L1771.87 736.13L1775.47 735.898L1775.24 732.32ZM1763.99 536.033L1767.57 535.828L1760.43 535.613L1763.99 536.033ZM1740.51 735.095L1740.85 738.665L1743.73 738.39L1744.07 735.515L1740.51 735.095ZM1581.03 761.709L1577.8 763.275L1579.06 765.866L1581.86 765.197L1581.03 761.709ZM1514.43 624.524L1511.07 625.763L1511.13 625.93L1511.21 626.09L1514.43 624.524ZM1500.3 586.163L1503.67 584.924L1496.77 586.772L1500.3 586.163ZM1502.78 600.51L1499.55 602.076L1506.31 599.901L1502.78 600.51ZM1411.43 412.326L1414.65 410.76L1407.91 413.035L1411.43 412.326ZM1487.3 788.196L1488.41 791.604L1491.44 790.612L1490.81 787.487L1487.3 788.196ZM1366.75 835.248L1363.87 837.393L1365.6 839.713L1368.24 838.51L1366.75 835.248ZM1246.88 674.591L1249.75 672.447L1243.68 676.204L1246.88 674.591ZM1335.28 850.21L1336.87 853.424L1340.11 851.823L1338.49 848.598L1335.28 850.21ZM1308.38 863.973L1305.96 866.616L1307.82 868.325L1310.06 867.143L1308.38 863.973ZM990.471 572.536L992.894 569.892L987.524 574.578L990.471 572.536ZM1225.99 912.254L1227.94 915.265L1231.05 913.254L1228.94 910.211L1225.99 912.254ZM1190.42 936.302L1188.2 939.115L1190.3 940.777L1192.49 939.231L1190.42 936.302ZM1014.8 797.452L1017.02 794.639L1012.16 799.884L1014.8 797.452ZM1162.13 957.011L1164.29 959.868L1167.44 957.481L1164.76 954.579L1162.13 957.011ZM1089.15 1017.99L1087.65 1021.25L1089.82 1022.24L1091.58 1020.63L1089.15 1017.99ZM638.275 811.05L639.771 807.791L636.213 813.984L638.275 811.05ZM878.088 979.632L876.554 982.873L880.15 976.699L878.088 979.632ZM814.191 949.375L815.725 946.134L812.233 952.379L814.191 949.375ZM1022.92 1085.37L1025.61 1087.75L1028.37 1084.64L1024.88 1082.36L1022.92 1085.37ZM939.769 1195.59L938.895 1199.07L941.413 1199.7L942.8 1197.51L939.769 1195.59ZM653.834 1123.72L654.708 1120.24L652.56 1127.07L653.834 1123.72ZM797.737 1178.43L797.121 1181.96L799.011 1175.08L797.737 1178.43ZM386.132 1106.68L386.748 1103.14L384.989 1110.08L386.132 1106.68ZM894.545 1277.7L897.787 1279.23L899.509 1275.59L895.688 1274.3L894.545 1277.7ZM869.675 1337.1L869.411 1340.68L872.112 1340.88L873.042 1338.34L869.675 1337.1ZM540.734 1312.87L540.997 1309.29L540.102 1316.4L540.734 1312.87ZM858.64 1369.82L862.066 1370.88L863.263 1367.01L859.273 1366.3L858.64 1369.82ZM849.664 1401.7L849.854 1405.29L852.489 1405.15L853.14 1402.59L849.664 1401.7ZM256.447 1433.15L256.257 1429.57L256.153 1436.72L256.447 1433.15ZM823.105 1479.7L823.405 1483.27L823.398 1476.12L823.105 1479.7ZM479.833 1508.56L479.533 1504.98L479.793 1512.14L479.833 1508.56ZM831.867 1512.56L835.445 1512.8L835.697 1509.02L831.908 1508.98L831.867 1512.56ZM833.024 1604.89L833.971 1608.35L836.873 1607.56L836.595 1604.56L833.024 1604.89ZM499.935 1696.02L500.764 1699.5L500.823 1699.49L500.881 1699.47L499.935 1696.02ZM473.794 1702.23L472.965 1698.74L474.302 1705.78L473.794 1702.23ZM480.994 1701.2L481.941 1704.66L480.486 1697.65L480.994 1701.2ZM260.741 1761.45L259.795 1757.99L261.23 1765L260.741 1761.45ZM845.347 1680.98L848.839 1680.17L848.099 1676.99L844.858 1677.43L845.347 1680.98ZM865.331 1748.06L866.665 1751.38L869.894 1750.09L868.698 1746.82L865.331 1748.06ZM522.88 1885.42L521.545 1882.09L523.906 1888.85L522.88 1885.42ZM877.863 1779.37L881.151 1777.94L879.883 1775.03L876.837 1775.94L877.863 1779.37ZM888.286 1801.97L889.97 1805.14L893.027 1803.51L891.509 1800.4L888.286 1801.97ZM398.635 2062.42L396.951 2059.26L399.87 2065.79L398.635 2062.42ZM926.576 1868.75L929.562 1866.77L927.996 1864.41L925.341 1865.38L926.576 1868.75ZM927.828 1870.63L929.656 1873.71L932.917 1871.78L930.807 1868.63L927.828 1870.63ZM624.945 2050.12L623.117 2047.04L626.471 2053.37L624.945 2050.12ZM947.571 1898.35L950.432 1896.18L948.678 1893.86L946.045 1895.1L947.571 1898.35ZM1020.52 1979.1L1022.93 1981.75L1025.81 1979.13L1022.96 1976.48L1020.52 1979.1ZM970.741 2024.42L973.053 2027.17L973.105 2027.12L973.155 2027.08L970.741 2024.42ZM775.53 2189.14L773.217 2186.4L777.546 2192.11L775.53 2189.14ZM832.068 2150.7L834.482 2153.35L830.052 2147.73L832.068 2150.7ZM657.875 2309.31L655.46 2306.66L659.845 2312.31L657.875 2309.31ZM1082.17 2030.25L1084.3 2027.36L1082.29 2025.88L1080.2 2027.25L1082.17 2030.25ZM1149.16 2074.21L1151.94 2076.48L1154.59 2073.23L1150.96 2071.11L1149.16 2074.21ZM968.052 2296.4L965.273 2294.13L970.548 2298.97L968.052 2296.4ZM1179.77 2091.16L1181.44 2087.98L1179.14 2086.78L1177.28 2088.58L1179.77 2091.16ZM1230.28 2115.5L1233.37 2117.32L1235.41 2113.84L1231.73 2112.22L1230.28 2115.5ZM1015.43 2480.19L1012.34 2478.37L1018.12 2482.56L1015.43 2480.19ZM1301.62 2155.41L1304.82 2157.03L1298.93 2153.04L1301.62 2155.41ZM1194.1 2367.21L1190.9 2365.59L1197.05 2369.25L1194.1 2367.21ZM1340.48 2155.5L1341.48 2152.05L1339 2151.33L1337.53 2153.46L1340.48 2155.5ZM1491.61 2186.58L1495.11 2187.37L1495.98 2183.51L1492.06 2183.02L1491.61 2186.58ZM1443.79 2398.48L1440.29 2397.69L1447.12 2399.8L1443.79 2398.48ZM1483.89 2297.56L1487.42 2298.16L1480.56 2296.24L1483.89 2297.56ZM1439.52 2559.87L1435.98 2559.27L1442.82 2561.26L1439.52 2559.87ZM1593.15 2194.35L1593.25 2190.76L1590.79 2190.69L1589.84 2192.96L1593.15 2194.35ZM1694.96 2192.49L1698.54 2192.28L1698.33 2188.68L1694.73 2188.91L1694.96 2192.49ZM1706.21 2388.83L1702.63 2389.04L1709.77 2389.25L1706.21 2388.83ZM1729.69 2189.71L1729.35 2186.14L1726.47 2186.42L1726.13 2189.29L1729.69 2189.71ZM1802.17 2180.45L1805.64 2179.58L1804.85 2176.39L1801.6 2176.91L1802.17 2180.45ZM1892.47 2541.27L1888.99 2542.14L1896.06 2541.3L1892.47 2541.27ZM1896.12 2161.42L1895.27 2157.93L1892.56 2158.6L1892.54 2161.38L1896.12 2161.42ZM1903.88 2159.48L1907.25 2158.25L1906.13 2155.22L1903 2156.01L1903.88 2159.48ZM1969.9 2338.7L1966.53 2339.94L1973.43 2338.09L1969.9 2338.7ZM1937.46 2150.49L1936.48 2147.04L1933.37 2147.92L1933.92 2151.1L1937.46 2150.49ZM2085.37 2097.63L2088.23 2095.46L2086.53 2093.21L2083.94 2094.34L2085.37 2097.63ZM2334.04 2426.04L2331.18 2428.2L2337.33 2424.62L2334.04 2426.04ZM2173.76 2054.43L2172.04 2051.28L2169.17 2052.84L2170.47 2055.85L2173.76 2054.43ZM2279.74 1988.53L2281.96 1985.72L2279.86 1984.06L2277.67 1985.6L2279.74 1988.53ZM2455.4 2127.41L2453.18 2130.23L2458.04 2124.98L2455.4 2127.41ZM2308.04 1967.82L2305.87 1964.96L2302.73 1967.35L2305.41 1970.25L2308.04 1967.82ZM2318.92 1959.45L2320.88 1956.45L2318.74 1955.05L2316.72 1956.63L2318.92 1959.45ZM2724.98 2224.42L2723.02 2227.43L2727.5 2221.88L2724.98 2224.42ZM2392.88 1895.74L2390.41 1893.14L2387.74 1895.69L2390.36 1898.29L2392.88 1895.74ZM2423.39 1865.34L2424.92 1862.1L2422.59 1860.99L2420.8 1862.86L2423.39 1865.34ZM2656.01 1975.49L2654.47 1978.73L2657.97 1972.49L2656.01 1975.49ZM2447.24 1839.48L2444.56 1837.1L2441.8 1840.21L2445.29 1842.48L2447.24 1839.48ZM2488.75 1789.09L2489.8 1785.66L2487.41 1784.93L2485.9 1786.91L2488.75 1789.09ZM3030.56 1954.34L3029.51 1957.77L3032.16 1951.13L3030.56 1954.34ZM2626.64 1753.46L2627.51 1749.98L2625.04 1756.67L2626.64 1753.46ZM2816.37 1801.14L2815.49 1804.62L2817.64 1797.79L2816.37 1801.14ZM2548.44 1699.28L2545.33 1697.5L2543.25 1701.14L2547.17 1702.63L2548.44 1699.28ZM2594.42 1603.77L2594.63 1600.19L2592.04 1600.05L2591.09 1602.46L2594.42 1603.77ZM3223.63 1639.78L3223.43 1643.36L3224.34 1636.26L3223.63 1639.78ZM2621.71 1518.43L2618.23 1517.57L2617.33 1521.21L2621 1521.95L2621.71 1518.43ZM2635.09 1446.18L2634.79 1442.61L2631.89 1442.85L2631.53 1445.74L2635.09 1446.18ZM2990.37 1416.31L2990.67 1419.88L2990.41 1412.72L2990.37 1416.31ZM2645.39 1412.38L2644.82 1408.84L2645.35 1415.97L2645.39 1412.38ZM3287.03 1308.69L3287.61 1312.23L3286.93 1305.11L3287.03 1308.69ZM2637.84 1327.59L2634.27 1327.87L2634.54 1331.27L2637.94 1331.17L2637.84 1327.59ZM2635.98 1308.29L2635.15 1304.8L2632.05 1305.54L2632.41 1308.69L2635.98 1308.29ZM2996.41 1222.64L2997.23 1226.13L2995.9 1219.09L2996.41 1222.64ZM2631.17 1274.9L2627.64 1275.52L2628.24 1278.94L2631.68 1278.45L2631.17 1274.9ZM2620.2 1225.21L2618.88 1221.87L2615.91 1223.05L2616.74 1226.14L2620.2 1225.21ZM3215.14 990.498L3216.45 993.833L3214.27 987.018L3215.14 990.498ZM2832.16 1085.64L2830.82 1082.31L2833.02 1089.12L2832.16 1085.64ZM2947.32 1039.45L2948.65 1042.78L2946.29 1036.01L2947.32 1039.45ZM2597.77 1143.87L2598.63 1147.35L2598.71 1147.33L2598.79 1147.31L2597.77 1143.87ZM2592.25 1145.24L2588.97 1146.67L2590.18 1149.45L2593.12 1148.72L2592.25 1145.24ZM2542.4 1054.22L2540.57 1051.14L2537.31 1053.07L2539.42 1056.22L2542.4 1054.22ZM2845.25 874.744L2847.08 877.829L2843.73 871.5L2845.25 874.744ZM2653.98 964.728L2651.93 961.787L2655.5 967.973L2653.98 964.728ZM3014.33 713.473L3016.38 716.414L3012.73 710.266L3014.33 713.473ZM2482.93 979.082L2480.3 981.518L2482.13 983.492L2484.53 982.289L2482.93 979.082ZM2447.84 943.992L2445.53 941.252L2442.43 943.866L2445.41 946.622L2447.84 943.992ZM2694.67 735.725L2696.98 738.466L2692.65 732.76L2694.67 735.725ZM2421.93 921.174L2419.63 923.924L2421.71 925.662L2423.94 924.139L2421.93 921.174ZM2382.23 890.327L2379.47 888.045L2377.03 890.996L2380.13 893.235L2382.23 890.327ZM2702.45 502.23L2705.22 504.512L2700.11 499.509L2702.45 502.23ZM2378.41 780.276L2375.63 778.011L2380.74 782.998L2378.41 780.276ZM2502.15 628.467L2504.93 630.733L2499.65 625.893L2502.15 628.467ZM2290.47 833.669L2288.8 836.844L2291.1 838.051L2292.96 836.244L2290.47 833.669ZM2163.33 779.789L2160.14 778.166L2158.25 781.876L2162.2 783.191L2163.33 779.789ZM2276.1 557.657L2279.3 559.28L2273.15 555.618L2276.1 557.657ZM2195.31 674.504L2191.95 673.247L2198.26 676.544L2195.31 674.504ZM2307.21 375.538L2310.57 376.795L2304.19 373.608L2307.21 375.538ZM2066.03 753.166L2065.27 756.67L2067.71 757.2L2069.05 755.096L2066.03 753.166ZM1978.6 738.232L1975.1 737.443L1974.23 741.296L1978.15 741.79L1978.6 738.232ZM2026.41 526.39L2029.91 527.18L2023.08 525.066L2026.41 526.39ZM1943.74 734.446L1943.41 738.016L1946.08 738.261L1947.07 735.77L1943.74 734.446ZM1860.15 344.784L1873.99 730.605L1881.16 730.348L1867.32 344.527L1860.15 344.784ZM1784.41 732.72L1867.24 345.405L1860.23 343.906L1777.39 731.22L1784.41 732.72ZM1780.69 728.391C1778.8 728.503 1776.9 728.62 1775.01 728.742L1775.47 735.898C1777.35 735.777 1779.23 735.661 1781.11 735.55L1780.69 728.391ZM1778.82 732.115L1767.57 535.828L1760.41 536.238L1771.66 732.525L1778.82 732.115ZM1760.43 535.613L1736.95 734.675L1744.07 735.515L1767.55 536.453L1760.43 535.613ZM1740.17 731.526C1687.38 736.565 1633.89 745.395 1580.19 758.222L1581.86 765.197C1635.23 752.447 1688.39 743.672 1740.85 738.665L1740.17 731.526ZM1511.21 626.09L1577.8 763.275L1584.25 760.143L1517.66 622.958L1511.21 626.09ZM1517.8 623.285L1503.67 584.924L1496.94 587.403L1511.07 625.763L1517.8 623.285ZM1496.77 586.772L1499.24 601.12L1506.31 599.901L1503.84 585.554L1496.77 586.772ZM1408.2 413.891L1499.55 602.076L1506 598.945L1414.65 410.76L1408.2 413.891ZM1490.81 787.487L1414.94 411.616L1407.91 413.035L1483.78 788.906L1490.81 787.487ZM1486.18 784.788C1444.37 798.48 1404.01 814.286 1365.26 831.987L1368.24 838.51C1406.75 820.92 1446.86 805.212 1488.41 791.604L1486.18 784.788ZM1369.62 833.104L1249.75 672.447L1244.01 676.736L1363.87 837.393L1369.62 833.104ZM1243.68 676.204L1332.08 851.822L1338.49 848.598L1250.08 672.979L1243.68 676.204ZM1333.69 846.996C1324.6 851.494 1315.6 856.097 1306.7 860.804L1310.06 867.143C1318.9 862.467 1327.84 857.893 1336.87 853.424L1333.69 846.996ZM988.048 575.179L1305.96 866.616L1310.8 861.33L992.894 569.892L988.048 575.179ZM1228.94 910.211L993.418 570.493L987.524 574.578L1223.04 914.297L1228.94 910.211ZM1224.04 909.244C1211.92 917.089 1200.02 925.135 1188.35 933.373L1192.49 939.231C1204.08 931.049 1215.89 923.057 1227.94 915.265L1224.04 909.244ZM1192.65 933.489L1017.02 794.639L1012.57 800.264L1188.2 939.115L1192.65 933.489ZM1012.16 799.884L1159.49 959.444L1164.76 954.579L1017.43 795.019L1012.16 799.884ZM1159.96 954.154C1134.27 973.635 1109.83 994.072 1086.72 1015.35L1091.58 1020.63C1114.52 999.505 1138.78 979.214 1164.29 959.868L1159.96 954.154ZM636.779 814.309L1087.65 1021.25L1090.64 1014.73L639.771 807.791L636.779 814.309ZM880.15 976.699L640.337 808.117L636.213 813.984L876.026 982.565L880.15 976.699ZM879.623 976.391L815.725 946.134L812.656 952.616L876.554 982.873L879.623 976.391ZM812.233 952.379L1020.97 1088.37L1024.88 1082.36L816.148 946.371L812.233 952.379ZM1020.24 1082.99C988.92 1118.29 960.979 1155.33 936.738 1193.68L942.8 1197.51C966.826 1159.5 994.531 1122.77 1025.61 1087.75L1020.24 1082.99ZM940.643 1192.12L654.708 1120.24L652.96 1127.2L938.895 1199.07L940.643 1192.12ZM652.56 1127.07L796.463 1181.78L799.011 1175.08L655.108 1120.37L652.56 1127.07ZM385.516 1110.21L797.121 1181.96L798.353 1174.9L386.748 1103.14L385.516 1110.21ZM895.688 1274.3L387.275 1103.28L384.989 1110.08L893.402 1281.1L895.688 1274.3ZM891.303 1276.17C882.009 1295.84 873.664 1315.76 866.307 1335.87L873.042 1338.34C880.323 1318.43 888.584 1298.71 897.787 1279.23L891.303 1276.17ZM869.938 1333.53L540.997 1309.29L540.47 1316.45L869.411 1340.68L869.938 1333.53ZM540.102 1316.4L858.008 1373.35L859.273 1366.3L541.366 1309.34L540.102 1316.4ZM855.214 1368.77C851.928 1379.41 848.918 1390.09 846.189 1400.82L853.14 1402.59C855.838 1391.98 858.815 1381.41 862.066 1370.88L855.214 1368.77ZM256.637 1436.73L849.854 1405.29L849.475 1398.12L256.257 1429.57L256.637 1436.73ZM823.398 1476.12L256.74 1429.57L256.153 1436.72L822.811 1483.27L823.398 1476.12ZM822.804 1476.12L479.533 1504.98L480.134 1512.13L823.405 1483.27L822.804 1476.12ZM479.793 1512.14L831.826 1516.15L831.908 1508.98L479.874 1504.97L479.793 1512.14ZM828.289 1512.32C826.225 1543.23 826.572 1574.25 829.454 1605.22L836.595 1604.56C833.749 1573.97 833.405 1543.33 835.445 1512.8L828.289 1512.32ZM500.881 1699.47L833.971 1608.35L832.078 1601.43L498.989 1692.56L500.881 1699.47ZM499.106 1692.53L472.965 1698.74L474.623 1705.72L500.764 1699.5L499.106 1692.53ZM474.302 1705.78L481.502 1704.75L480.486 1697.65L473.286 1698.68L474.302 1705.78ZM261.688 1764.91L481.941 1704.66L480.048 1697.74L259.795 1757.99L261.688 1764.91ZM844.858 1677.43L260.252 1757.9L261.23 1765L845.836 1684.54L844.858 1677.43ZM841.854 1681.8C843.304 1688.04 844.863 1694.27 846.531 1700.5L853.458 1698.64C851.811 1692.49 850.272 1686.34 848.839 1680.17L841.854 1681.8ZM846.531 1700.5C850.979 1717.1 856.133 1733.37 861.963 1749.29L868.698 1746.82C862.941 1731.1 857.851 1715.03 853.458 1698.64L846.531 1700.5ZM863.996 1744.73L521.545 1882.09L524.214 1888.75L866.665 1751.38L863.996 1744.73ZM523.906 1888.85L878.89 1782.81L876.837 1775.94L521.853 1881.98L523.906 1888.85ZM874.575 1780.8C877.911 1788.47 881.408 1796.05 885.064 1803.54L891.509 1800.4C887.899 1793 884.445 1785.52 881.151 1777.94L874.575 1780.8ZM400.319 2065.59L889.97 1805.14L886.602 1798.81L396.951 2059.26L400.319 2065.59ZM925.341 1865.38L397.4 2059.06L399.87 2065.79L927.811 1872.12L925.341 1865.38ZM923.59 1870.73C924.008 1871.37 924.428 1871.99 924.85 1872.62L930.807 1868.63C930.391 1868.01 929.976 1867.39 929.562 1866.77L923.59 1870.73ZM926 1867.54L623.117 2047.04L626.773 2053.21L929.656 1873.71L926 1867.54ZM626.471 2053.37L949.098 1901.59L946.045 1895.1L623.419 2046.88L626.471 2053.37ZM944.711 1900.51C966.588 1929.45 991.141 1956.56 1018.07 1981.72L1022.96 1976.48C996.326 1951.59 972.051 1924.79 950.432 1896.18L944.711 1900.51ZM973.155 2027.08L1022.93 1981.75L1018.1 1976.45L968.327 2021.77L973.155 2027.08ZM968.429 2021.68L773.217 2186.4L777.842 2191.88L973.053 2027.17L968.429 2021.68ZM777.546 2192.11L834.084 2153.66L830.052 2147.73L773.513 2186.18L777.546 2192.11ZM660.289 2311.97L834.482 2153.35L829.654 2148.05L655.46 2306.66L660.289 2311.97ZM1080.2 2027.25L655.904 2306.32L659.845 2312.31L1084.14 2033.24L1080.2 2027.25ZM1080.04 2033.13C1101.43 2048.9 1123.9 2063.64 1147.35 2077.31L1150.96 2071.11C1127.73 2057.57 1105.47 2042.97 1084.3 2027.36L1080.04 2033.13ZM1146.38 2071.95L965.273 2294.13L970.831 2298.66L1151.94 2076.48L1146.38 2071.95ZM970.548 2298.97L1182.27 2093.73L1177.28 2088.58L965.556 2293.82L970.548 2298.97ZM1178.11 2094.33C1194.6 2102.99 1211.52 2111.14 1228.83 2118.78L1231.73 2112.22C1214.56 2104.65 1197.78 2096.56 1181.44 2087.98L1178.11 2094.33ZM1018.52 2482.01L1233.37 2117.32L1227.19 2113.68L1012.34 2478.37L1018.52 2482.01ZM1298.93 2153.04L1012.74 2477.82L1018.12 2482.56L1304.31 2157.78L1298.93 2153.04ZM1298.42 2153.79L1190.9 2365.59L1197.3 2368.83L1304.82 2157.03L1298.42 2153.79ZM1197.05 2369.25L1343.43 2157.54L1337.53 2153.46L1191.15 2365.17L1197.05 2369.25ZM1339.48 2158.94C1388.05 2173.06 1438.8 2183.54 1491.17 2190.13L1492.06 2183.02C1440.06 2176.47 1389.68 2166.07 1341.48 2152.05L1339.48 2158.94ZM1488.12 2185.79L1440.29 2397.69L1447.29 2399.26L1495.11 2187.37L1488.12 2185.79ZM1447.12 2399.8L1487.22 2298.88L1480.56 2296.24L1440.46 2397.15L1447.12 2399.8ZM1443.05 2560.46L1487.42 2298.16L1480.35 2296.96L1435.98 2559.27L1443.05 2560.46ZM1589.84 2192.96L1436.21 2558.48L1442.82 2561.26L1596.45 2195.73L1589.84 2192.96ZM1593.05 2197.93C1626.66 2198.88 1660.75 2198.28 1695.19 2196.07L1694.73 2188.91C1660.51 2191.11 1626.64 2191.71 1593.25 2190.76L1593.05 2197.93ZM1691.38 2192.69L1702.63 2389.04L1709.79 2388.63L1698.54 2192.28L1691.38 2192.69ZM1709.77 2389.25L1733.26 2190.13L1726.13 2189.29L1702.65 2388.41L1709.77 2389.25ZM1730.04 2193.28C1754.14 2190.98 1778.39 2187.89 1802.73 2183.99L1801.6 2176.91C1777.4 2180.78 1753.31 2183.86 1729.35 2186.14L1730.04 2193.28ZM1895.95 2540.39L1805.64 2179.58L1798.69 2181.32L1888.99 2542.14L1895.95 2540.39ZM1892.54 2161.38L1888.89 2541.23L1896.06 2541.3L1899.71 2161.45L1892.54 2161.38ZM1896.98 2164.9C1899.57 2164.26 1902.17 2163.62 1904.76 2162.96L1903 2156.01C1900.43 2156.66 1897.85 2157.3 1895.27 2157.93L1896.98 2164.9ZM1900.52 2160.72L1966.53 2339.94L1973.26 2337.46L1907.25 2158.25L1900.52 2160.72ZM1973.43 2338.09L1940.99 2149.88L1933.92 2151.1L1966.36 2339.31L1973.43 2338.09ZM1938.43 2153.94C1990 2139.32 2039.55 2121.51 2086.81 2100.92L2083.94 2094.34C2036.98 2114.81 1987.73 2132.5 1936.48 2147.04L1938.43 2153.94ZM2336.89 2423.87L2088.23 2095.46L2082.52 2099.79L2331.18 2428.2L2336.89 2423.87ZM2170.47 2055.85L2330.74 2427.46L2337.33 2424.62L2177.05 2053.01L2170.47 2055.85ZM2175.47 2057.58C2212.74 2037.28 2248.24 2015.16 2281.81 1991.46L2277.67 1985.6C2244.34 2009.15 2209.07 2031.11 2172.04 2051.28L2175.47 2057.58ZM2277.51 1991.35L2453.18 2130.23L2457.63 2124.6L2281.96 1985.72L2277.51 1991.35ZM2458.04 2124.98L2310.68 1965.39L2305.41 1970.25L2452.77 2129.85L2458.04 2124.98ZM2310.21 1970.68C2313.87 1967.9 2317.51 1965.1 2321.13 1962.28L2316.72 1956.63C2313.13 1959.42 2309.51 1962.2 2305.87 1964.96L2310.21 1970.68ZM2726.94 2221.42L2320.88 1956.45L2316.97 1962.46L2723.02 2227.43L2726.94 2221.42ZM2390.36 1898.29L2722.46 2226.97L2727.5 2221.88L2395.41 1893.19L2390.36 1898.29ZM2395.36 1898.34C2405.86 1888.34 2416.07 1878.16 2425.98 1867.82L2420.8 1862.86C2410.96 1873.12 2400.83 1883.22 2390.41 1893.14L2395.36 1898.34ZM2421.85 1868.58L2654.47 1978.73L2657.54 1972.25L2424.92 1862.1L2421.85 1868.58ZM2657.97 1972.49L2449.2 1836.47L2445.29 1842.48L2654.05 1978.5L2657.97 1972.49ZM2449.93 1841.86C2464.57 1825.36 2478.47 1808.48 2491.6 1791.26L2485.9 1786.91C2472.88 1803.98 2459.09 1820.73 2444.56 1837.1L2449.93 1841.86ZM3031.61 1950.91L2489.8 1785.66L2487.71 1792.52L3029.51 1957.77L3031.61 1950.91ZM2625.04 1756.67L3028.96 1957.55L3032.16 1951.13L2628.24 1750.24L2625.04 1756.67ZM2625.76 1756.93L2815.49 1804.62L2817.24 1797.67L2627.51 1749.98L2625.76 1756.93ZM2817.64 1797.79L2549.72 1695.93L2547.17 1702.63L2815.09 1804.5L2817.64 1797.79ZM2551.56 1701.06C2569.45 1669.78 2584.9 1637.71 2597.76 1605.09L2591.09 1602.46C2578.36 1634.75 2563.06 1666.5 2545.33 1697.5L2551.56 1701.06ZM3223.84 1636.2L2594.63 1600.19L2594.22 1607.35L3223.43 1643.36L3223.84 1636.2ZM2621 1521.95L3222.92 1643.29L3224.34 1636.26L2622.42 1514.92L2621 1521.95ZM2625.19 1519.29C2631.12 1495.23 2635.62 1470.98 2638.65 1446.62L2631.53 1445.74C2628.54 1469.81 2624.09 1493.79 2618.23 1517.57L2625.19 1519.29ZM2635.39 1449.75L2990.67 1419.88L2990.07 1412.74L2634.79 1442.61L2635.39 1449.75ZM2990.41 1412.72L2645.43 1408.8L2645.35 1415.97L2990.33 1419.89L2990.41 1412.72ZM3286.46 1305.15L2644.82 1408.84L2645.96 1415.92L3287.61 1312.23L3286.46 1305.15ZM2637.94 1331.17L3287.14 1312.27L3286.93 1305.11L2637.74 1324L2637.94 1331.17ZM2641.41 1327.3C2640.9 1320.83 2640.27 1314.35 2639.54 1307.88L2632.41 1308.69C2633.14 1315.08 2633.76 1321.48 2634.27 1327.87L2641.41 1327.3ZM2636.81 1311.78L2997.23 1226.13L2995.58 1219.15L2635.15 1304.8L2636.81 1311.78ZM2995.9 1219.09L2630.66 1271.35L2631.68 1278.45L2996.91 1226.19L2995.9 1219.09ZM2634.7 1274.29C2631.79 1257.58 2628.12 1240.91 2623.67 1224.31L2616.74 1226.17C2621.14 1242.56 2624.76 1259.02 2627.64 1275.52L2634.7 1274.29ZM2623.67 1224.31C2623.67 1224.31 2623.67 1224.31 2623.67 1224.3C2623.67 1224.3 2623.67 1224.3 2623.67 1224.3C2623.67 1224.3 2623.67 1224.3 2623.67 1224.3C2623.67 1224.3 2623.67 1224.3 2623.67 1224.3C2623.67 1224.3 2623.67 1224.3 2623.67 1224.3C2623.67 1224.3 2623.67 1224.3 2623.67 1224.3C2623.67 1224.3 2623.67 1224.3 2623.67 1224.3C2623.67 1224.3 2623.67 1224.3 2623.67 1224.3C2623.67 1224.3 2623.67 1224.3 2623.67 1224.3C2623.67 1224.3 2623.67 1224.3 2623.67 1224.3C2623.67 1224.3 2623.67 1224.3 2623.67 1224.3C2623.67 1224.3 2623.67 1224.3 2623.67 1224.3C2623.67 1224.3 2623.67 1224.3 2623.67 1224.3C2623.67 1224.3 2623.67 1224.3 2623.67 1224.3C2623.67 1224.3 2623.67 1224.3 2623.67 1224.3C2623.67 1224.3 2623.67 1224.3 2623.67 1224.3C2623.67 1224.3 2623.67 1224.3 2623.67 1224.3C2623.67 1224.3 2623.67 1224.3 2623.67 1224.3C2623.67 1224.3 2623.67 1224.3 2623.67 1224.3C2623.67 1224.3 2623.67 1224.3 2623.67 1224.3C2623.67 1224.3 2623.67 1224.3 2623.67 1224.3C2623.67 1224.3 2623.67 1224.3 2623.67 1224.3C2623.67 1224.3 2623.67 1224.3 2623.67 1224.3C2623.67 1224.3 2623.67 1224.3 2623.67 1224.3C2623.67 1224.3 2623.67 1224.3 2623.67 1224.3C2623.67 1224.3 2623.67 1224.3 2623.67 1224.3C2623.67 1224.3 2623.67 1224.3 2623.67 1224.3C2623.67 1224.3 2623.67 1224.3 2623.67 1224.3C2623.67 1224.3 2623.67 1224.3 2623.67 1224.3C2623.67 1224.3 2623.67 1224.3 2623.67 1224.3C2623.67 1224.3 2623.67 1224.3 2623.67 1224.3C2623.67 1224.3 2623.67 1224.3 2623.67 1224.3C2623.67 1224.3 2623.67 1224.3 2623.67 1224.3C2623.67 1224.3 2623.67 1224.3 2623.67 1224.3C2623.67 1224.3 2623.67 1224.3 2623.67 1224.3C2623.67 1224.29 2623.67 1224.29 2623.66 1224.28L2616.74 1226.14C2616.74 1226.14 2616.74 1226.14 2616.74 1226.14C2616.74 1226.15 2616.74 1226.15 2616.74 1226.15C2616.74 1226.15 2616.74 1226.15 2616.74 1226.15C2616.74 1226.16 2616.74 1226.16 2616.74 1226.17L2623.67 1224.31ZM3213.82 987.162L2618.88 1221.87L2621.52 1228.54L3216.45 993.833L3213.82 987.162ZM2833.02 1089.12L3216 993.978L3214.27 987.018L2831.29 1082.16L2833.02 1089.12ZM2833.49 1088.97L2948.65 1042.78L2945.99 1036.12L2830.82 1082.31L2833.49 1088.97ZM2946.29 1036.01L2596.74 1140.43L2598.79 1147.31L2948.35 1042.88L2946.29 1036.01ZM2593.12 1148.72L2598.63 1147.35L2596.9 1140.39L2591.39 1141.76L2593.12 1148.72ZM2595.54 1143.81C2581.56 1111.7 2564.75 1081.14 2545.38 1052.22L2539.42 1056.22C2558.56 1084.78 2575.16 1114.97 2588.97 1146.67L2595.54 1143.81ZM2544.23 1057.31L2847.08 877.829L2843.43 871.66L2540.57 1051.14L2544.23 1057.31ZM2843.73 871.5L2652.45 961.484L2655.5 967.973L2846.78 877.989L2843.73 871.5ZM3012.28 710.532L2651.93 961.787L2656.03 967.67L3016.38 716.414L3012.28 710.532ZM2484.53 982.289L3015.93 716.68L3012.73 710.266L2481.33 975.874L2484.53 982.289ZM2485.56 976.646C2474.31 964.49 2462.54 952.725 2450.28 941.363L2445.41 946.622C2457.53 957.862 2469.17 969.498 2480.3 981.518L2485.56 976.646ZM2450.16 946.733L2696.98 738.466L2692.36 732.985L2445.53 941.252L2450.16 946.733ZM2692.65 732.76L2419.91 918.209L2423.94 924.139L2696.69 738.691L2692.65 732.76ZM2424.23 918.423C2411.38 907.679 2398.07 897.34 2384.33 887.42L2380.13 893.235C2393.74 903.057 2406.92 913.291 2419.63 923.924L2424.23 918.423ZM2699.68 499.948L2379.47 888.045L2385 892.609L2705.22 504.512L2699.68 499.948ZM2380.74 782.998L2704.78 504.951L2700.11 499.509L2376.07 777.555L2380.74 782.998ZM2381.19 782.542L2504.93 630.733L2499.37 626.202L2375.63 778.011L2381.19 782.542ZM2499.65 625.893L2287.97 831.094L2292.96 836.244L2504.64 631.042L2499.65 625.893ZM2292.13 830.494C2251.96 809.402 2209.25 791.299 2164.47 776.387L2162.2 783.191C2206.63 797.986 2248.99 815.939 2288.8 836.844L2292.13 830.494ZM2166.53 781.412L2279.3 559.28L2272.9 556.034L2160.14 778.166L2166.53 781.412ZM2273.15 555.618L2192.36 672.465L2198.26 676.544L2279.05 559.696L2273.15 555.618ZM2303.85 374.281L2191.95 673.247L2198.67 675.761L2310.57 376.795L2303.85 374.281ZM2069.05 755.096L2310.23 377.468L2304.19 373.608L2063.01 751.236L2069.05 755.096ZM2066.79 749.662C2038.13 743.436 2008.85 738.425 1979.05 734.674L1978.15 741.79C2007.75 745.515 2036.82 750.49 2065.27 756.67L2066.79 749.662ZM1982.1 739.021L2029.91 527.18L2022.91 525.601L1975.1 737.443L1982.1 739.021ZM2023.08 525.066L1940.41 733.122L1947.07 735.77L2029.74 527.714L2023.08 525.066ZM1944.07 730.875C1922.18 728.871 1900.04 727.537 1877.68 726.892L1877.47 734.061C1899.68 734.701 1921.67 736.026 1943.41 738.016L1944.07 730.875Z" fill="black" mask="url(#path-1-inside-1_250_1370)"/>
<path d="M2155.11 1261.75C2168.85 1313.02 2126.88 1369.54 2060.2 1387.41C1993.52 1405.27 1928.91 1377.32 1915.17 1326.04C1901.43 1274.76 1943.41 1218.24 2010.08 1200.38C2076.76 1182.51 2141.37 1210.47 2155.11 1261.75Z" fill="white" stroke="black" stroke-width="3.5857"/>
<path d="M2088.72 1279.53C2094.78 1302.12 2076.29 1327.41 2046.27 1335.46C2016.26 1343.5 1987.6 1330.83 1981.55 1308.25C1975.5 1285.67 1993.99 1260.37 2024 1252.33C2054.01 1244.29 2082.67 1256.95 2088.72 1279.53Z" fill="#A3B7BC" stroke="black" stroke-width="3.5857"/>
<path d="M1500.13 1437.25C1513.87 1488.53 1471.9 1545.05 1405.22 1562.91C1338.54 1580.78 1273.93 1552.82 1260.19 1501.54C1246.45 1450.27 1288.43 1393.75 1355.11 1375.88C1421.78 1358.02 1486.39 1385.97 1500.13 1437.25Z" fill="white" stroke="black" stroke-width="3.5857"/>
<path d="M1433.75 1455.04C1439.8 1477.62 1421.31 1502.92 1391.3 1510.96C1361.28 1519 1332.62 1506.34 1326.57 1483.76C1320.52 1461.17 1339.01 1435.88 1369.02 1427.83C1399.04 1419.79 1427.7 1432.46 1433.75 1455.04Z" fill="#A3B7BC" stroke="black" stroke-width="3.5857"/>
</svg>
