<svg width="5104" height="5104" viewBox="0 0 5104 5104" fill="none" xmlns="http://www.w3.org/2000/svg">
<circle cx="2551.65" cy="2551.65" r="2551.65" fill="#A3B7BC"/>
<path d="M1045.89 918.421L2672.77 345.138C2721.32 305.886 2993.19 278.203 3692.28 481.486C3933.99 550.693 4417.41 771.536 4417.41 1101.25C4417.41 1430.97 4361.63 3027.69 4333.74 3784.84L2815.32 4826.04L1299.99 4429.39L708.114 3192.96V1451.42L1045.89 918.421Z" fill="#E8E7E5" stroke="black" stroke-width="8.08506"/>
<path d="M1030.65 1533.4L965.574 1356.77L1445.89 1133.65L2397.23 1304.09L2496.39 1703.84L2347.65 1737.92L2242.29 1418.75L1504.77 1304.09L1030.65 1533.4Z" fill="#A3B7BC"/>
<path d="M2741.2 1437.34L2815.57 1589.18L4160.47 1232.82L4135.67 1053.08L2741.2 1437.34Z" fill="#A3B7BC"/>
<path d="M1368.42 1920.76L1532.66 1765.81L1761.97 1846.38L1854.94 1824.69V2007.52L2056.36 2218.24L1941.7 2351.49L1672.11 2193.45L1532.66 2301.91L1427.3 2258.53V2007.52L1368.42 1920.76Z" fill="#A3B7BC"/>
<path d="M2223.7 2385.58H2846.56L2700.92 3318.33H2400.33L2223.7 2385.58Z" fill="#A3B7BC"/>
<path d="M2982.91 2072.6V1939.35H3326.88V1874.27H3410.55V1824.69H3714.23V2091.19H3500.41L3357.87 2174.86L3243.21 2150.07H3165.74V2091.19H3088.27L2982.91 2072.6Z" fill="#A3B7BC"/>
<path d="M1994.38 3885.41L2102.84 3990.77L2304.27 3900.91L2651.34 4027.96L2989.11 3687.09L2700.92 3566.23H2443.71L1994.38 3885.41Z" fill="#A3B7BC"/>
<path d="M3893.97 2385.58L3859.88 1589.18H3652.26V1651.16H3410.55L3227.72 1604.68L3243.21 1765.81L2784.59 1824.69L2846.56 2283.32H2180.31L2260.88 2150.07L2056.36 1874.27L2090.45 1737.92L1408.71 1604.68L1157.7 1982.73L1321.94 2193.45L1297.15 2521.93L1532.66 2605.6L1647.32 2385.58L1913.82 2521.93L2040.87 2404.17L2304.27 3371.01L1613.23 3978.38L2090.45 4235.58L2304.27 4145.71L2673.03 4235.58L3308.29 3646.8L2812.48 3371.01L3020.1 2283.32L3227.72 2258.53L3376.46 2422.77L3596.48 2215.14L3742.12 2385.58M1030.65 1533.4L965.574 1356.77L1445.89 1133.65L2397.23 1304.09L2496.39 1703.84L2347.65 1737.92L2242.29 1418.75L1504.77 1304.09L1030.65 1533.4ZM1368.42 1920.76L1532.66 1765.81L1761.97 1846.38L1854.94 1824.69V2007.52L2056.36 2218.24L1941.7 2351.49L1672.11 2193.45L1532.66 2301.91L1427.3 2258.53V2007.52L1368.42 1920.76ZM2223.7 2385.58H2846.56L2700.92 3318.33H2400.33L2223.7 2385.58ZM1994.38 3885.41L2102.84 3990.77L2304.27 3900.91L2651.34 4027.96L2989.11 3687.09L2700.92 3566.23H2443.71L1994.38 3885.41ZM2982.91 2072.6V1939.35H3326.88V1874.27H3410.55V1824.69H3714.23V2091.19H3500.41L3357.87 2174.86L3243.21 2150.07H3165.74V2091.19H3088.27L2982.91 2072.6ZM2741.2 1437.34L2815.57 1589.18L4160.47 1232.82L4135.67 1053.08L2741.2 1437.34Z" stroke="black" stroke-width="8.08506"/>
</svg>
