<svg width="5104" height="5104" viewBox="0 0 5104 5104" fill="none" xmlns="http://www.w3.org/2000/svg">
<circle cx="2552" cy="2552.03" r="2551.65" fill="#A3B7BC"/>
<path fill-rule="evenodd" clip-rule="evenodd" d="M1864.38 392.026C1660.48 513.474 1208.76 983.359 1033.09 1891.32L800.959 2449.12C650.663 2810.27 650.276 2956.52 649.95 3079.5C649.772 3146.47 649.613 3206.54 625.284 3290.65C584.457 3431.8 768.684 3615.83 959.75 3806.69C1091.66 3938.46 1226.83 4073.48 1293.46 4199.9C1371.08 4347.2 1426.69 4376.21 1488.66 4408.55C1556.93 4444.17 1632.92 4483.82 1754.59 4689.99C1912.9 4958.25 2457.84 4841.13 2973.5 4730.29C3213.97 4678.6 3448.07 4628.29 3633.63 4619.06C4100.41 4595.84 4273.57 3330.42 4301.8 2700.61C4328.99 2379.26 4385.88 1615.96 4395.91 1133.61C4405.95 651.258 3502.92 438.241 3050.16 392.026H1864.38ZM2793.48 1389.48V1154.11C2880.27 1079.95 3102.16 939.374 3295.4 970.327C3488.63 1001.28 3664.51 1133.69 3728.3 1196.03L3577.72 1389.48C3478.38 1348.64 3272.18 1266.96 3242.07 1266.96C3211.95 1266.96 2930.46 1348.64 2793.48 1389.48ZM1463.41 1279.86L1570.07 1073.5C1666.27 1148.74 1876.86 1298.56 1949.64 1295.98C2040.61 1292.75 2316.66 1257.29 2326.07 1228.27C2333.6 1205.05 2337.58 1373.36 2338.62 1460.42C2276.93 1503.41 2127.19 1586.81 2021.79 1576.49C1890.04 1563.59 1544.97 1431.4 1463.41 1279.86ZM2216.28 1924.71L1463.41 1705.46L1341.07 2208.45L2056.29 2846.86L1949.64 3475.59L1400.67 3088.68L1284.6 3404.66C1354.87 3404.66 1552.29 3533.63 1642.22 3598.12C1864.94 3868.95 2279.02 4207.5 2555.07 4265.54C2775.91 4311.97 3203.38 4186.01 3389.5 4117.22C3385.32 3980.73 3372.56 3714.19 3355 3739.98C3337.43 3765.78 2929.42 3767.93 2727.6 3765.78V2866.2L3530.67 2463.17L3505.57 1876.35L2583.3 2002.1L2555.07 2801.72H2191.18L2216.28 1924.71ZM1497.91 2147.19L1544.97 1898.92L2087.66 2037.56L2021.79 2617.93L1497.91 2147.19ZM2758.97 2147.19V2672.75L3389.5 2437.37L3386.37 2056.91L2758.97 2147.19Z" fill="#E8E7E5"/>
<path d="M1033.09 1891.32L1036.23 1892.62L1036.36 1892.3L1036.43 1891.96L1033.09 1891.32ZM1864.38 392.026V388.624H1863.45L1862.64 389.103L1864.38 392.026ZM800.959 2449.12L804.1 2450.42L804.1 2450.42L800.959 2449.12ZM649.95 3079.5L653.352 3079.51L649.95 3079.5ZM625.284 3290.65L622.015 3289.71L625.284 3290.65ZM959.75 3806.69L962.155 3804.28L962.155 3804.28L959.75 3806.69ZM1293.46 4199.9L1296.47 4198.31L1296.47 4198.31L1293.46 4199.9ZM1488.66 4408.55L1487.09 4411.57L1487.09 4411.57L1488.66 4408.55ZM1754.59 4689.99L1757.52 4688.26L1757.52 4688.26L1754.59 4689.99ZM2973.5 4730.29L2974.21 4733.62L2974.21 4733.62L2973.5 4730.29ZM3633.63 4619.06L3633.8 4622.46L3633.8 4622.46L3633.63 4619.06ZM4301.8 2700.61L4298.41 2700.32L4298.41 2700.39L4298.41 2700.46L4301.8 2700.61ZM4395.91 1133.61L4392.51 1133.54L4395.91 1133.61ZM3050.16 392.026L3050.5 388.642L3050.33 388.624H3050.16V392.026ZM2793.48 1154.11L2791.27 1151.52L2790.08 1152.54V1154.11H2793.48ZM2793.48 1389.48H2790.08V1394.05L2794.45 1392.74L2793.48 1389.48ZM3295.4 970.327L3294.86 973.686L3294.86 973.686L3295.4 970.327ZM3728.3 1196.03L3730.98 1198.12L3732.85 1195.72L3730.67 1193.59L3728.3 1196.03ZM3577.72 1389.48L3576.43 1392.63L3578.82 1393.61L3580.41 1391.57L3577.72 1389.48ZM1570.07 1073.5L1572.16 1070.82L1568.93 1068.3L1567.04 1071.94L1570.07 1073.5ZM1463.41 1279.86L1460.39 1278.3L1459.56 1279.89L1460.41 1281.47L1463.41 1279.86ZM1949.64 1295.98L1949.76 1299.38L1949.76 1299.38L1949.64 1295.98ZM2326.07 1228.27L2329.31 1229.32L2329.31 1229.32L2326.07 1228.27ZM2338.62 1460.42L2340.57 1463.21L2342.04 1462.18L2342.02 1460.38L2338.62 1460.42ZM2021.79 1576.49L2021.46 1579.88L2021.46 1579.88L2021.79 1576.49ZM1463.41 1705.46L1464.36 1702.2L1460.94 1701.2L1460.1 1704.66L1463.41 1705.46ZM2216.28 1924.71L2219.68 1924.81L2219.76 1922.18L2217.23 1921.45L2216.28 1924.71ZM1341.07 2208.45L1337.76 2207.65L1337.28 2209.63L1338.8 2210.99L1341.07 2208.45ZM2056.29 2846.86L2059.65 2847.43L2059.96 2845.57L2058.56 2844.32L2056.29 2846.86ZM1949.64 3475.59L1947.68 3478.37L1952.09 3481.48L1952.99 3476.16L1949.64 3475.59ZM1400.67 3088.68L1402.63 3085.9L1399 3083.34L1397.48 3087.51L1400.67 3088.68ZM1284.6 3404.66L1281.41 3403.49L1279.73 3408.06H1284.6V3404.66ZM1642.22 3598.12L1644.84 3595.95L1644.56 3595.61L1644.2 3595.35L1642.22 3598.12ZM2555.07 4265.54L2555.77 4262.21L2555.77 4262.21L2555.07 4265.54ZM3389.5 4117.22L3390.68 4120.42L3392.98 4119.57L3392.9 4117.12L3389.5 4117.22ZM3355 3739.98L3352.19 3738.07L3352.19 3738.07L3355 3739.98ZM2727.6 3765.78H2724.2V3769.14L2727.57 3769.18L2727.6 3765.78ZM2727.6 2866.2L2726.08 2863.16L2724.2 2864.1V2866.2H2727.6ZM3530.67 2463.17L3532.19 2466.21L3534.16 2465.22L3534.07 2463.02L3530.67 2463.17ZM3505.57 1876.35L3508.97 1876.2L3508.81 1872.47L3505.11 1872.98L3505.57 1876.35ZM2583.3 2002.1L2582.84 1998.73L2580.01 1999.11L2579.9 2001.98L2583.3 2002.1ZM2555.07 2801.72V2805.12H2558.36L2558.47 2801.84L2555.07 2801.72ZM2191.18 2801.72L2187.78 2801.62L2187.68 2805.12H2191.18V2801.72ZM1544.97 1898.92L1545.81 1895.62L1542.3 1894.73L1541.63 1898.29L1544.97 1898.92ZM1497.91 2147.19L1494.57 2146.56L1494.22 2148.44L1495.64 2149.72L1497.91 2147.19ZM2087.66 2037.56L2091.04 2037.95L2091.38 2035L2088.51 2034.27L2087.66 2037.56ZM2021.79 2617.93L2019.51 2620.46L2024.42 2624.88L2025.17 2618.32L2021.79 2617.93ZM2758.97 2672.75H2755.57V2677.65L2760.16 2675.93L2758.97 2672.75ZM2758.97 2147.19L2758.49 2143.82L2755.57 2144.24V2147.19H2758.97ZM3389.5 2437.37L3390.69 2440.56L3392.93 2439.73L3392.91 2437.35L3389.5 2437.37ZM3386.37 2056.91L3389.77 2056.88L3389.74 2052.99L3385.88 2053.54L3386.37 2056.91ZM1036.43 1891.96C1211.95 984.781 1663.2 515.816 1866.13 394.949L1862.64 389.103C1657.76 511.133 1205.57 981.938 1029.75 1890.67L1036.43 1891.96ZM804.1 2450.42L1036.23 1892.62L1029.95 1890.01L797.818 2447.81L804.1 2450.42ZM653.352 3079.51C653.515 3018.07 653.695 2951.02 672.555 2854.27C691.424 2757.48 729.012 2630.86 804.1 2450.42L797.818 2447.81C722.611 2628.53 684.857 2755.61 665.876 2852.97C646.888 2950.38 646.711 3017.95 646.548 3079.49L653.352 3079.51ZM628.552 3291.6C653.022 3207 653.174 3146.52 653.352 3079.51L646.548 3079.49C646.37 3146.42 646.204 3206.08 622.015 3289.71L628.552 3291.6ZM962.155 3804.28C866.565 3708.79 772.945 3615.27 708.291 3528C643.491 3440.55 608.63 3360.47 628.552 3291.6L622.015 3289.71C601.111 3361.98 637.95 3444.5 702.823 3532.05C767.842 3619.81 861.869 3713.72 957.346 3809.1L962.155 3804.28ZM1296.47 4198.31C1229.55 4071.34 1093.93 3935.91 962.155 3804.28L957.346 3809.1C1089.4 3941 1224.12 4075.63 1290.45 4201.49L1296.47 4198.31ZM1490.24 4405.53C1459.25 4389.37 1430.24 4374.21 1399.27 4344.86C1368.27 4315.5 1335.17 4271.76 1296.47 4198.31L1290.45 4201.49C1329.37 4275.34 1362.88 4319.76 1394.59 4349.8C1426.32 4379.87 1456.09 4395.39 1487.09 4411.57L1490.24 4405.53ZM1757.52 4688.26C1696.58 4585 1646.98 4523.26 1603.93 4482.83C1560.83 4442.36 1524.42 4423.37 1490.24 4405.53L1487.09 4411.57C1521.17 4429.35 1556.89 4447.99 1599.27 4487.79C1641.7 4527.64 1690.93 4588.81 1751.66 4691.72L1757.52 4688.26ZM2972.78 4726.96C2714.86 4782.4 2450.02 4839.32 2229.89 4848.9C2009.45 4858.51 1835.59 4820.56 1757.52 4688.26L1751.66 4691.72C1831.9 4827.69 2009.67 4865.31 2230.19 4855.7C2451.01 4846.08 2716.47 4789.02 2974.21 4733.62L2972.78 4726.96ZM3633.46 4615.66C3447.56 4624.9 3213.16 4675.3 2972.78 4726.96L2974.21 4733.62C3214.78 4681.91 3448.58 4631.67 3633.8 4622.46L3633.46 4615.66ZM4298.41 2700.46C4284.3 3015.22 4233.97 3488.77 4128.88 3886.44C4076.34 4085.3 4010.15 4264.95 3928.1 4396.27C3846 4527.67 3748.49 4609.94 3633.46 4615.66L3633.8 4622.46C3752.17 4616.57 3851.34 4531.95 3933.87 4399.88C4016.45 4267.72 4082.84 4087.3 4135.46 3888.18C4240.71 3489.88 4291.08 3015.81 4305.2 2700.76L4298.41 2700.46ZM4392.51 1133.54C4382.48 1615.78 4325.6 2378.98 4298.41 2700.32L4305.19 2700.9C4332.38 2379.54 4389.27 1616.15 4399.31 1133.68L4392.51 1133.54ZM3049.81 395.411C3275.98 418.497 3614.57 483.249 3895.26 602.399C4035.61 661.976 4161.26 735.066 4251.16 823.175C4341.02 911.24 4395 1014.14 4392.51 1133.54L4399.31 1133.68C4401.85 1011.9 4346.71 907.296 4255.93 818.315C4165.18 729.377 4038.67 655.883 3897.92 596.135C3616.4 476.634 3277.1 411.771 3050.5 388.642L3049.81 395.411ZM1864.38 395.429H3050.16V388.624H1864.38V395.429ZM2790.08 1154.11V1389.48H2796.88V1154.11H2790.08ZM3295.93 966.968C3198.38 951.341 3093.88 979.029 3003.13 1019.7C2912.33 1060.39 2834.89 1114.25 2791.27 1151.52L2795.69 1156.7C2838.86 1119.81 2915.76 1066.31 3005.91 1025.91C3096.11 985.485 3199.18 958.36 3294.86 973.686L3295.93 966.968ZM3730.67 1193.59C3666.63 1131.01 3490.14 998.076 3295.93 966.968L3294.86 973.686C3487.12 1004.48 3662.39 1136.38 3725.92 1198.46L3730.67 1193.59ZM3580.41 1391.57L3730.98 1198.12L3725.61 1193.94L3575.04 1387.39L3580.41 1391.57ZM3242.07 1270.36C3245.33 1270.36 3251.44 1271.52 3260.19 1273.84C3268.81 1276.13 3279.65 1279.45 3292.18 1283.59C3317.23 1291.87 3348.89 1303.33 3382.74 1316.09C3450.43 1341.6 3526.78 1372.22 3576.43 1392.63L3579.02 1386.34C3529.33 1365.91 3452.91 1335.26 3385.14 1309.72C3351.25 1296.95 3319.5 1285.45 3294.32 1277.13C3281.73 1272.97 3270.74 1269.6 3261.93 1267.26C3253.25 1264.96 3246.33 1263.56 3242.07 1263.56V1270.36ZM2794.45 1392.74C2862.93 1372.33 2967.53 1341.7 3058.76 1316.18C3104.39 1303.42 3146.64 1291.95 3179.37 1283.66C3195.73 1279.52 3209.69 1276.18 3220.47 1273.88C3231.4 1271.55 3238.73 1270.36 3242.07 1270.36V1263.56C3237.88 1263.56 3229.82 1264.93 3219.05 1267.22C3208.15 1269.55 3194.1 1272.91 3177.7 1277.06C3144.89 1285.37 3102.57 1296.87 3056.93 1309.63C2965.65 1335.16 2861.01 1365.8 2792.51 1386.22L2794.45 1392.74ZM1567.04 1071.94L1460.39 1278.3L1466.43 1281.42L1573.09 1075.07L1567.04 1071.94ZM1949.52 1292.58C1932.23 1293.19 1906.09 1284.67 1874.61 1269.81C1843.3 1255.03 1807.28 1234.28 1770.45 1211.04C1696.8 1164.58 1620.2 1108.39 1572.16 1070.82L1567.97 1076.18C1616.13 1113.85 1692.93 1170.18 1766.82 1216.8C1803.76 1240.1 1840.05 1261.02 1871.7 1275.96C1903.18 1290.82 1930.66 1300.06 1949.76 1299.38L1949.52 1292.58ZM2322.84 1227.22C2322.58 1228 2321.66 1229.31 2319.3 1231.02C2317.02 1232.67 2313.77 1234.43 2309.57 1236.26C2301.18 1239.91 2289.47 1243.63 2275.22 1247.35C2246.75 1254.76 2208.65 1261.99 2167.91 1268.44C2086.42 1281.32 1994.81 1290.97 1949.52 1292.58L1949.76 1299.38C1995.43 1297.76 2087.34 1288.07 2168.97 1275.16C2209.79 1268.7 2248.15 1261.43 2276.94 1253.93C2291.31 1250.19 2303.42 1246.36 2312.28 1242.5C2316.71 1240.57 2320.45 1238.59 2323.29 1236.53C2326.05 1234.54 2328.39 1232.17 2329.31 1229.32L2322.84 1227.22ZM2342.02 1460.38C2341.5 1416.83 2340.24 1352.96 2338.18 1302.85C2337.14 1277.82 2335.91 1256.14 2334.45 1242.15C2333.73 1235.27 2332.93 1229.9 2331.97 1226.95C2331.72 1226.21 2331.4 1225.38 2330.93 1224.68C2330.57 1224.14 2329.4 1222.59 2327.28 1222.7C2325.28 1222.79 2324.23 1224.3 2323.9 1224.82C2323.44 1225.54 2323.11 1226.39 2322.84 1227.22L2329.31 1229.32C2329.4 1229.03 2329.48 1228.81 2329.55 1228.66C2329.62 1228.5 2329.65 1228.45 2329.64 1228.47C2329.64 1228.47 2329.52 1228.66 2329.26 1228.88C2328.97 1229.11 2328.41 1229.45 2327.61 1229.49C2326.78 1229.53 2326.15 1229.23 2325.78 1228.96C2325.45 1228.72 2325.29 1228.49 2325.27 1228.45C2325.23 1228.39 2325.32 1228.53 2325.5 1229.06C2326.2 1231.22 2326.95 1235.87 2327.68 1242.86C2329.11 1256.62 2330.35 1278.11 2331.38 1303.13C2333.44 1353.14 2334.7 1416.95 2335.22 1460.46L2342.02 1460.38ZM2021.46 1579.88C2075.04 1585.12 2139.48 1566.57 2197.93 1541.57C2256.49 1516.54 2309.55 1484.82 2340.57 1463.21L2336.68 1457.63C2306 1479 2253.34 1510.48 2195.26 1535.32C2137.07 1560.19 2073.94 1578.18 2022.12 1573.11L2021.46 1579.88ZM1460.41 1281.47C1481.14 1319.99 1518.46 1357.02 1564.51 1391.06C1610.62 1425.13 1665.72 1456.37 1722.32 1483.24C1835.43 1536.93 1955.04 1573.38 2021.46 1579.88L2022.12 1573.11C1956.79 1566.71 1837.98 1530.61 1725.24 1477.09C1668.9 1450.35 1614.21 1419.33 1568.56 1385.59C1522.86 1351.82 1486.45 1315.5 1466.4 1278.25L1460.41 1281.47ZM1462.46 1708.73L2215.33 1927.98L2217.23 1921.45L1464.36 1702.2L1462.46 1708.73ZM1344.37 2209.25L1466.71 1706.27L1460.1 1704.66L1337.76 2207.65L1344.37 2209.25ZM2058.56 2844.32L1343.33 2205.91L1338.8 2210.99L2054.03 2849.4L2058.56 2844.32ZM1952.99 3476.16L2059.65 2847.43L2052.94 2846.29L1946.28 3475.02L1952.99 3476.16ZM1398.71 3091.46L1947.68 3478.37L1951.6 3472.81L1402.63 3085.9L1398.71 3091.46ZM1287.79 3405.83L1403.86 3089.85L1397.48 3087.51L1281.41 3403.49L1287.79 3405.83ZM1644.2 3595.35C1599.17 3563.06 1527.24 3514.63 1457.75 3474.26C1423 3454.08 1388.8 3435.87 1358.85 3422.7C1329.03 3409.6 1302.94 3401.26 1284.6 3401.26V3408.06C1301.39 3408.06 1326.33 3415.84 1356.11 3428.93C1385.74 3441.96 1419.69 3460.03 1454.33 3480.15C1523.59 3520.38 1595.33 3568.68 1640.23 3600.88L1644.2 3595.35ZM2555.77 4262.21C2418.51 4233.35 2246.47 4134.59 2080.7 4008.92C1915.02 3883.31 1756.02 3731.15 1644.84 3595.95L1639.59 3600.28C1751.13 3735.92 1910.53 3888.45 2076.59 4014.34C2242.56 4140.16 2415.58 4239.69 2554.37 4268.87L2555.77 4262.21ZM3388.32 4114.03C3295.39 4148.38 3142.14 4197.02 2984.58 4231.26C2826.87 4265.54 2665.42 4285.26 2555.77 4262.21L2554.37 4268.87C2665.56 4292.25 2828.27 4272.2 2986.03 4237.91C3143.94 4203.59 3297.5 4154.85 3390.68 4120.42L3388.32 4114.03ZM3357.81 3741.9C3358.2 3741.32 3358.32 3741.38 3358.05 3741.5C3357.58 3741.72 3356.99 3741.67 3356.62 3741.47C3356.44 3741.37 3356.59 3741.38 3356.96 3741.96C3357.32 3742.49 3357.73 3743.3 3358.19 3744.45C3360.08 3749.15 3361.99 3757.64 3363.85 3769.38C3367.56 3792.73 3370.92 3827.77 3373.88 3867.99C3379.78 3948.4 3384.01 4049.1 3386.1 4117.33L3392.9 4117.12C3390.81 4048.85 3386.58 3948.04 3380.66 3867.5C3377.71 3827.25 3374.33 3791.96 3370.57 3768.32C3368.71 3756.57 3366.71 3747.4 3364.51 3741.92C3363.95 3740.53 3363.34 3739.27 3362.65 3738.22C3361.99 3737.22 3361.09 3736.14 3359.84 3735.47C3358.41 3734.71 3356.76 3734.61 3355.21 3735.32C3353.86 3735.94 3352.89 3737.03 3352.19 3738.07L3357.81 3741.9ZM2727.57 3769.18C2828.5 3770.25 2981 3770.26 3110.48 3766.76C3175.22 3765.01 3234.25 3762.39 3278.23 3758.59C3300.21 3756.69 3318.51 3754.48 3331.91 3751.93C3338.6 3750.65 3344.18 3749.27 3348.42 3747.75C3350.54 3746.99 3352.41 3746.17 3353.95 3745.27C3355.45 3744.38 3356.86 3743.29 3357.81 3741.9L3352.19 3738.07C3352.04 3738.29 3351.58 3738.76 3350.5 3739.4C3349.45 3740.02 3348.01 3740.67 3346.13 3741.34C3342.36 3742.69 3337.18 3744 3330.64 3745.24C3317.57 3747.73 3299.54 3749.91 3277.64 3751.81C3233.87 3755.59 3174.99 3758.21 3110.3 3759.96C2980.93 3763.45 2828.52 3763.45 2727.64 3762.38L2727.57 3769.18ZM2724.2 2866.2V3765.78H2731.01V2866.2H2724.2ZM3529.14 2460.13L2726.08 2863.16L2729.13 2869.24L3532.19 2466.21L3529.14 2460.13ZM3502.17 1876.5L3527.27 2463.31L3534.07 2463.02L3508.97 1876.2L3502.17 1876.5ZM2583.76 2005.47L3506.03 1879.72L3505.11 1872.98L2582.84 1998.73L2583.76 2005.47ZM2558.47 2801.84L2586.7 2002.22L2579.9 2001.98L2551.67 2801.6L2558.47 2801.84ZM2191.18 2805.12H2555.07V2798.32H2191.18V2805.12ZM2212.88 1924.62L2187.78 2801.62L2194.58 2801.82L2219.68 1924.81L2212.88 1924.62ZM1541.63 1898.29L1494.57 2146.56L1501.26 2147.82L1548.31 1899.55L1541.63 1898.29ZM2088.51 2034.27L1545.81 1895.62L1544.13 1902.22L2086.82 2040.86L2088.51 2034.27ZM2025.17 2618.32L2091.04 2037.95L2084.28 2037.18L2018.41 2617.55L2025.17 2618.32ZM1495.64 2149.72L2019.51 2620.46L2024.06 2615.4L1500.19 2144.66L1495.64 2149.72ZM2762.38 2672.75V2147.19H2755.57V2672.75H2762.38ZM3388.31 2434.19L2757.78 2669.56L2760.16 2675.93L3390.69 2440.56L3388.31 2434.19ZM3382.96 2056.94L3386.1 2437.4L3392.91 2437.35L3389.77 2056.88L3382.96 2056.94ZM2759.46 2150.56L3386.85 2060.28L3385.88 2053.54L2758.49 2143.82L2759.46 2150.56Z" fill="black"/>
</svg>
