<svg width="5104" height="5104" viewBox="0 0 5104 5104" fill="none" xmlns="http://www.w3.org/2000/svg">
<circle cx="2551.65" cy="2551.65" r="2551.65" fill="#A3B7BC"/>
<path d="M1064.51 1203.43C1274.5 799.878 1855.66 20.9262 2500.41 133.546C3145.16 246.165 3685.26 689.151 3880 998.854V2543.85L4031.33 4047.07C3903.46 4558.55 3470.35 5087.65 2873.46 4958.13C2276.58 4828.62 1766.04 4544.48 1571.3 4187.85C1571.3 3184.38 1064.51 1397.7 1064.51 1203.43Z" fill="#E8E7E5" stroke="black" stroke-width="7.4309"/>
<path d="M2159.03 1298V914.393L1310.87 1526.76L1504.43 1695.69L1750.79 1547.88L1954.91 1422.94L2159.03 1298Z" fill="#A3B7BC"/>
<path d="M2159.03 1298L1954.91 1422.94C1944.28 1520.9 1949.82 1704.14 2056.97 1653.46C2164.12 1602.78 2183.99 1522.07 2180.54 1488.05C2172.94 1416.76 2164.8 1346.1 2159.03 1298Z" fill="#A3B7BC"/>
<path d="M2813.63 1167.79C2929.07 1339.53 3216.01 1326.16 3345.06 1298L3545.09 1257.53L3745.13 1217.06L3739.22 914.393C3640.68 1018.57 3435.39 1028.19 3345.06 1019.97C3280.3 1034.05 3006.02 920.259 2876.98 861.603L2813.63 1167.79Z" fill="#A3B7BC"/>
<path d="M3745.13 1217.06L3545.09 1257.53C3526.51 1363.7 3521.02 1564.07 3647.72 1516.2C3675.5 1510.34 3734.68 1484.18 3749.22 1426.46L3745.13 1217.06Z" fill="#A3B7BC"/>
<path d="M2296.29 2093.38L2757.32 2864.12L3010.72 2642.4L2757.32 2012.43L2296.29 2093.38Z" fill="#A3B7BC"/>
<path d="M1954.91 3603.18C2311.54 3516.37 3080.4 3234.36 3302.82 2800.77L3457.68 3040.09L3345.06 4250.75C3289.92 4324.65 3106.44 4438.68 2813.63 4303.54C2447.62 4134.61 2134.4 4046.62 1954.91 3603.18Z" fill="#A3B7BC"/>
<path d="M2159.03 1298V914.393L1310.87 1526.76L1504.43 1695.69L1750.79 1547.88M2159.03 1298L1954.91 1422.94M2159.03 1298C2164.8 1346.1 2172.94 1416.76 2180.54 1488.05M1750.79 1547.88C1768.38 1924.45 1919.72 1910.37 1979.54 1935.01C2039.37 1959.64 2201.26 1818.87 2201.26 1734.4C2201.26 1694.54 2191.46 1590.64 2180.54 1488.05M1750.79 1547.88L1954.91 1422.94M1954.91 1422.94C1944.28 1520.9 1949.82 1704.14 2056.97 1653.46C2164.12 1602.78 2183.99 1522.07 2180.54 1488.05M3345.06 1298C3345.06 1604.89 3373.21 1662.84 3387.29 1653.46C3553.4 1785.79 3700.51 1696.86 3753.3 1635.86L3749.22 1426.46M3345.06 1298C3216.01 1326.16 2929.07 1339.53 2813.63 1167.79L2876.98 861.603C3006.02 920.259 3280.3 1034.05 3345.06 1019.97C3435.39 1028.19 3640.68 1018.57 3739.22 914.393L3745.13 1217.06M3345.06 1298L3545.09 1257.53M3745.13 1217.06L3545.09 1257.53M3745.13 1217.06L3749.22 1426.46M3545.09 1257.53C3526.51 1363.7 3521.02 1564.07 3647.72 1516.2C3675.5 1510.34 3734.68 1484.18 3749.22 1426.46M1602.97 2367.89C1822.35 2295.16 2268.13 2138.43 2296.29 2093.38M2296.29 2093.38L2757.32 2864.12L3010.72 2642.4L2757.32 2012.43M2296.29 2093.38L2757.32 2012.43M2757.32 2012.43C3008.37 2105.11 3565.37 2234.86 3784.98 2012.43M1954.91 3603.18C2311.54 3516.37 3080.4 3234.36 3302.82 2800.77L3457.68 3040.09L3345.06 4250.75C3289.92 4324.65 3106.44 4438.68 2813.63 4303.54C2447.62 4134.61 2134.4 4046.62 1954.91 3603.18Z" stroke="black" stroke-width="7.4309"/>
</svg>
