<svg width="5104" height="5104" viewBox="0 0 5104 5104" fill="none" xmlns="http://www.w3.org/2000/svg">
<circle cx="2551.65" cy="2551.65" r="2551.65" fill="#A3B7BC"/>
<path d="M1250.91 1103.35C1749.7 516.899 2937.11 -344.637 3696.47 900.812C4455.83 2146.26 4518.71 2963.46 4455.22 3216.38L3696.47 4742.96H1743.65L537.502 3857.24C540.525 3238.55 687.44 1821.6 1250.91 1103.35Z" fill="#E8E7E5" stroke="black" stroke-width="6.38273"/>
<path d="M1922.01 2919.17C2451.62 2561.26 2305.92 2391.17 2166.86 2350.86C2032.03 2406.66 1798.2 2453.98 1556.23 2490.88C1604.6 2631.72 1680.78 2944.52 1598.55 3068.95L1922.01 2919.17Z" fill="#A3B7BC"/>
<path d="M857.934 2571.54C915.974 2835.14 1182.4 3102.56 1308.35 3203.33L1474.61 3126.34C1247.29 3026.06 1321.45 2676.96 1386.95 2514.95C1182.83 2542.02 988.058 2561.27 857.934 2571.54Z" fill="#A3B7BC"/>
<path d="M3862.73 2774.07L4158.98 2417.37L3499.98 2490.88L3244.54 2370.99C3215.82 2505.35 3137.83 2774.07 3055.61 2774.07H3862.73Z" fill="#A3B7BC"/>
<path d="M2989.1 2251.1C2881.28 2225.91 2668.67 2223.9 2680.76 2417.37C2689 2549.17 2783.76 2649.17 2874.23 2711.64C2863.15 2555.76 2883.9 2251.67 3055.61 2282.32L2989.1 2251.1Z" fill="#A3B7BC"/>
<path d="M1259.98 2057.64C1367.8 1862.16 1713.42 1529.83 2233.37 1764.41M2874.23 1764.41C2955.85 1682.79 3506.02 1570.95 3799.25 2057.64M1386.95 2514.95C1182.83 2542.02 988.058 2561.27 857.934 2571.54C915.974 2835.14 1182.4 3102.56 1308.35 3203.33L1474.61 3126.34M1386.95 2514.95C1321.45 2676.96 1247.29 3026.06 1474.61 3126.34M1386.95 2514.95C1443.05 2507.5 1499.86 2499.47 1556.23 2490.88M1474.61 3126.34L1598.55 3068.95M1556.23 2490.88C1798.2 2453.98 2032.03 2406.66 2166.86 2350.86C2305.92 2391.17 2451.62 2561.26 1922.01 2919.17L1598.55 3068.95M1556.23 2490.88C1604.6 2631.72 1680.78 2944.52 1598.55 3068.95M3244.54 2370.99L3499.98 2490.88L4158.98 2417.37L3862.73 2774.07H3055.61M3244.54 2370.99C3215.82 2505.35 3137.83 2774.07 3055.61 2774.07M3244.54 2370.99L3055.61 2282.32M3055.61 2774.07H2989.1C2957.95 2761.87 2916.56 2740.86 2874.23 2711.64M2874.23 2711.64C2783.76 2649.17 2689 2549.17 2680.76 2417.37C2668.67 2223.9 2881.28 2225.91 2989.1 2251.1L3055.61 2282.32M2874.23 2711.64C2863.15 2555.76 2883.9 2251.67 3055.61 2282.32M2484.27 2323.66L2432.88 3433.07M1876.66 3859.31C2207.17 3825.05 2899.02 3777.08 3022.35 3859.31" stroke="black" stroke-width="6.38273"/>
</svg>
