<svg width="5104" height="5104" viewBox="0 0 5104 5104" fill="none" xmlns="http://www.w3.org/2000/svg">
<circle cx="2552" cy="2551.65" r="2551.65" fill="#A3B7BC"/>
<path d="M3802.27 839.886C4229.64 1550.11 5013.65 1685.39 4703.12 2733.81C4392.59 3782.24 4438.71 3219.59 3802.27 3840.65C3165.84 4461.71 3611.65 4993.61 2796.89 4566.25C1982.13 4138.89 1244.24 4698.46 1244.24 4018.98C1244.24 3339.5 103.579 4108.14 355.693 3234.97C607.807 2361.79 189.672 2955.18 561.693 2082.01C1107.73 1181.78 1485.78 873.185 1606.55 831.417C3168.47 287.896 3403.88 177.804 3802.27 839.886Z" fill="#E8E7E5" stroke="black" stroke-width="7.65832"/>
<path d="M1794.58 2850.65C2011.03 2762.11 2261.92 2789.16 2360.3 2813.76C2498.66 2880.37 2798.12 3047.42 2889.13 3182.71C2936.89 3253.71 3041.59 3428.27 3143.33 3616.22M1794.58 2850.65C1618.68 2922.61 1494.49 3202.5 1431.58 3407.15M1794.58 2850.65C2060.02 2967.49 2609.34 3209.76 2683.13 3244.2C2756.92 3278.63 3020.68 3506.56 3143.33 3616.22M3390.28 4234.2C3350.92 4335.05 3291.89 4427.9 3267.3 4461.72L1397.96 3533.21C1405.84 3497.5 1417.08 3454.32 1431.58 3407.15M3390.28 4234.2L2446.39 3835.65M3390.28 4234.2C3418.82 4161.08 3283.89 3875.86 3143.33 3616.22M1431.58 3407.15L1656.23 3502M1656.23 3502C1721.82 3426.32 1880.67 3278.63 1991.35 3293.39C2102.04 3308.15 2324.43 3416.37 2421.79 3468.64L2446.39 3835.65M1656.23 3502L2446.39 3835.65M1397.96 1273.41L2034.4 957.636L2042 953.865L2197.35 876.787" stroke="#A3B7BC" stroke-width="36.8947"/>
<path d="M2028.25 1288.78L1800.74 1411.76L1782.29 1431.08C1776.14 1493.3 1767.53 1625.13 1782.29 1654.65C1800.74 1691.54 1899.12 1833.7 1982.14 1805.21L2028.91 1789.16C2058.92 1766.84 2088.17 1717.79 2089.75 1620.83C2092.21 1469.03 2090.77 1336.21 2089.75 1288.78H2028.25Z" fill="#A3B7BC"/>
<path d="M3461 1580.86C3436.91 1562.79 3368.64 1523.97 3285.75 1478.97C3098.82 1574.56 3028.42 1883.93 3016.59 2026.67L3161.15 2183.47C3277.5 2113.78 3500.35 1895.69 3461 1580.86Z" fill="#A3B7BC"/>
<path d="M1782.29 1431.08L1345.7 1888.32V2023.6L1982.14 1805.21M1782.29 1431.08L1800.74 1411.76L2028.25 1288.78H2089.75M1782.29 1431.08C1776.14 1493.3 1767.53 1625.13 1782.29 1654.65C1800.74 1691.54 1899.12 1833.7 1982.14 1805.21M1982.14 1805.21L2028.91 1789.16M1982.14 1805.21C1994.72 1805.86 2011.94 1801.79 2028.91 1789.16M2089.75 1288.78H2286.52V1700.77L2028.91 1789.16M2089.75 1288.78C2090.77 1336.21 2092.21 1469.03 2089.75 1620.83C2088.17 1717.79 2058.92 1766.84 2028.91 1789.16M3461 1580.86C3520.03 1625.13 3618.83 1738.69 3660.85 1789.93L3863.77 2518.6L3759.23 2832.2L3161.15 2183.47M3461 1580.86C3436.91 1562.79 3368.64 1523.97 3285.75 1478.97M3461 1580.86C3500.35 1895.69 3277.5 2113.78 3161.15 2183.47M3016.59 2026.67L2815.34 1808.38L2922.95 1288.78C3014.55 1335.49 3165.53 1413.72 3285.75 1478.97M3016.59 2026.67C3028.42 1883.93 3098.82 1574.56 3285.75 1478.97M3016.59 2026.67L3161.15 2183.47M3058.23 910.607C3231.43 975.172 3607.96 1146.12 3728.49 1313.37C3849.01 1480.63 4030.82 1858.59 4106.66 2026.67" stroke="#A3B7BC" stroke-width="36.8947"/>
</svg>
