<svg width="5104" height="5104" viewBox="0 0 5104 5104" fill="none" xmlns="http://www.w3.org/2000/svg">
<circle cx="2551.65" cy="2552.03" r="2551.65" fill="#A3B7BC"/>
<path fill-rule="evenodd" clip-rule="evenodd" d="M3927.27 4083.44C4087.64 3802.79 4225.46 1299.51 3927.27 740.724C3686.71 201.98 1025.57 450.053 782.51 820.909C782.51 2186.06 1180.09 3419.41 1378.89 3865.44C1737.21 4622.19 2135.63 4800.1 2792.15 4920.37C3400.4 5031.81 3718.28 4459.26 3889.27 4151.28C3902.84 4126.85 3915.48 4104.07 3927.27 4083.44ZM3806.02 1686.36C3798.63 1646.97 3775.72 1592.13 3741.53 1534.35C3706.66 1475.45 3657.77 1409.6 3595 1348.67C3469.31 1226.67 3284.94 1121.87 3046.29 1138.33L3040.39 1138.74L3034.69 1140.34C2995.53 1151.32 2937.62 1174.8 2889.12 1211.41C2845.19 1244.56 2798.38 1297.11 2796.85 1368.65L2672.67 1624.18L2655.97 1658.53L2681.1 1687.29L3114.6 2183.44L3135.9 2207.81L3167.79 2202.32L3618.83 2124.64L3643.64 2120.36L3657.37 2099.25C3694.23 2042.53 3753.98 1937.1 3786.14 1840.47C3802.55 1791.15 3815.09 1734.76 3806.02 1686.36ZM2793.03 1640.21L2885.79 1449.36C2928.62 1461.35 2977.2 1475.98 3028.85 1492.87C3011.43 1542.09 2996.98 1600.8 2996.51 1656.17C2996.16 1696.58 3003.2 1741.19 3028 1778.92C3054.3 1818.95 3096.01 1844.27 3150.06 1851.79C3249.64 1865.66 3349.67 1871.9 3429.84 1848.84C3471.2 1836.95 3509.75 1816.6 3539.89 1783.44C3552.07 1770.03 3562.31 1755.16 3570.67 1738.91C3614.83 1770.28 3647.62 1800.65 3667.9 1828.9C3642.54 1895.63 3603.94 1966.68 3574 2015.39L3180.11 2083.23L2793.03 1640.21ZM3472.09 1677.64C3372.74 1622.63 3253.26 1572.32 3137.83 1530.44C3123.38 1571.06 3112.11 1617.34 3111.77 1657.15C3111.53 1685.31 3116.83 1704.22 3124.32 1715.61C3130.3 1724.71 3140.81 1734.13 3165.95 1737.63C3264.32 1751.32 3343.1 1753.85 3397.98 1738.07C3424.14 1730.54 3442.17 1719.57 3454.59 1705.91C3461.21 1698.63 3467.24 1689.48 3472.09 1677.64ZM3568.11 1599.92C3610.18 1625.09 3650.36 1652.4 3685.34 1681.81C3677.35 1659.31 3663.39 1628.64 3642.34 1593.06C3612.13 1542.03 3569.41 1484.46 3514.72 1431.38C3406.61 1326.44 3254.73 1241.48 3060.29 1252.93C3031.17 1261.79 2990.59 1279.23 2958.56 1303.41C2941.82 1316.05 2930.14 1328.28 2922.69 1339.99C2982.14 1356.76 3051.36 1378.16 3124.21 1403.34C3272.34 1454.52 3438.44 1522.33 3568.11 1599.92ZM2087.13 1173.57C1905.18 1089.59 1709.95 1193.36 1569.74 1341.66C1426.62 1493.05 1317.42 1712.57 1303.85 1916.17L1301.75 1947.74L1327.25 1966.46L1798.34 2312.26L1840.42 2343.15L1875.31 2304.32C1960.72 2209.28 2088.92 2064.25 2195.9 1938.03C2249.32 1875.01 2297.9 1816.14 2333.31 1770.35C2350.92 1747.57 2365.93 1727.18 2376.77 1710.73C2382.13 1702.6 2387.19 1694.36 2391.12 1686.63C2393.08 1682.78 2395.25 1678.1 2397.04 1672.98C2398.56 1668.64 2401.26 1660.01 2401.26 1649.37C2401.26 1647.71 2401.27 1645.77 2401.29 1643.57V1643.56C2401.72 1596.61 2403.2 1431.14 2259.84 1290.06C2215.96 1246.89 2159.46 1206.95 2087.13 1173.57ZM1653.5 1420.85C1586.18 1492.06 1527.99 1579.75 1486.26 1671.93C1540.45 1611.3 1600.6 1549.84 1663.86 1493.62C1774.26 1395.5 1901.02 1307.06 2026.49 1273.02C1917.15 1231.05 1779.75 1287.31 1653.5 1420.85ZM2286.05 1638.54C2286.21 1593.18 2283.11 1481.39 2187.97 1381.36C2181.67 1379.48 2175.24 1377.94 2168.67 1376.73C2177.9 1432.72 2184.03 1497.52 2180.39 1556.2C2177.73 1599.01 2169.57 1644.73 2148.72 1681.81C2126.08 1722.09 2087.49 1752.83 2032.23 1754.59C2006.75 1755.4 1985.48 1757.43 1964.17 1759.47C1953.79 1760.46 1943.41 1761.45 1932.52 1762.3C1901.78 1764.71 1867.6 1765.87 1833.16 1756.41C1775.46 1740.58 1730.9 1699.45 1687.34 1628.93C1591.39 1721.29 1505.15 1823.18 1441.78 1907.54L1824.4 2188.4C1907.03 2095.89 2015.61 1972.46 2107.97 1863.5C2161.04 1800.88 2208.31 1743.57 2242.12 1699.84C2259.12 1677.86 2272.06 1660.15 2280.53 1647.31C2282.91 1643.69 2284.72 1640.79 2286.05 1638.54ZM2065.34 1549.06C2068.54 1497.58 2062.33 1437.19 2053.19 1385.2C1966.83 1409.48 1870.63 1469.7 1774.66 1550.2C1816.42 1623.43 1843.64 1639.76 1863.67 1645.26C1877.78 1649.13 1895.14 1649.61 1923.51 1647.39C1931 1646.8 1939.52 1645.99 1948.84 1645.11C1971.71 1642.94 1999.41 1640.31 2028.57 1639.38C2036.46 1639.13 2041.65 1637.05 2048.24 1625.34C2056.62 1610.43 2063.11 1584.97 2065.34 1549.06ZM2749.56 2373.55H2424.66C2387.97 2361.13 2321.07 2316.11 2321.07 2218.19H2205.81C2205.81 2391.03 2334.45 2469.29 2401.67 2486.93L2408.86 2488.81H2416.29H2807.19H2864.83V2431.18V2293.36H2749.56V2373.55ZM2929.18 3837.39L2906.05 2654.91C2973.33 2655.69 3035.28 2660.65 3084.63 2667.75C3115.64 2672.21 3140.48 2677.35 3158 2682.39V3812.36C3103.27 3837.66 3015.02 3860.18 2929.18 3837.39ZM3178.52 2689.92C3178.5 2689.92 3178.27 2689.8 3177.86 2689.53C3178.33 2689.78 3178.53 2689.91 3178.52 2689.92ZM2849.9 3931.81C3005.42 3997.54 3166.2 3942.4 3239.69 3899.7L3469.23 3824L3433.13 3714.53L3273.27 3767.25V2646.68V2626.67L3260.87 2610.96C3249.88 2597.04 3235.18 2589.13 3226.23 2584.87C3215.68 2579.85 3203.73 2575.66 3191.49 2572.08C3166.87 2564.88 3135.85 2558.67 3101.04 2553.66C3031.16 2543.61 2940.98 2537.71 2845.86 2540.06C2743 2542.6 2631.86 2554.84 2533.14 2583.29C2480.72 2598.4 2430.54 2618.44 2386.57 2644.91C2339.19 2673.44 2282.71 2690.06 2221.48 2697.41C2066.67 2716.01 1896.06 2673.69 1810.7 2640.56L1768.99 2748.01C1800.19 2760.12 1841.36 2773.39 1888.89 2785.03L1968.69 3683.35C1950.99 3688.43 1932 3694.34 1913.81 3700.76C1895.4 3707.26 1876.56 3714.71 1860.27 3722.86C1846.45 3729.77 1825.52 3741.38 1811.82 3759.19C1809.36 3762.39 1801.01 3773.29 1798.49 3789.23C1797 3798.68 1797.22 3812.29 1804.51 3826.21C1811.87 3840.26 1823.13 3848.34 1832.23 3852.56C1847.33 3859.56 1861.39 3858.37 1865.17 3858.06L1865.21 3858.05C1871.21 3857.54 1876.66 3856.38 1880.67 3855.38C1895.79 3851.63 1915.7 3843.75 1934.31 3835.81C1969.03 3820.99 2011.88 3800.39 2044.46 3784.11C2102.87 3783.47 2179.68 3784.74 2262.72 3789.4C2360.44 3794.87 2465.58 3804.97 2558.94 3821.76C2660.4 3840.02 2739.3 3864.79 2781.87 3894.31C2804.03 3909.67 2826.83 3922.05 2849.9 3931.81ZM2083.11 3668.71L2006.61 2807.56C2059.8 2814.88 2116.36 2818.74 2173.07 2816.66L2205.94 3671.32C2161.63 3669.62 2120.04 3668.82 2083.11 3668.71ZM2321.54 3677.64L2287.91 2803.38C2342.82 2792.17 2396.81 2773.29 2446.02 2743.66C2460.36 2735.03 2476.03 2727.04 2492.9 2719.69L2510.3 3697.26C2448.07 3688.43 2383.67 3682.08 2321.54 3677.64ZM2625.94 3717.43L2607.53 2683.12C2665.5 2669.85 2728.2 2661.78 2790.82 2657.82L2812.75 3778.74C2761.14 3751.82 2695.33 3732.17 2625.94 3717.43Z" fill="#E8E7E5"/>
<path d="M3927.27 740.724L3924.16 742.111L3924.21 742.22L3924.27 742.326L3927.27 740.724ZM3927.27 4083.44L3930.22 4085.13L3930.22 4085.13L3927.27 4083.44ZM782.51 820.909L779.664 819.044L779.108 819.894V820.909H782.51ZM1378.89 3865.44L1375.78 3866.82L1375.79 3866.86L1375.81 3866.89L1378.89 3865.44ZM2792.15 4920.37L2792.76 4917.03L2792.76 4917.03L2792.15 4920.37ZM3889.27 4151.28L3886.29 4149.63L3886.29 4149.63L3889.27 4151.28ZM3741.53 1534.35L3744.46 1532.62L3744.46 1532.62L3741.53 1534.35ZM3806.02 1686.36L3802.67 1686.99L3802.67 1686.99L3806.02 1686.36ZM3595 1348.67L3597.37 1346.23L3597.37 1346.23L3595 1348.67ZM3046.29 1138.33L3046.06 1134.94L3046.06 1134.94L3046.29 1138.33ZM3040.39 1138.74L3040.15 1135.34L3039.81 1135.37L3039.47 1135.46L3040.39 1138.74ZM3034.69 1140.34L3033.77 1137.06L3033.77 1137.06L3034.69 1140.34ZM2889.12 1211.41L2887.07 1208.69L2887.07 1208.69L2889.12 1211.41ZM2796.85 1368.65L2799.91 1370.13L2800.24 1369.46L2800.25 1368.72L2796.85 1368.65ZM2672.67 1624.18L2669.61 1622.7L2669.61 1622.7L2672.67 1624.18ZM2655.97 1658.53L2652.91 1657.05L2651.93 1659.07L2653.41 1660.77L2655.97 1658.53ZM2681.1 1687.29L2678.54 1689.53L2678.54 1689.53L2681.1 1687.29ZM3114.6 2183.44L3112.04 2185.68L3112.04 2185.68L3114.6 2183.44ZM3135.9 2207.81L3133.33 2210.05L3134.59 2211.49L3136.47 2211.16L3135.9 2207.81ZM3167.79 2202.32L3167.21 2198.96L3167.21 2198.96L3167.79 2202.32ZM3618.83 2124.64L3618.25 2121.28L3618.25 2121.28L3618.83 2124.64ZM3643.64 2120.36L3644.22 2123.72L3645.69 2123.46L3646.5 2122.22L3643.64 2120.36ZM3657.37 2099.25L3660.22 2101.1L3660.22 2101.1L3657.37 2099.25ZM3786.14 1840.47L3789.37 1841.55L3789.37 1841.55L3786.14 1840.47ZM2885.79 1449.36L2886.7 1446.08L2883.97 1445.31L2882.73 1447.87L2885.79 1449.36ZM2793.03 1640.21L2789.97 1638.73L2788.99 1640.76L2790.47 1642.45L2793.03 1640.21ZM3028.85 1492.87L3032.06 1494.01L3033.22 1490.72L3029.91 1489.64L3028.85 1492.87ZM2996.51 1656.17L2999.91 1656.19L2999.91 1656.19L2996.51 1656.17ZM3028 1778.92L3030.84 1777.05L3030.84 1777.05L3028 1778.92ZM3150.06 1851.79L3149.59 1855.16L3149.59 1855.16L3150.06 1851.79ZM3429.84 1848.84L3428.89 1845.57L3428.89 1845.57L3429.84 1848.84ZM3539.89 1783.44L3537.37 1781.15L3537.37 1781.15L3539.89 1783.44ZM3570.67 1738.91L3572.64 1736.14L3569.44 1733.86L3567.64 1737.35L3570.67 1738.91ZM3667.9 1828.9L3671.08 1830.11L3671.73 1828.4L3670.66 1826.92L3667.9 1828.9ZM3574 2015.39L3574.58 2018.75L3576.1 2018.49L3576.9 2017.17L3574 2015.39ZM3180.11 2083.23L3177.55 2085.47L3178.81 2086.91L3180.69 2086.58L3180.11 2083.23ZM3137.83 1530.44L3138.99 1527.24L3135.77 1526.07L3134.63 1529.3L3137.83 1530.44ZM3472.09 1677.64L3475.24 1678.93L3476.38 1676.13L3473.74 1674.67L3472.09 1677.64ZM3111.77 1657.15L3108.37 1657.12L3108.37 1657.12L3111.77 1657.15ZM3124.32 1715.61L3127.17 1713.75L3127.17 1713.75L3124.32 1715.61ZM3165.95 1737.63L3165.48 1741L3165.48 1741L3165.95 1737.63ZM3397.98 1738.07L3397.04 1734.8L3397.04 1734.8L3397.98 1738.07ZM3454.59 1705.91L3452.07 1703.62L3452.07 1703.62L3454.59 1705.91ZM3685.34 1681.81L3683.15 1684.41L3692.73 1692.47L3688.55 1680.67L3685.34 1681.81ZM3568.11 1599.92L3569.86 1597L3569.86 1597L3568.11 1599.92ZM3642.34 1593.06L3645.26 1591.33L3645.26 1591.33L3642.34 1593.06ZM3514.72 1431.38L3517.09 1428.94L3517.09 1428.94L3514.72 1431.38ZM3060.29 1252.93L3060.09 1249.54L3059.69 1249.56L3059.3 1249.68L3060.29 1252.93ZM2958.56 1303.41L2960.61 1306.12L2960.61 1306.12L2958.56 1303.41ZM2922.69 1339.99L2919.82 1338.17L2917.36 1342.03L2921.77 1343.27L2922.69 1339.99ZM3124.21 1403.34L3125.32 1400.12L3125.32 1400.12L3124.21 1403.34ZM1569.74 1341.66L1567.27 1339.32L1567.27 1339.32L1569.74 1341.66ZM2087.13 1173.57L2088.55 1170.48L2088.55 1170.48L2087.13 1173.57ZM1303.85 1916.17L1300.46 1915.94L1300.46 1915.94L1303.85 1916.17ZM1301.75 1947.74L1298.35 1947.51L1298.23 1949.37L1299.73 1950.48L1301.75 1947.74ZM1327.25 1966.46L1329.27 1963.72L1329.27 1963.72L1327.25 1966.46ZM1798.34 2312.26L1800.35 2309.51L1800.35 2309.51L1798.34 2312.26ZM1840.42 2343.15L1838.41 2345.89L1840.89 2347.71L1842.95 2345.42L1840.42 2343.15ZM1875.31 2304.32L1877.84 2306.59L1877.84 2306.59L1875.31 2304.32ZM2195.9 1938.03L2193.3 1935.83L2193.3 1935.83L2195.9 1938.03ZM2333.31 1770.35L2336 1772.43L2336 1772.43L2333.31 1770.35ZM2376.77 1710.73L2373.93 1708.86L2373.93 1708.86L2376.77 1710.73ZM2391.12 1686.63L2394.15 1688.18L2394.15 1688.18L2391.12 1686.63ZM2397.04 1672.98L2393.83 1671.86L2393.83 1671.86L2397.04 1672.98ZM2401.29 1643.57L2404.7 1643.6L2404.7 1643.59V1643.57H2401.29ZM2401.29 1643.56L2397.89 1643.53L2397.89 1643.54V1643.56H2401.29ZM2259.84 1290.06L2262.22 1287.64L2262.22 1287.64L2259.84 1290.06ZM1486.26 1671.93L1483.16 1670.53L1488.8 1674.2L1486.26 1671.93ZM1653.5 1420.85L1655.97 1423.19L1655.97 1423.19L1653.5 1420.85ZM1663.86 1493.62L1666.12 1496.16L1666.12 1496.16L1663.86 1493.62ZM2026.49 1273.02L2027.39 1276.3L2037.44 1273.58L2027.71 1269.84L2026.49 1273.02ZM2187.97 1381.36L2190.44 1379.01L2189.81 1378.35L2188.95 1378.1L2187.97 1381.36ZM2286.05 1638.54L2288.98 1640.28L2289.45 1639.48L2289.45 1638.55L2286.05 1638.54ZM2168.67 1376.73L2169.29 1373.38L2164.53 1372.51L2165.32 1377.28L2168.67 1376.73ZM2180.39 1556.2L2183.78 1556.41L2183.78 1556.41L2180.39 1556.2ZM2148.72 1681.81L2151.69 1683.48L2151.69 1683.48L2148.72 1681.81ZM2032.23 1754.59L2032.12 1751.19L2032.12 1751.19L2032.23 1754.59ZM1964.17 1759.47L1963.85 1756.08L1963.85 1756.08L1964.17 1759.47ZM1932.52 1762.3L1932.25 1758.91L1932.25 1758.91L1932.52 1762.3ZM1833.16 1756.41L1834.06 1753.13L1834.06 1753.13L1833.16 1756.41ZM1687.34 1628.93L1690.23 1627.15L1688.01 1623.56L1684.98 1626.48L1687.34 1628.93ZM1441.78 1907.54L1439.06 1905.5L1436.99 1908.25L1439.77 1910.28L1441.78 1907.54ZM1824.4 2188.4L1822.39 2191.14L1824.88 2192.97L1826.94 2190.67L1824.4 2188.4ZM2107.97 1863.5L2110.56 1865.7L2107.97 1863.5ZM2242.12 1699.84L2244.81 1701.92L2244.81 1701.92L2242.12 1699.84ZM2280.53 1647.31L2283.37 1649.18L2283.37 1649.18L2280.53 1647.31ZM2053.19 1385.2L2056.54 1384.61L2055.89 1380.91L2052.27 1381.93L2053.19 1385.2ZM2065.34 1549.06L2061.95 1548.85L2061.95 1548.85L2065.34 1549.06ZM1774.66 1550.2L1772.48 1547.59L1770.3 1549.42L1771.71 1551.88L1774.66 1550.2ZM1863.67 1645.26L1862.77 1648.54L1862.77 1648.54L1863.67 1645.26ZM1923.51 1647.39L1923.78 1650.78L1923.78 1650.78L1923.51 1647.39ZM1948.84 1645.11L1948.51 1641.72L1948.51 1641.72L1948.84 1645.11ZM2028.57 1639.38L2028.46 1635.98L2028.46 1635.98L2028.57 1639.38ZM2048.24 1625.34L2045.27 1623.67L2045.27 1623.67L2048.24 1625.34ZM2424.66 2373.55L2423.57 2376.77L2424.1 2376.95H2424.66V2373.55ZM2749.56 2373.55V2376.95H2752.96V2373.55H2749.56ZM2321.07 2218.19H2324.47V2214.78H2321.07V2218.19ZM2205.81 2218.19V2214.78H2202.4V2218.19H2205.81ZM2401.67 2486.93L2400.81 2490.22L2400.81 2490.22L2401.67 2486.93ZM2408.86 2488.81L2408 2492.1L2408.42 2492.21H2408.86V2488.81ZM2864.83 2488.81V2492.21H2868.23V2488.81H2864.83ZM2864.83 2293.36H2868.23V2289.96H2864.83V2293.36ZM2749.56 2293.36V2289.96H2746.16V2293.36H2749.56ZM2906.05 2654.91L2906.09 2651.51L2902.58 2651.47L2902.65 2654.98L2906.05 2654.91ZM2929.18 3837.39L2925.78 3837.45L2925.83 3840.02L2928.31 3840.67L2929.18 3837.39ZM3084.63 2667.75L3085.11 2664.39L3085.11 2664.39L3084.63 2667.75ZM3158 2682.39H3161.41V2679.82L3158.94 2679.12L3158 2682.39ZM3158 3812.36L3159.43 3815.45L3161.41 3814.54V3812.36H3158ZM3177.86 2689.53L3179.46 2686.53L3175.99 2692.38L3177.86 2689.53ZM3239.69 3899.7L3238.62 3896.47L3238.28 3896.58L3237.98 3896.76L3239.69 3899.7ZM2849.9 3931.81L2851.23 3928.67L2851.23 3928.67L2849.9 3931.81ZM3469.23 3824L3470.3 3827.23L3473.53 3826.17L3472.46 3822.94L3469.23 3824ZM3433.13 3714.53L3436.36 3713.47L3435.3 3710.24L3432.07 3711.3L3433.13 3714.53ZM3273.27 3767.25H3269.87V3771.96L3274.34 3770.49L3273.27 3767.25ZM3273.27 2626.67H3276.67V2625.49L3275.94 2624.56L3273.27 2626.67ZM3260.87 2610.96L3263.54 2608.86L3263.54 2608.86L3260.87 2610.96ZM3226.23 2584.87L3227.69 2581.8L3227.69 2581.8L3226.23 2584.87ZM3191.49 2572.08L3192.45 2568.82L3192.45 2568.82L3191.49 2572.08ZM3101.04 2553.66L3101.53 2550.29L3101.53 2550.29L3101.04 2553.66ZM2845.86 2540.06L2845.78 2536.65L2845.78 2536.65L2845.86 2540.06ZM2533.14 2583.29L2534.08 2586.56L2534.08 2586.56L2533.14 2583.29ZM2386.57 2644.91L2384.81 2642L2384.81 2642L2386.57 2644.91ZM2221.48 2697.41L2221.89 2700.79L2221.89 2700.79L2221.48 2697.41ZM1810.7 2640.56L1811.93 2637.39L1808.76 2636.16L1807.53 2639.33L1810.7 2640.56ZM1768.99 2748.01L1765.82 2746.78L1764.59 2749.95L1767.76 2751.19L1768.99 2748.01ZM1888.89 2785.03L1892.28 2784.73L1892.07 2782.31L1889.7 2781.73L1888.89 2785.03ZM1968.69 3683.35L1969.63 3686.62L1972.33 3685.84L1972.08 3683.05L1968.69 3683.35ZM1913.81 3700.76L1914.94 3703.97L1914.94 3703.97L1913.81 3700.76ZM1860.27 3722.86L1858.74 3719.82L1858.74 3719.82L1860.27 3722.86ZM1811.82 3759.19L1809.12 3757.11L1809.12 3757.11L1811.82 3759.19ZM1798.49 3789.23L1801.85 3789.76L1801.85 3789.76L1798.49 3789.23ZM1804.51 3826.21L1807.53 3824.63L1807.53 3824.63L1804.51 3826.21ZM1832.23 3852.56L1830.8 3855.65L1830.8 3855.65L1832.23 3852.56ZM1865.17 3858.06L1865.45 3861.45L1865.46 3861.44L1865.47 3861.44L1865.17 3858.06ZM1865.21 3858.05L1864.92 3854.66L1864.92 3854.66L1864.91 3854.66L1865.21 3858.05ZM1880.67 3855.38L1879.85 3852.08L1879.85 3852.08L1880.67 3855.38ZM1934.31 3835.81L1935.65 3838.94L1935.65 3838.94L1934.31 3835.81ZM2044.46 3784.11L2044.42 3780.71L2043.64 3780.72L2042.93 3781.07L2044.46 3784.11ZM2262.72 3789.4L2262.91 3786L2262.91 3786L2262.72 3789.4ZM2558.94 3821.76L2558.34 3825.11L2558.34 3825.11L2558.94 3821.76ZM2781.87 3894.31L2779.94 3897.11L2779.94 3897.11L2781.87 3894.31ZM2006.61 2807.56L2007.08 2804.19L2002.85 2803.6L2003.22 2807.86L2006.61 2807.56ZM2083.11 3668.71L2079.72 3669.01L2080 3672.1L2083.1 3672.11L2083.11 3668.71ZM2173.07 2816.66L2176.47 2816.53L2176.34 2813.13L2172.94 2813.26L2173.07 2816.66ZM2205.94 3671.32L2205.81 3674.72L2209.48 3674.87L2209.34 3671.19L2205.94 3671.32ZM2287.91 2803.38L2287.23 2800.05L2284.4 2800.62L2284.51 2803.51L2287.91 2803.38ZM2321.54 3677.64L2318.14 3677.77L2318.25 3680.82L2321.29 3681.04L2321.54 3677.64ZM2446.02 2743.66L2444.26 2740.75L2444.26 2740.75L2446.02 2743.66ZM2492.9 2719.69L2496.3 2719.63L2496.21 2714.54L2491.54 2716.57L2492.9 2719.69ZM2510.3 3697.26L2509.82 3700.63L2513.77 3701.19L2513.7 3697.2L2510.3 3697.26ZM2607.53 2683.12L2606.77 2679.8L2604.08 2680.42L2604.13 2683.18L2607.53 2683.12ZM2625.94 3717.43L2622.54 3717.49L2622.59 3720.19L2625.23 3720.76L2625.94 3717.43ZM2790.82 2657.82L2794.22 2657.75L2794.15 2654.2L2790.6 2654.42L2790.82 2657.82ZM2812.75 3778.74L2811.17 3781.75L2816.26 3784.41L2816.15 3778.67L2812.75 3778.74ZM3924.27 742.326C3961.31 811.738 3991.69 911.587 4016.12 1033.95C4040.55 1156.25 4058.98 1300.83 4072.23 1459.58C4098.72 1777.07 4104.44 2151.01 4095.83 2516.31C4087.22 2881.6 4064.28 3238.19 4033.48 3520.95C4018.08 3662.34 4000.71 3785.23 3982.2 3881.51C3963.66 3977.95 3944.05 4047.23 3924.32 4081.75L3930.22 4085.13C3950.59 4049.49 3970.36 3979.15 3988.89 3882.79C4007.44 3786.27 4024.83 3663.18 4040.24 3521.69C4071.07 3238.7 4094.02 2881.92 4102.63 2516.47C4111.25 2151.02 4105.53 1776.82 4079.01 1459.01C4065.75 1300.11 4047.29 1155.26 4022.8 1032.61C3998.32 910.021 3967.78 809.407 3930.27 739.122L3924.27 742.326ZM785.355 822.774C815.143 777.325 882.465 733.212 978.891 692.019C1075.14 650.903 1199.76 612.948 1343.36 579.478C1630.56 512.54 1993.31 463.621 2356.02 443.113C2718.75 422.605 3081.28 430.521 3368.05 477.177C3511.45 500.506 3635.75 533.497 3731.63 577.374C3827.58 621.28 3894.59 675.869 3924.16 742.111L3930.38 739.337C3899.82 670.893 3831.04 615.384 3734.46 571.186C3637.82 526.959 3512.85 493.841 3369.14 470.461C3081.7 423.697 2718.64 415.796 2355.64 436.32C1992.62 456.845 1629.47 505.807 1341.82 572.851C1198 606.371 1072.96 644.432 976.218 685.762C879.65 727.015 810.642 771.779 779.664 819.044L785.355 822.774ZM1381.99 3864.05C1183.36 3418.38 785.912 2185.5 785.912 820.909H779.108C779.108 2186.62 1176.83 3420.44 1375.78 3866.82L1381.99 3864.05ZM2792.76 4917.03C2464.63 4856.91 2201.47 4782.46 1975.61 4628.77C1749.8 4475.11 1560.96 4242 1381.96 3863.98L1375.81 3866.89C1555.14 4245.62 1744.67 4479.84 1971.78 4634.39C2198.85 4788.91 2463.16 4863.56 2791.54 4923.72L2792.76 4917.03ZM3886.29 4149.63C3800.77 4303.68 3678.78 4523.35 3502.34 4690.64C3326.02 4857.82 3095.54 4972.5 2792.76 4917.03L2791.54 4923.72C3097.01 4979.68 3329.59 4863.81 3507.02 4695.58C3684.33 4527.46 3806.78 4306.87 3892.24 4152.93L3886.29 4149.63ZM3924.32 4081.75C3912.51 4102.41 3899.86 4125.2 3886.29 4149.63L3892.24 4152.93C3905.81 4128.49 3918.45 4105.74 3930.22 4085.13L3924.32 4081.75ZM3738.6 1536.08C3772.7 1593.69 3795.39 1648.15 3802.67 1686.99L3809.36 1685.74C3801.87 1645.79 3778.75 1590.56 3744.46 1532.62L3738.6 1536.08ZM3592.63 1351.11C3655.16 1411.81 3703.87 1477.41 3738.6 1536.08L3744.46 1532.62C3709.45 1473.48 3660.38 1407.39 3597.37 1346.23L3592.63 1351.11ZM3046.52 1141.72C3283.96 1125.35 3467.43 1229.58 3592.63 1351.11L3597.37 1346.23C3471.2 1223.76 3285.93 1118.39 3046.06 1134.94L3046.52 1141.72ZM3040.62 1142.13L3046.52 1141.72L3046.06 1134.94L3040.15 1135.34L3040.62 1142.13ZM3035.61 1143.61L3041.31 1142.01L3039.47 1135.46L3033.77 1137.06L3035.61 1143.61ZM2891.17 1214.12C2939.24 1177.83 2996.74 1154.51 3035.61 1143.61L3033.77 1137.06C2994.32 1148.12 2935.99 1171.76 2887.07 1208.69L2891.17 1214.12ZM2800.25 1368.72C2801.75 1298.72 2847.57 1247.03 2891.17 1214.12L2887.07 1208.69C2842.82 1242.09 2795.01 1295.49 2793.45 1368.57L2800.25 1368.72ZM2675.73 1625.67L2799.91 1370.13L2793.79 1367.16L2669.61 1622.7L2675.73 1625.67ZM2659.03 1660.02L2675.73 1625.67L2669.61 1622.7L2652.91 1657.05L2659.03 1660.02ZM2683.67 1685.06L2658.54 1656.3L2653.41 1660.77L2678.54 1689.53L2683.67 1685.06ZM3117.17 2181.2L2683.67 1685.06L2678.54 1689.53L3112.04 2185.68L3117.17 2181.2ZM3138.46 2205.57L3117.17 2181.2L3112.04 2185.68L3133.33 2210.05L3138.46 2205.57ZM3167.21 2198.96L3135.32 2204.46L3136.47 2211.16L3168.36 2205.67L3167.21 2198.96ZM3618.25 2121.28L3167.21 2198.96L3168.36 2205.67L3619.41 2127.99L3618.25 2121.28ZM3643.07 2117.01L3618.25 2121.28L3619.41 2127.99L3644.22 2123.72L3643.07 2117.01ZM3654.52 2097.4L3640.79 2118.51L3646.5 2122.22L3660.22 2101.1L3654.52 2097.4ZM3782.91 1839.4C3750.88 1935.64 3691.3 2040.8 3654.52 2097.4L3660.22 2101.1C3697.16 2044.27 3757.08 1938.56 3789.37 1841.55L3782.91 1839.4ZM3802.67 1686.99C3811.58 1734.5 3799.29 1790.19 3782.91 1839.4L3789.37 1841.55C3805.82 1792.11 3818.6 1735.03 3809.36 1685.74L3802.67 1686.99ZM2882.73 1447.87L2789.97 1638.73L2796.09 1641.7L2888.85 1450.84L2882.73 1447.87ZM3029.91 1489.64C2978.21 1472.73 2929.59 1458.08 2886.7 1446.08L2884.87 1452.63C2927.66 1464.61 2976.19 1479.23 3027.8 1496.11L3029.91 1489.64ZM2999.91 1656.19C3000.38 1601.35 3014.71 1543.03 3032.06 1494.01L3025.65 1491.74C3008.15 1541.15 2993.58 1600.26 2993.11 1656.14L2999.91 1656.19ZM3030.84 1777.05C3006.56 1740.1 2999.57 1696.25 2999.91 1656.19L2993.11 1656.14C2992.76 1696.91 2999.85 1742.28 3025.15 1780.79L3030.84 1777.05ZM3150.53 1848.42C3097.33 1841.02 3056.54 1816.16 3030.84 1777.05L3025.15 1780.79C3052.06 1821.73 3094.69 1847.52 3149.59 1855.16L3150.53 1848.42ZM3428.89 1845.57C3349.47 1868.42 3250.07 1862.28 3150.53 1848.42L3149.59 1855.16C3249.21 1869.03 3349.86 1875.39 3430.78 1852.11L3428.89 1845.57ZM3537.37 1781.15C3507.75 1813.73 3469.81 1833.81 3428.89 1845.57L3430.78 1852.11C3472.58 1840.09 3511.74 1819.46 3542.4 1785.73L3537.37 1781.15ZM3567.64 1737.35C3559.42 1753.34 3549.35 1767.97 3537.37 1781.15L3542.4 1785.73C3554.8 1772.09 3565.21 1756.97 3573.69 1740.46L3567.64 1737.35ZM3670.66 1826.92C3650.08 1798.24 3616.95 1767.62 3572.64 1736.14L3568.7 1741.68C3612.7 1772.94 3645.16 1803.06 3665.14 1830.89L3670.66 1826.92ZM3576.9 2017.17C3606.91 1968.36 3645.61 1897.1 3671.08 1830.11L3664.72 1827.69C3639.46 1894.15 3600.98 1965.01 3571.11 2013.61L3576.9 2017.17ZM3180.69 2086.58L3574.58 2018.75L3573.43 2012.04L3179.54 2079.88L3180.69 2086.58ZM2790.47 1642.45L3177.55 2085.47L3182.68 2080.99L2795.6 1637.98L2790.47 1642.45ZM3136.67 1533.63C3252.01 1575.48 3371.31 1625.73 3470.44 1680.62L3473.74 1674.67C3374.18 1619.54 3254.52 1569.15 3138.99 1527.24L3136.67 1533.63ZM3115.17 1657.18C3115.51 1617.9 3126.65 1572.02 3141.04 1531.58L3134.63 1529.3C3120.11 1570.1 3108.71 1616.78 3108.37 1657.12L3115.17 1657.18ZM3127.17 1713.75C3120.19 1703.13 3114.94 1684.98 3115.17 1657.18L3108.37 1657.12C3108.13 1685.65 3113.48 1705.31 3121.48 1717.48L3127.17 1713.75ZM3166.42 1734.26C3154.2 1732.56 3145.75 1729.45 3139.71 1725.8C3133.7 1722.18 3129.93 1717.94 3127.17 1713.75L3121.48 1717.48C3124.7 1722.38 3129.17 1727.4 3136.2 1731.63C3143.19 1735.85 3152.57 1739.2 3165.48 1741L3166.42 1734.26ZM3397.04 1734.8C3342.91 1750.37 3264.76 1747.95 3166.42 1734.26L3165.48 1741C3263.89 1754.7 3343.29 1757.34 3398.92 1741.34L3397.04 1734.8ZM3452.07 1703.62C3440.17 1716.71 3422.75 1727.4 3397.04 1734.8L3398.92 1741.34C3425.53 1733.68 3444.16 1722.44 3457.11 1708.2L3452.07 1703.62ZM3468.94 1676.35C3464.24 1687.83 3458.42 1696.64 3452.07 1703.62L3457.11 1708.2C3464 1700.62 3470.24 1691.13 3475.24 1678.93L3468.94 1676.35ZM3687.53 1679.2C3652.37 1649.65 3612.03 1622.23 3569.86 1597L3566.37 1602.84C3608.33 1627.95 3648.35 1655.16 3683.15 1684.41L3687.53 1679.2ZM3639.41 1594.8C3660.37 1630.21 3674.23 1660.69 3682.13 1682.95L3688.55 1680.67C3680.48 1657.94 3666.41 1627.07 3645.26 1591.33L3639.41 1594.8ZM3512.35 1433.82C3566.8 1486.67 3609.34 1543.99 3639.41 1594.8L3645.26 1591.33C3614.92 1540.06 3572.01 1482.25 3517.09 1428.94L3512.35 1433.82ZM3060.49 1256.33C3253.73 1244.94 3404.72 1329.35 3512.35 1433.82L3517.09 1428.94C3408.5 1323.53 3255.74 1238.01 3060.09 1249.54L3060.49 1256.33ZM2960.61 1306.12C2992.23 1282.26 3032.42 1264.96 3061.28 1256.19L3059.3 1249.68C3029.92 1258.61 2988.94 1276.21 2956.51 1300.69L2960.61 1306.12ZM2925.56 1341.82C2932.74 1330.55 2944.08 1318.6 2960.61 1306.12L2956.51 1300.69C2939.55 1313.5 2927.55 1326.02 2919.82 1338.17L2925.56 1341.82ZM3125.32 1400.12C3052.41 1374.92 2983.12 1353.5 2923.61 1336.72L2921.77 1343.27C2981.15 1360.02 3050.31 1381.4 3123.1 1406.55L3125.32 1400.12ZM3569.86 1597C3439.89 1519.24 3273.54 1451.34 3125.32 1400.12L3123.1 1406.55C3271.14 1457.71 3436.98 1525.43 3566.37 1602.84L3569.86 1597ZM1572.21 1344C1712.16 1195.97 1905.85 1093.65 2085.7 1176.66L2088.55 1170.48C1904.51 1085.53 1707.74 1190.75 1567.27 1339.32L1572.21 1344ZM1307.25 1916.39C1320.76 1713.72 1429.53 1494.92 1572.21 1344L1567.27 1339.32C1423.7 1491.18 1314.09 1711.42 1300.46 1915.94L1307.25 1916.39ZM1305.14 1947.96L1307.25 1916.39L1300.46 1915.94L1298.35 1947.51L1305.14 1947.96ZM1329.27 1963.72L1303.76 1944.99L1299.73 1950.48L1325.24 1969.2L1329.27 1963.72ZM1800.35 2309.51L1329.27 1963.72L1325.24 1969.2L1796.33 2315L1800.35 2309.51ZM1842.43 2340.4L1800.35 2309.51L1796.33 2315L1838.41 2345.89L1842.43 2340.4ZM1872.78 2302.05L1837.89 2340.87L1842.95 2345.42L1877.84 2306.59L1872.78 2302.05ZM2193.3 1935.83C2086.35 2062.01 1958.18 2207.02 1872.78 2302.05L1877.84 2306.59C1963.27 2211.54 2091.48 2066.48 2198.49 1940.23L2193.3 1935.83ZM2330.62 1768.27C2295.25 1814 2246.71 1872.82 2193.3 1935.83L2198.49 1940.23C2251.92 1877.2 2300.54 1818.29 2336 1772.43L2330.62 1768.27ZM2373.93 1708.86C2363.16 1725.2 2348.21 1745.51 2330.62 1768.27L2336 1772.43C2353.63 1749.62 2368.7 1729.16 2379.61 1712.61L2373.93 1708.86ZM2388.09 1685.09C2384.24 1692.65 2379.26 1700.78 2373.93 1708.86L2379.61 1712.61C2385 1704.43 2390.14 1696.06 2394.15 1688.18L2388.09 1685.09ZM2393.83 1671.86C2392.11 1676.79 2390.01 1681.31 2388.09 1685.09L2394.15 1688.18C2396.15 1684.24 2398.4 1679.42 2400.25 1674.11L2393.83 1671.86ZM2397.86 1649.37C2397.86 1659.46 2395.3 1667.67 2393.83 1671.86L2400.25 1674.11C2401.83 1669.61 2404.66 1660.57 2404.66 1649.37H2397.86ZM2397.89 1643.54C2397.87 1645.73 2397.86 1647.69 2397.86 1649.37H2404.66C2404.66 1647.73 2404.68 1645.81 2404.7 1643.6L2397.89 1643.54ZM2397.89 1643.56V1643.57H2404.7V1643.56H2397.89ZM2257.45 1292.48C2399.78 1432.54 2398.31 1596.78 2397.89 1643.53L2404.7 1643.59C2405.12 1596.45 2406.63 1429.74 2262.22 1287.64L2257.45 1292.48ZM2085.7 1176.66C2157.7 1209.89 2213.88 1249.61 2257.45 1292.48L2262.22 1287.64C2218.05 1244.17 2161.22 1204.02 2088.55 1170.48L2085.7 1176.66ZM1489.36 1673.33C1530.94 1581.48 1588.92 1494.11 1655.97 1423.19L1651.03 1418.51C1583.43 1490.01 1525.04 1578.02 1483.16 1670.53L1489.36 1673.33ZM1661.6 1491.07C1598.22 1547.4 1537.98 1608.95 1483.72 1669.66L1488.8 1674.2C1542.92 1613.64 1602.97 1552.28 1666.12 1496.16L1661.6 1491.07ZM2025.6 1269.74C1899.36 1303.99 1772.12 1392.85 1661.6 1491.07L1666.12 1496.16C1776.4 1398.16 1902.68 1310.14 2027.39 1276.3L2025.6 1269.74ZM1655.97 1423.19C1781.93 1289.96 1917.92 1234.99 2025.28 1276.2L2027.71 1269.84C1916.38 1227.11 1777.57 1284.66 1651.03 1418.51L1655.97 1423.19ZM2185.51 1383.7C2279.72 1482.76 2282.8 1593.43 2282.65 1638.53L2289.45 1638.55C2289.61 1592.93 2286.5 1480.02 2190.44 1379.01L2185.51 1383.7ZM2168.06 1380.08C2174.51 1381.26 2180.82 1382.77 2187 1384.62L2188.95 1378.1C2182.53 1376.18 2175.98 1374.61 2169.29 1373.38L2168.06 1380.08ZM2183.78 1556.41C2187.45 1497.38 2181.28 1432.31 2172.03 1376.18L2165.32 1377.28C2174.52 1433.13 2180.61 1497.65 2176.99 1555.99L2183.78 1556.41ZM2151.69 1683.48C2172.9 1645.74 2181.11 1599.42 2183.78 1556.41L2176.99 1555.99C2174.35 1598.59 2166.23 1643.71 2145.76 1680.15L2151.69 1683.48ZM2032.34 1757.99C2089.01 1756.19 2128.58 1724.59 2151.69 1683.48L2145.76 1680.15C2123.59 1719.59 2085.98 1749.48 2032.12 1751.19L2032.34 1757.99ZM1964.49 1762.85C1985.81 1760.82 2006.98 1758.79 2032.34 1757.99L2032.12 1751.19C2006.52 1752 1985.15 1754.04 1963.85 1756.08L1964.49 1762.85ZM1932.78 1765.7C1943.71 1764.84 1954.12 1763.84 1964.49 1762.85L1963.85 1756.08C1953.47 1757.07 1943.11 1758.06 1932.25 1758.91L1932.78 1765.7ZM1832.26 1759.7C1867.3 1769.31 1901.97 1768.11 1932.78 1765.7L1932.25 1758.91C1901.58 1761.31 1867.9 1762.42 1834.06 1753.13L1832.26 1759.7ZM1684.44 1630.72C1728.23 1701.59 1773.38 1743.53 1832.26 1759.7L1834.06 1753.13C1777.53 1737.62 1733.58 1697.31 1690.23 1627.15L1684.44 1630.72ZM1444.5 1909.58C1507.79 1825.34 1593.91 1723.59 1689.7 1631.38L1684.98 1626.48C1588.88 1718.99 1502.52 1821.01 1439.06 1905.5L1444.5 1909.58ZM1826.41 2185.66L1443.79 1904.8L1439.77 1910.28L1822.39 2191.14L1826.41 2185.66ZM2105.37 1861.3C2013.04 1970.23 1904.48 2093.63 1821.86 2186.13L1826.94 2190.67C1909.58 2098.14 2018.18 1974.69 2110.56 1865.7L2105.37 1861.3ZM2239.43 1697.76C2205.66 1741.43 2158.44 1798.69 2105.37 1861.3L2110.56 1865.7C2163.65 1803.07 2210.95 1745.71 2244.81 1701.92L2239.43 1697.76ZM2277.68 1645.43C2269.29 1658.17 2256.41 1675.8 2239.43 1697.76L2244.81 1701.92C2261.83 1679.92 2274.83 1662.13 2283.37 1649.18L2277.68 1645.43ZM2283.12 1636.81C2281.82 1639 2280.04 1641.86 2277.68 1645.43L2283.37 1649.18C2285.77 1645.53 2287.61 1642.58 2288.98 1640.28L2283.12 1636.81ZM2049.84 1385.79C2058.96 1437.65 2065.12 1497.74 2061.95 1548.85L2068.74 1549.27C2071.96 1497.42 2065.71 1436.74 2056.54 1384.61L2049.84 1385.79ZM1776.85 1552.8C1872.67 1472.43 1968.43 1412.56 2054.11 1388.48L2052.27 1381.93C1965.23 1406.4 1868.59 1466.96 1772.48 1547.59L1776.85 1552.8ZM1864.57 1641.98C1845.84 1636.84 1819.21 1621.46 1777.62 1548.51L1771.71 1551.88C1813.63 1625.4 1841.44 1642.68 1862.77 1648.54L1864.57 1641.98ZM1923.25 1644C1894.93 1646.22 1878.08 1645.69 1864.57 1641.98L1862.77 1648.54C1877.49 1652.58 1895.34 1653.01 1923.78 1650.78L1923.25 1644ZM1948.51 1641.72C1939.19 1642.61 1930.7 1643.41 1923.25 1644L1923.78 1650.78C1931.3 1650.19 1939.85 1649.38 1949.16 1648.5L1948.51 1641.72ZM2028.46 1635.98C1999.18 1636.91 1971.38 1639.55 1948.51 1641.72L1949.16 1648.5C1972.04 1646.32 1999.64 1643.7 2028.68 1642.78L2028.46 1635.98ZM2045.27 1623.67C2042.1 1629.32 2039.48 1632.22 2037.04 1633.8C2034.68 1635.33 2032.13 1635.86 2028.46 1635.98L2028.68 1642.78C2032.9 1642.65 2036.89 1642.01 2040.74 1639.51C2044.52 1637.07 2047.79 1633.07 2051.2 1627L2045.27 1623.67ZM2061.95 1548.85C2059.73 1584.56 2053.28 1609.42 2045.27 1623.67L2051.2 1627C2059.95 1611.44 2066.5 1585.38 2068.74 1549.27L2061.95 1548.85ZM2424.66 2376.95H2749.56V2370.14H2424.66V2376.95ZM2317.67 2218.19C2317.67 2318 2385.96 2364.04 2423.57 2376.77L2425.75 2370.32C2389.98 2358.22 2324.47 2314.22 2324.47 2218.19H2317.67ZM2205.81 2221.59H2321.07V2214.78H2205.81V2221.59ZM2402.53 2483.64C2336.25 2466.25 2209.21 2388.98 2209.21 2218.19H2202.4C2202.4 2393.09 2332.64 2472.34 2400.81 2490.22L2402.53 2483.64ZM2409.72 2485.52L2402.53 2483.64L2400.81 2490.22L2408 2492.1L2409.72 2485.52ZM2416.29 2485.41H2408.86V2492.21H2416.29V2485.41ZM2807.19 2485.41H2416.29V2492.21H2807.19V2485.41ZM2864.83 2485.41H2807.19V2492.21H2864.83V2485.41ZM2861.43 2431.18V2488.81H2868.23V2431.18H2861.43ZM2861.43 2293.36V2431.18H2868.23V2293.36H2861.43ZM2749.56 2296.76H2864.83V2289.96H2749.56V2296.76ZM2752.96 2373.55V2293.36H2746.16V2373.55H2752.96ZM2902.65 2654.98L2925.78 3837.45L2932.58 3837.32L2909.45 2654.85L2902.65 2654.98ZM3085.11 2664.39C3035.6 2657.26 2973.5 2652.29 2906.09 2651.51L2906.01 2658.32C2973.15 2659.09 3034.96 2664.04 3084.14 2671.12L3085.11 2664.39ZM3158.94 2679.12C3141.22 2674.02 3116.21 2668.86 3085.11 2664.39L3084.14 2671.12C3115.06 2675.57 3139.74 2680.68 3157.07 2685.66L3158.94 2679.12ZM3161.41 3812.36V2682.39H3154.6V3812.36H3161.41ZM2928.31 3840.67C3015.18 3863.74 3104.27 3840.95 3159.43 3815.45L3156.58 3809.27C3102.26 3834.38 3014.86 3856.61 2930.05 3834.1L2928.31 3840.67ZM3177.53 2686.66C3177.91 2686.55 3178.23 2686.52 3178.42 2686.52C3178.63 2686.51 3178.8 2686.53 3178.91 2686.54C3179.14 2686.57 3179.31 2686.61 3179.4 2686.63C3179.58 2686.68 3179.72 2686.74 3179.77 2686.76C3179.88 2686.8 3179.96 2686.84 3179.98 2686.85C3180.03 2686.88 3180.05 2686.89 3180.03 2686.88C3179.99 2686.85 3179.89 2686.79 3179.73 2686.69L3175.99 2692.38C3176.24 2692.54 3176.46 2692.67 3176.64 2692.78C3176.73 2692.83 3176.83 2692.89 3176.95 2692.94C3177 2692.97 3177.1 2693.02 3177.23 2693.07C3177.29 2693.09 3177.43 2693.15 3177.62 2693.2C3177.71 2693.23 3177.89 2693.27 3178.11 2693.3C3178.26 2693.31 3178.82 2693.38 3179.5 2693.18L3177.53 2686.66ZM3176.27 2692.54C3176.46 2692.64 3176.57 2692.7 3176.61 2692.73C3176.64 2692.74 3176.6 2692.72 3176.53 2692.67C3176.52 2692.67 3176.38 2692.57 3176.21 2692.42C3176.2 2692.4 3175.86 2692.11 3175.58 2691.63C3175.48 2691.47 3174.99 2690.63 3175.15 2689.46C3175.24 2688.77 3175.55 2688.07 3176.1 2687.52C3176.61 2687.01 3177.16 2686.77 3177.53 2686.66L3179.5 2693.18C3179.87 2693.06 3180.43 2692.82 3180.93 2692.31C3181.48 2691.76 3181.79 2691.07 3181.89 2690.37C3182.05 2689.2 3181.55 2688.36 3181.45 2688.2C3181.17 2687.72 3180.83 2687.42 3180.81 2687.4C3180.64 2687.24 3180.48 2687.13 3180.44 2687.11C3180.33 2687.02 3180.21 2686.95 3180.13 2686.91C3179.95 2686.8 3179.73 2686.67 3179.46 2686.53L3176.27 2692.54ZM3237.98 3896.76C3164.97 3939.18 3005.36 3993.83 2851.23 3928.67L2848.58 3934.94C3005.47 4001.26 3167.43 3945.62 3241.4 3902.64L3237.98 3896.76ZM3468.17 3820.77L3238.62 3896.47L3240.75 3902.93L3470.3 3827.23L3468.17 3820.77ZM3429.9 3715.6L3466 3825.07L3472.46 3822.94L3436.36 3713.47L3429.9 3715.6ZM3274.34 3770.49L3434.2 3717.77L3432.07 3711.3L3272.2 3764.02L3274.34 3770.49ZM3269.87 2646.68V3767.25H3276.67V2646.68H3269.87ZM3269.87 2626.67V2646.68H3276.67V2626.67H3269.87ZM3258.2 2613.07L3270.6 2628.78L3275.94 2624.56L3263.54 2608.86L3258.2 2613.07ZM3224.76 2587.94C3233.58 2592.14 3247.7 2599.77 3258.2 2613.07L3263.54 2608.86C3252.05 2594.3 3236.77 2586.12 3227.69 2581.8L3224.76 2587.94ZM3190.54 2575.35C3202.68 2578.9 3214.44 2583.03 3224.76 2587.94L3227.69 2581.8C3216.92 2576.67 3204.78 2572.42 3192.45 2568.82L3190.54 2575.35ZM3100.56 2557.03C3135.27 2562.02 3166.12 2568.21 3190.54 2575.35L3192.45 2568.82C3167.61 2561.56 3136.42 2555.32 3101.53 2550.29L3100.56 2557.03ZM2845.95 2543.46C2940.89 2541.11 3030.88 2547 3100.56 2557.03L3101.53 2550.29C3031.45 2540.21 2941.08 2534.3 2845.78 2536.65L2845.95 2543.46ZM2534.08 2586.56C2632.43 2558.21 2743.27 2545.99 2845.95 2543.46L2845.78 2536.65C2742.74 2539.2 2631.29 2551.46 2532.2 2580.02L2534.08 2586.56ZM2388.32 2647.83C2431.98 2621.54 2481.87 2601.61 2534.08 2586.56L2532.2 2580.02C2479.58 2595.19 2429.11 2615.33 2384.81 2642L2388.32 2647.83ZM2221.89 2700.79C2283.45 2693.39 2340.42 2676.66 2388.32 2647.83L2384.81 2642C2337.95 2670.21 2281.96 2686.72 2221.08 2694.03L2221.89 2700.79ZM1809.47 2643.73C1895.15 2676.99 2066.34 2719.48 2221.89 2700.79L2221.08 2694.03C2067 2712.55 1896.98 2670.4 1811.93 2637.39L1809.47 2643.73ZM1772.16 2749.25L1813.87 2641.79L1807.53 2639.33L1765.82 2746.78L1772.16 2749.25ZM1889.7 2781.73C1842.3 2770.11 1801.27 2756.89 1770.22 2744.84L1767.76 2751.19C1799.11 2763.35 1840.42 2776.66 1888.08 2788.34L1889.7 2781.73ZM1972.08 3683.05L1892.28 2784.73L1885.5 2785.34L1965.3 3683.65L1972.08 3683.05ZM1914.94 3703.97C1933.06 3697.58 1951.98 3691.69 1969.63 3686.62L1967.75 3680.08C1950 3685.18 1930.95 3691.11 1912.68 3697.55L1914.94 3703.97ZM1861.79 3725.9C1877.9 3717.84 1896.6 3710.44 1914.94 3703.97L1912.68 3697.55C1894.2 3704.07 1875.21 3711.58 1858.74 3719.82L1861.79 3725.9ZM1814.52 3761.26C1827.71 3744.11 1848.01 3732.79 1861.79 3725.9L1858.74 3719.82C1844.88 3726.75 1823.33 3738.64 1809.12 3757.11L1814.52 3761.26ZM1801.85 3789.76C1804.23 3774.7 1812.14 3764.36 1814.52 3761.26L1809.12 3757.11C1806.58 3760.42 1797.79 3771.89 1795.13 3788.7L1801.85 3789.76ZM1807.53 3824.63C1800.66 3811.51 1800.44 3798.69 1801.85 3789.76L1795.13 3788.7C1793.55 3798.67 1793.78 3813.06 1801.5 3827.79L1807.53 3824.63ZM1833.66 3849.47C1825.06 3845.49 1814.46 3837.87 1807.53 3824.63L1801.5 3827.79C1809.29 3842.65 1821.19 3851.19 1830.8 3855.65L1833.66 3849.47ZM1864.88 3854.67C1861.24 3854.97 1847.93 3856.09 1833.66 3849.47L1830.8 3855.65C1846.74 3863.04 1861.54 3861.78 1865.45 3861.45L1864.88 3854.67ZM1864.91 3854.66L1864.87 3854.67L1865.47 3861.44L1865.51 3861.44L1864.91 3854.66ZM1879.85 3852.08C1875.93 3853.05 1870.68 3854.18 1864.92 3854.66L1865.5 3861.44C1871.75 3860.91 1877.39 3859.7 1881.49 3858.68L1879.85 3852.08ZM1932.97 3832.68C1914.36 3840.62 1894.67 3848.4 1879.85 3852.08L1881.49 3858.68C1896.9 3854.86 1917.04 3846.88 1935.65 3838.94L1932.97 3832.68ZM2042.93 3781.07C2010.38 3797.34 1967.6 3817.9 1932.97 3832.68L1935.65 3838.94C1970.46 3824.08 2013.38 3803.45 2045.98 3787.16L2042.93 3781.07ZM2262.91 3786C2179.8 3781.34 2102.91 3780.06 2044.42 3780.71L2044.49 3787.51C2102.83 3786.87 2179.57 3788.14 2262.53 3792.79L2262.91 3786ZM2559.54 3818.41C2466 3801.58 2360.71 3791.48 2262.91 3786L2262.53 3792.79C2360.17 3798.27 2465.16 3808.35 2558.34 3825.11L2559.54 3818.41ZM2783.81 3891.51C2740.59 3861.55 2661.05 3836.68 2559.54 3818.41L2558.34 3825.11C2659.76 3843.36 2738.01 3868.04 2779.94 3897.11L2783.81 3891.51ZM2851.23 3928.67C2828.36 3919.01 2805.78 3906.74 2783.81 3891.51L2779.94 3897.11C2802.29 3912.61 2825.29 3925.1 2848.58 3934.94L2851.23 3928.67ZM2003.22 2807.86L2079.72 3669.01L2086.5 3668.4L2010 2807.25L2003.22 2807.86ZM2172.94 2813.26C2116.46 2815.34 2060.1 2811.49 2007.08 2804.19L2006.15 2810.93C2059.49 2818.27 2116.25 2822.15 2173.19 2820.06L2172.94 2813.26ZM2209.34 3671.19L2176.47 2816.53L2169.67 2816.79L2202.54 3671.45L2209.34 3671.19ZM2083.1 3672.11C2119.99 3672.22 2161.54 3673.02 2205.81 3674.72L2206.07 3667.92C2161.72 3666.22 2120.09 3665.42 2083.12 3665.3L2083.1 3672.11ZM2284.51 2803.51L2318.14 3677.77L2324.94 3677.51L2291.31 2803.25L2284.51 2803.51ZM2444.26 2740.75C2395.45 2770.14 2341.84 2788.9 2287.23 2800.05L2288.59 2806.71C2343.8 2795.45 2398.17 2776.44 2447.77 2746.58L2444.26 2740.75ZM2491.54 2716.57C2474.56 2723.97 2458.75 2732.03 2444.26 2740.75L2447.77 2746.58C2461.97 2738.03 2477.51 2730.11 2494.26 2722.81L2491.54 2716.57ZM2513.7 3697.2L2496.3 2719.63L2489.5 2719.75L2506.89 3697.32L2513.7 3697.2ZM2321.29 3681.04C2383.37 3685.47 2447.69 3691.81 2509.82 3700.63L2510.77 3693.89C2448.45 3685.04 2383.97 3678.69 2321.78 3674.25L2321.29 3681.04ZM2604.13 2683.18L2622.54 3717.49L2629.34 3717.37L2610.93 2683.06L2604.13 2683.18ZM2790.6 2654.42C2727.85 2658.4 2664.96 2666.48 2606.77 2679.8L2608.29 2686.43C2666.04 2673.21 2728.56 2665.17 2791.03 2661.21L2790.6 2654.42ZM2816.15 3778.67L2794.22 2657.75L2787.42 2657.89L2809.34 3778.8L2816.15 3778.67ZM2625.23 3720.76C2694.5 3735.47 2759.97 3755.04 2811.17 3781.75L2814.32 3775.72C2762.32 3748.59 2696.16 3728.86 2626.65 3714.1L2625.23 3720.76Z" fill="black"/>
</svg>
