<svg width="5104" height="5104" viewBox="0 0 5104 5104" fill="none" xmlns="http://www.w3.org/2000/svg">
<circle cx="2552.35" cy="2551.65" r="2551.65" fill="#A3B7BC"/>
<path d="M893.799 1658.19C1351.71 745.719 2559.39 -633.381 3726.81 1149.96C3996.86 1668.25 4449.4 2976.57 4099.18 4063.48C3480.24 4697.51 1593.25 5150.38 1442.29 4476.1C1296.46 3824.76 1013.1 3004.39 968.099 2332.47C933.268 2184.87 869.645 1843.36 893.799 1658.19Z" fill="#E8E7E5" stroke="black" stroke-width="5.54707"/>
<path d="M2920.77 2421.91C2901.38 2336.99 2878.68 2152.2 2942.92 2092.38C3023.23 2017.61 3103.53 1978.85 3172.76 2017.61C3241.99 2056.38 3322.3 2193.2 3344.45 2307.55L2920.77 2421.91Z" fill="#A3B7BC"/>
<path d="M2040.18 3856.33C2160.17 3938.49 2433.4 4095.04 2566.32 4064.02C2878.31 3942.18 3498.41 3644.77 3482.91 3429.88C3277.07 3512.04 2841.57 3681.32 2746.31 3701.26C2651.05 3721.2 2235.86 3812.95 2040.18 3856.33Z" fill="#A3B7BC"/>
<path d="M1829.72 2751.44L2292.17 2624.06C2276.48 2516.71 2212.97 2286.66 2084.48 2225.3C1955.99 2163.94 1848.18 2256.96 1810.34 2311.14V2753.74C1816.49 2753.02 1822.94 2752.25 1829.72 2751.44Z" fill="#A3B7BC"/>
<path d="M1331.27 1671.47V1948.39C1488.19 1989.92 1849.66 2038.66 2040.18 1901.31H2253.4L2220.17 1671.47C2182.33 1636.39 2051.25 1581.75 1829.72 1643.78C1552.81 1721.31 1350.66 1718.55 1331.27 1671.47Z" fill="#A3B7BC"/>
<path d="M2920.77 1477.63C2712.53 1464.34 2575.55 1514.55 2533.09 1541.32L2612.94 1797.39C2611.2 1761.77 3231.71 1627.18 3546.6 1563.47L3524.44 1289.33L3516.14 1250.12L3366.6 1299.96L2920.77 1477.63Z" fill="#A3B7BC"/>
<path d="M2588.47 3440.96L2843.23 3363.42L2438.94 2252.99L2588.47 3440.96Z" fill="#A3B7BC"/>
<path d="M2732.47 2491.14C2707.54 2373.91 2681.51 2122.84 2776.77 2056.38C2895.85 1973.31 3142.3 1857 3203.22 1862.54C3264.14 1868.08 3438.6 1945.62 3477.37 2017.61C3508.38 2075.21 3536.44 2198.53 3546.6 2252.99L3344.45 2307.55M3344.45 2307.55L2920.77 2421.91C2901.38 2336.99 2878.68 2152.2 2942.92 2092.38C3023.23 2017.61 3103.53 1978.85 3172.76 2017.61C3241.99 2056.38 3322.3 2193.2 3344.45 2307.55ZM2438.94 2252.99L2588.47 3440.96L2843.23 3363.42L2438.94 2252.99ZM2438.94 2252.99C2417.71 2207.76 2324.29 2118.41 2120.48 2122.84C1865.72 2128.38 1580.5 2252.99 1610.96 2372.07C1585.11 2455.14 1548.93 2635.69 1610.96 2693.29C1684.7 2761.76 1690.81 2767.62 1810.34 2753.74M1810.34 2753.74C1816.49 2753.02 1822.94 2752.25 1829.72 2751.44L2292.17 2624.06C2276.48 2516.71 2212.97 2286.66 2084.48 2225.3C1955.99 2163.94 1848.18 2256.96 1810.34 2311.14V2753.74ZM2612.94 1797.39L2533.09 1541.32C2575.55 1514.55 2712.53 1464.34 2920.77 1477.63L3366.6 1299.96L3516.14 1250.12L3524.44 1289.33L3546.6 1563.47C3231.71 1627.18 2611.2 1761.77 2612.94 1797.39ZM2612.94 1797.39C2612.96 1797.9 2643.57 1781.33 2643.85 1781.79L2612.94 1797.39ZM1331.27 1671.47V1948.39C1488.19 1989.92 1849.66 2038.66 2040.18 1901.31H2253.4L2220.17 1671.47C2182.33 1636.39 2051.25 1581.75 1829.72 1643.78C1552.81 1721.31 1350.66 1718.55 1331.27 1671.47ZM2040.18 3856.33C2160.17 3938.49 2433.4 4095.04 2566.32 4064.02C2878.31 3942.18 3498.41 3644.77 3482.91 3429.88C3277.07 3512.04 2841.57 3681.32 2746.31 3701.26C2651.05 3721.2 2235.86 3812.95 2040.18 3856.33Z" stroke="black" stroke-width="5.54707"/>
</svg>
