<svg width="2994" height="2994" viewBox="0 0 2994 2994" fill="none" xmlns="http://www.w3.org/2000/svg">
<circle cx="1497" cy="1497" r="1497" fill="#A3B7BC"/>
<path d="M741.758 434.613C842.42 575.54 1140.38 822.667 1526.92 683.752C2010.1 510.11 2056.91 2.77084 2248.67 363.646C2440.44 724.521 2505.36 1168.44 2487.24 1423.62C2469.13 1678.8 2503.85 2208.79 2318.13 2353.74C2132.41 2498.7 1730.77 2818.8 1526.92 2743.31C1323.08 2667.81 916.91 2685.93 864.063 2482.09C811.215 2278.25 578.685 2225.4 578.685 1958.14C578.685 1690.88 463.929 1168.44 521.307 952.522C578.685 736.601 672.3 434.613 741.758 434.613Z" fill="#E8E7E5" stroke="black" stroke-width="4.49298"/>
<path d="M722.149 784.916C864.083 906.215 1194.46 1137.94 1380.48 1094.45" stroke="#A3B7BC" stroke-width="55.888"/>
<path d="M1637.15 1079.37C1785.63 1048.17 2107.04 929.891 2204.89 706.42" stroke="#A3B7BC" stroke-width="55.888"/>
<path d="M1569.17 1316.42V1539.89H1584.27V1754.3V1769.4" stroke="#A3B7BC" stroke-width="55.888"/>
<path d="M1238.53 1863.02C1195.24 1856.48 1115.31 1874.5 1141.89 1998.92C1154.36 2057.29 1197.45 2103.53 1254.25 2140.85C1253.2 2134.15 1252.24 2127.61 1251.37 2121.22C1227.51 1946.77 1267.5 1887.24 1291.37 1879.4C1272 1873.69 1254.18 1868.14 1238.53 1863.02Z" fill="#A3B7BC"/>
<path d="M1092.06 1167.97C1070.29 1183.73 1031 1233.68 1048.07 1307.36L1108.67 1328.55C1137.66 1286.3 1151.96 1213.98 1155.48 1183.1C1135.52 1177.42 1114.37 1172.32 1092.06 1167.97Z" fill="#A3B7BC"/>
<path d="M1833.44 1193.81C1826.39 1225.35 1816.53 1288.95 1833.44 1291.1L1911.96 1253.87C1930.69 1244.99 1904.15 1183.16 1888.54 1153.35C1871.45 1164.97 1852.76 1178.79 1833.44 1193.81Z" fill="#A3B7BC"/>
<path d="M1155.48 1488.56L1384.99 1425.14M1384.99 1425.14V1307.36C1353.48 1272.45 1276 1217.36 1155.48 1183.1M1384.99 1425.14L1108.67 1328.55M1092.06 1167.97C1029.63 1155.8 958.066 1149.57 877.651 1153.35L858.021 1240.93L1048.07 1307.36M1092.06 1167.97C1070.29 1183.73 1031 1233.68 1048.07 1307.36M1092.06 1167.97C1114.37 1172.32 1135.52 1177.42 1155.48 1183.1M1048.07 1307.36L1108.67 1328.55M1155.48 1183.1C1151.96 1213.98 1137.66 1286.3 1108.67 1328.55M1763.98 1410.04L1680.94 1363.4M1680.94 1363.4L1653.76 1348.13C1695.14 1309.51 1767.88 1244.79 1833.44 1193.81M1680.94 1363.4L1833.44 1291.1M1833.44 1193.81C1826.39 1225.35 1816.53 1288.95 1833.44 1291.1M1833.44 1193.81C1852.76 1178.79 1871.45 1164.97 1888.54 1153.35M1833.44 1291.1L1911.96 1253.87M1888.54 1153.35C1908.68 1139.65 1926.59 1129.03 1940.65 1123.15C2023.69 1088.42 2245.65 994.808 2292.46 1031.05C2329.91 1060.04 2331.22 1124.66 2327.19 1153.35V1167.97H2093.15L1911.96 1253.87M1888.54 1153.35C1904.15 1183.16 1930.69 1244.99 1911.96 1253.87M1291.37 1879.4C1272 1873.69 1254.18 1868.14 1238.53 1863.02C1195.24 1856.48 1115.31 1874.5 1141.89 1998.92C1154.36 2057.29 1197.45 2103.53 1254.25 2140.85M1291.37 1879.4C1432.06 1920.9 1654.37 1971.03 1720.2 1926.44C1813.81 1863.02 1826.66 1837.35 1857.6 1843.39C1888.54 1849.43 1987.45 1896.24 1988.96 1926.44C1989.54 1937.92 1992.08 1966.19 1992.43 1998.92M1291.37 1879.4C1267.5 1887.24 1227.51 1946.77 1251.37 2121.22M1254.25 2140.85C1348.79 2202.96 1481.29 2240.33 1573.73 2267.68C1577.73 2268.87 1581.76 2269.92 1585.81 2270.85M1254.25 2140.85C1253.2 2134.15 1252.24 2127.61 1251.37 2121.22M1251.37 2121.22C1313.02 2099.07 1436.93 2050.86 1439.35 2035.15C1441.76 2019.45 1538 2185.74 1585.81 2270.85M1585.81 2270.85C1676.45 2291.65 1780.67 2250.72 1857.6 2207.89M1585.81 2282.78L1680.94 2035.15L1857.6 2207.89M1857.6 2207.89C1904.64 2181.69 1941.48 2154.79 1958.77 2140.85C1987.78 2117.45 1993.01 2052.27 1992.43 1998.92M1857.6 2207.89V1959.66L1992.43 1998.92" stroke="#A3B7BC" stroke-width="55.888"/>
</svg>
