<svg width="5104" height="5104" viewBox="0 0 5104 5104" fill="none" xmlns="http://www.w3.org/2000/svg">
<circle cx="2551.65" cy="2551.65" r="2551.65" fill="#A3B7BC"/>
<path fill-rule="evenodd" clip-rule="evenodd" d="M2146.71 287.354L4019.84 852.286L4095.48 1377.16C4358.97 1594.94 4878.1 2125.6 4846.77 2505.98C4815.44 2886.36 4753.56 3221.19 4726.53 3341.06C4335.32 3774 3532.78 4634.83 3452.25 4614.67C3371.72 4594.51 2253.95 4724.17 1705.13 4791.53L256.294 3289.27C218.189 2705.54 491.418 1661.24 495.262 1335.45C496.056 1268.16 496.041 1268.16 496.041 1268.16C881.234 939.311 1750.64 282.765 2146.71 287.354ZM2185.35 1931.91C1892.47 1982.36 1432.28 1647.57 1238.8 1473.86L1232 2060.28L1427.24 2221.19C1481.26 2122.46 1618.92 1942.66 1737.32 2013.26C1855.72 2083.85 1895.28 2348.4 1900.26 2471.84L2180.39 2359.71L2185.35 1931.91ZM2973.49 2368.9L2622.76 1936.98C2718.27 1991.93 3242.2 1444.19 3492.23 1163.46C3647.71 1353.71 3484.19 1719.41 3382.99 1878.49L3056.14 1874.7L2973.49 2368.9ZM1486.99 798.904L1273.49 969.495L1339.5 1080.83L1485.09 962.332L2267.27 1500.2L2355.68 1337.78L1486.99 798.904ZM2627.66 1513.99L2610.33 1350.34C2624.63 1360.12 2924.04 1243.41 2996.92 1176.95C3055.23 1123.78 3132.21 979.813 3163.41 914.474L3291.48 915.957C3299.05 894.31 3297.27 901.954 3293.19 915.977L3291.48 915.957C3283.52 938.685 3265.25 993.702 3228.48 1107.52C3156.68 1329.75 2798.01 1471.1 2627.66 1513.99ZM1166.53 2732.55C1082.2 2708.5 903.069 3066.01 824.045 3247.78C839.585 3289.62 890.853 3373.54 971.605 3374.48C1052.36 3375.41 1063.9 3292.22 1059.57 3250.51L2150.62 4099.62L2713 4106.14C2887.51 3981.57 3253.98 3720.13 3323.77 3670.94C3393.57 3621.75 3475.26 3403.48 3494.17 3293.13L3778.87 2979.15L3819.33 2806.55L3939.26 2634.88L4021.87 2558.92L4082.51 2497.12L4120.39 2132.21C4265.67 2206.96 4338.65 2104.29 4356.98 2043.61C4240.83 1971.75 3973.11 1815.14 3831.41 1763.5C3689.72 1711.86 3672.11 1820.94 3681.01 1881.94C3706.39 1904.67 3771.24 1978.17 3827.63 2090.35C3884.01 2202.54 3801.2 2296.76 3752.74 2329.85L3749.23 2632.68C3588.1 2847.14 3239.46 3313.26 3133.9 3462.03C3001.94 3647.98 2465.89 3858.1 2326.28 3875.71C2186.66 3893.33 2106.95 3719.34 1944.97 3592.47C1815.39 3490.98 1741.48 3452.3 1720.72 3445.65L1143.57 3054.38L1227.18 2891.9C1242.1 2848.8 1250.86 2756.6 1166.53 2732.55Z" fill="#E8E7E5"/>
<path d="M3291.48 915.957L3163.41 914.474C3132.21 979.813 3055.23 1123.78 2996.92 1176.95C2924.04 1243.41 2624.63 1360.12 2610.33 1350.34L2627.66 1513.99C2798.01 1471.1 3156.68 1329.75 3228.48 1107.52C3265.25 993.702 3283.52 938.685 3291.48 915.957ZM3291.48 915.957C3299.05 894.31 3297.27 901.954 3293.19 915.977L3291.48 915.957ZM1238.8 1473.86C1432.28 1647.57 1892.47 1982.36 2185.35 1931.91L2180.39 2359.71L1900.26 2471.84C1895.28 2348.4 1855.72 2083.85 1737.32 2013.26C1618.92 1942.66 1481.26 2122.46 1427.24 2221.19L1232 2060.28L1238.8 1473.86ZM2622.76 1936.98L2973.49 2368.9L3056.14 1874.7L3382.99 1878.49C3484.19 1719.41 3647.71 1353.71 3492.23 1163.46C3242.2 1444.19 2718.27 1991.93 2622.76 1936.98ZM2146.71 287.354L4019.84 852.286L4095.48 1377.16C4358.97 1594.94 4878.1 2125.6 4846.77 2505.98C4815.44 2886.36 4753.56 3221.19 4726.53 3341.06C4335.32 3774 3532.78 4634.83 3452.25 4614.67C3371.72 4594.51 2253.95 4724.17 1705.13 4791.53L256.294 3289.27C218.189 2705.54 491.418 1661.24 495.262 1335.45C496.056 1268.16 496.041 1268.16 496.041 1268.16C881.234 939.311 1750.64 282.765 2146.71 287.354ZM1273.49 969.495L1486.99 798.904L2355.68 1337.78L2267.27 1500.2L1485.09 962.332L1339.5 1080.83L1273.49 969.495ZM824.045 3247.78C903.069 3066.01 1082.2 2708.5 1166.53 2732.55C1250.86 2756.6 1242.1 2848.8 1227.18 2891.9L1143.57 3054.38L1720.72 3445.65C1741.48 3452.3 1815.39 3490.98 1944.97 3592.47C2106.95 3719.34 2186.66 3893.33 2326.28 3875.71C2465.89 3858.1 3001.94 3647.98 3133.9 3462.03C3239.46 3313.26 3588.1 2847.14 3749.23 2632.68L3752.74 2329.85C3801.2 2296.76 3884.01 2202.54 3827.63 2090.35C3771.24 1978.17 3706.39 1904.67 3681.01 1881.94C3672.11 1820.94 3689.72 1711.86 3831.41 1763.5C3973.11 1815.14 4240.83 1971.75 4356.98 2043.61C4338.65 2104.29 4265.67 2206.96 4120.39 2132.21L4082.51 2497.12L4021.87 2558.92L3939.26 2634.88L3819.33 2806.55L3778.87 2979.15L3494.17 3293.13C3475.26 3403.48 3393.57 3621.75 3323.77 3670.94C3253.98 3720.13 2887.51 3981.57 2713 4106.14L2150.62 4099.62L1059.57 3250.51C1063.9 3292.22 1052.36 3375.41 971.605 3374.48C890.853 3373.54 839.585 3289.62 824.045 3247.78Z" stroke="black" stroke-width="5.54707"/>
</svg>
