<svg width="22497" height="13032" viewBox="0 0 22497 13032" fill="none" xmlns="http://www.w3.org/2000/svg">
<rect width="22496.3" height="12810.8" transform="translate(0 220.288)" fill="#A3B7BC"/>
<path d="M18037.1 203.115L11843.4 5973.15L11133.6 5961.7C11032.9 5961.7 6979.74 2124.55 4968.62 220.288L18037.1 203.115Z" fill="#E8E7E5"/>
<line x1="4684.4" y1="60.4307" x2="11201.6" y2="6137.86" stroke="black" stroke-width="163.323"/>
<line x1="18224.1" y1="126.098" x2="11807.6" y2="6109.58" stroke="black" stroke-width="150.674"/>
<path fill-rule="evenodd" clip-rule="evenodd" d="M11465.9 5933.08C11087.3 5933.08 10843.1 6036.85 10795.9 6150.11C10795.9 6301.1 10826.4 6375.14 10918.6 6546.42C10984.7 6669.09 11016.1 6842.09 11003.5 6914.44H11041.3V6763.46H11343.2V6074.61C11390.4 6018 11418.7 6018 11494.2 6018C11554.6 6018 11582.3 6055.74 11588.6 6074.61V6763.46H11890.5V6895.56H11918.9C11937.7 6816.93 11994.3 6629.46 12069.8 6508.68C12152.1 6377.04 12148.3 6254.58 12146 6179.84V6179.83V6179.82C12145.6 6168.85 12145.3 6158.91 12145.3 6150.11C12145.3 6074.61 11937.7 5933.07 11465.9 5933.08ZM11343.2 6971.05V6801.2H11079L11060.2 7320.19L10994.1 7820.31C10962.7 7949.28 10899.7 8244.94 10899.7 8395.92C10899.7 8584.65 10928.1 8679.01 11003.5 8773.37C11079 8867.73 11277.2 8962.1 11503.7 8962.1C11730.1 8962.1 11966 8792.24 12003.8 8697.88C12041.5 8603.52 12041.5 8452.54 12041.5 8395.92C12041.5 8339.31 11994.3 8037.35 11947.2 7895.8C11900 7754.26 11862.2 7357.94 11862.2 7263.58V6801.2H11579.2V6971.05H11683V7301.32L11242.4 7289.72V6971.05H11343.2ZM11282.5 7018.23H11343.2V7188.09H11588.6V7018.23H11645.2V7263.58H11282.5V7018.23ZM11465.9 8754.51C11648.3 8754.51 11796.2 8648.9 11796.2 8518.61C11796.2 8388.32 11648.3 8282.7 11465.9 8282.7C11283.5 8282.7 11135.7 8388.32 11135.7 8518.61C11135.7 8648.9 11283.5 8754.51 11465.9 8754.51Z" fill="#E8E7E5"/>
<path d="M4934.3 426.367L4991.55 495.058L5174.72 323.331L5111.76 243.191H5043.06V323.331L4934.3 426.367Z" fill="#E8E7E5"/>
<path d="M5060.26 575.194L5117.5 643.885L5300.67 472.158L5237.71 392.019H5169.02V472.158L5060.26 575.194Z" fill="#E8E7E5"/>
<path d="M5209.09 701.13L5266.33 769.821L5449.51 598.093L5386.54 517.954H5317.85V598.093L5209.09 701.13Z" fill="#E8E7E5"/>
<path d="M5346.49 827.065L5403.73 895.756L5586.9 724.029L5523.94 643.89H5455.25V724.029L5346.49 827.065Z" fill="#E8E7E5"/>
<path d="M5472.34 975.893L5529.59 1044.58L5712.76 872.857L5649.79 792.718H5581.1V872.857L5472.34 975.893Z" fill="#E8E7E5"/>
<path d="M5621.18 1101.83L5678.42 1170.52L5861.6 998.79L5798.63 918.65H5729.94V998.79L5621.18 1101.83Z" fill="#E8E7E5"/>
<path d="M5781.46 1227.76L5838.7 1296.45L6021.88 1124.73L5958.91 1044.59H5890.22V1124.73L5781.46 1227.76Z" fill="#E8E7E5"/>
<path d="M5907.41 1376.59L5964.66 1445.28L6147.83 1273.55L6084.86 1193.41H6016.17V1273.55L5907.41 1376.59Z" fill="#E8E7E5"/>
<path d="M6056.25 1502.53L6113.49 1571.22L6296.67 1399.49L6233.7 1319.35H6165.01V1399.49L6056.25 1502.53Z" fill="#E8E7E5"/>
<path d="M6193.65 1628.45L6250.89 1697.14L6434.06 1525.41L6371.1 1445.27H6302.41V1525.41L6193.65 1628.45Z" fill="#E8E7E5"/>
<path d="M6319.6 1777.29L6376.84 1845.98L6560.02 1674.25L6497.05 1594.11H6428.36V1674.25L6319.6 1777.29Z" fill="#E8E7E5"/>
<path d="M6468.43 1903.22L6525.68 1971.91L6708.85 1800.18L6645.88 1720.04H6577.19V1800.18L6468.43 1903.22Z" fill="#E8E7E5"/>
<path d="M6641.49 2034.03L6703.39 2098.56L6874.14 1914.47L6805.73 1838.92L6737.21 1843.71L6742.8 1923.65L6641.49 2034.03Z" fill="#E8E7E5"/>
<path d="M6767.35 2182.85L6829.24 2247.38L6999.99 2063.3L6931.59 1987.75L6863.07 1992.54L6868.66 2072.48L6767.35 2182.85Z" fill="#E8E7E5"/>
<path d="M6916.18 2308.79L6978.08 2373.32L7148.83 2189.24L7080.43 2113.68L7011.9 2118.48L7017.49 2198.42L6916.18 2308.79Z" fill="#E8E7E5"/>
<path d="M7053.58 2434.72L7115.47 2499.26L7286.22 2315.17L7217.82 2239.62L7149.3 2244.41L7154.89 2324.35L7053.58 2434.72Z" fill="#E8E7E5"/>
<path d="M7179.54 2583.55L7241.43 2648.08L7412.18 2464L7343.78 2388.44L7275.25 2393.24L7280.84 2473.18L7179.54 2583.55Z" fill="#E8E7E5"/>
<path d="M8323.03 3620.48L8380.27 3689.18L8563.44 3517.45L8500.48 3437.31H8431.79V3517.45L8323.03 3620.48Z" fill="#E8E7E5"/>
<path d="M8471.87 3746.43L8529.11 3815.12L8712.28 3643.39L8649.32 3563.25H8580.63V3643.39L8471.87 3746.43Z" fill="#E8E7E5"/>
<path d="M8632.14 3872.35L8689.38 3941.04L8872.56 3769.32L8809.59 3689.18H8740.9V3769.32L8632.14 3872.35Z" fill="#E8E7E5"/>
<path d="M8758.09 4021.19L8815.34 4089.88L8998.51 3918.15L8935.55 3838.01H8866.86V3918.15L8758.09 4021.19Z" fill="#E8E7E5"/>
<path d="M8906.93 4147.12L8964.18 4215.82L9147.35 4044.09L9084.38 3963.95H9015.69V4044.09L8906.93 4147.12Z" fill="#E8E7E5"/>
<path d="M9044.23 4273.05L9101.47 4341.74L9284.65 4170.02L9221.68 4089.88H9152.99V4170.02L9044.23 4273.05Z" fill="#E8E7E5"/>
<path d="M9170.18 4421.89L9227.42 4490.58L9410.6 4318.85L9347.63 4238.71H9278.94V4318.85L9170.18 4421.89Z" fill="#E8E7E5"/>
<path d="M9319.02 4547.81L9376.26 4616.5L9559.44 4444.78L9496.47 4364.64H9427.78V4444.78L9319.02 4547.81Z" fill="#E8E7E5"/>
<path d="M9492.18 4678.63L9554.07 4743.16L9724.82 4559.07L9656.42 4483.52L9587.9 4488.31L9593.49 4568.26L9492.18 4678.63Z" fill="#E8E7E5"/>
<path d="M9618.03 4827.46L9679.93 4891.99L9850.68 4707.9L9782.27 4632.35L9713.75 4637.14L9719.34 4717.08L9618.03 4827.46Z" fill="#E8E7E5"/>
<path d="M10200.6 5349.21L10257.8 5417.9L10441 5246.17L10378.1 5166.03H10309.4V5246.17L10200.6 5349.21Z" fill="#E8E7E5"/>
<path d="M10338 5475.14L10395.2 5543.83L10578.4 5372.11L10515.4 5291.97H10446.8V5372.11L10338 5475.14Z" fill="#E8E7E5"/>
<path d="M10463.9 5623.98L10521.1 5692.67L10704.3 5520.94L10641.3 5440.8H10572.6V5520.94L10463.9 5623.98Z" fill="#E8E7E5"/>
<path d="M10612.8 5749.91L10670 5818.6L10853.2 5646.87L10790.2 5566.73H10721.5V5646.87L10612.8 5749.91Z" fill="#E8E7E5"/>
<path d="M10785.7 5880.71L10847.6 5945.24L11018.4 5761.16L10950 5685.6L10881.5 5690.4L10887.1 5770.34L10785.7 5880.71Z" fill="#E8E7E5"/>
<path d="M10928.1 6042.49L10986.7 6112.53L11144.8 5916.13L11080 5834.16L11015.9 5838.65L11021.9 5924.72L10928.1 6042.49Z" fill="#E8E7E5"/>
<path d="M9766.87 4953.39L9828.76 5017.92L9999.51 4833.83L9931.11 4758.28L9862.59 4763.07L9868.18 4843.02L9766.87 4953.39Z" fill="#E8E7E5"/>
<path d="M9904.26 5079.33L9966.16 5143.86L10136.9 4959.77L10068.5 4884.22L9999.98 4889.01L10005.6 4968.95L9904.26 5079.33Z" fill="#E8E7E5"/>
<path d="M10030.2 5228.15L10092.1 5292.68L10262.9 5108.6L10194.5 5033.04L10125.9 5037.84L10131.5 5117.78L10030.2 5228.15Z" fill="#E8E7E5"/>
<path d="M7328.37 2709.49L7390.27 2774.02L7561.02 2589.93L7492.61 2514.38L7424.09 2519.17L7429.68 2599.12L7328.37 2709.49Z" fill="#E8E7E5"/>
<path d="M7488.65 2835.42L7550.54 2899.95L7721.29 2715.86L7652.89 2640.31L7584.37 2645.1L7589.96 2725.05L7488.65 2835.42Z" fill="#E8E7E5"/>
<path d="M7625.94 2972.8L7687.84 3037.33L7858.59 2853.25L7790.18 2777.7L7721.66 2782.49L7727.25 2862.43L7625.94 2972.8Z" fill="#E8E7E5"/>
<path d="M7774.78 3098.74L7836.68 3163.27L8007.43 2979.18L7939.02 2903.63L7870.5 2908.42L7876.09 2988.37L7774.78 3098.74Z" fill="#E8E7E5"/>
<path d="M7912.18 3236.12L7974.07 3300.65L8144.82 3116.57L8076.42 3041.01L8007.89 3045.81L8013.48 3125.75L7912.18 3236.12Z" fill="#E8E7E5"/>
<path d="M8049.57 3373.5L8111.47 3438.03L8282.22 3253.95L8213.82 3178.4L8145.29 3183.19L8150.88 3263.13L8049.57 3373.5Z" fill="#E8E7E5"/>
<path d="M8186.97 3499.43L8248.86 3563.97L8419.61 3379.88L8351.21 3304.33L8282.69 3309.12L8288.28 3389.06L8186.97 3499.43Z" fill="#E8E7E5"/>
<path d="M18129.8 369.116L18072.6 437.807L17889.4 266.08L17952.4 185.94H18021.1V266.08L18129.8 369.116Z" fill="#E8E7E5"/>
<path d="M18003.9 517.955L17946.6 586.646L17763.5 414.919L17826.4 334.779H17895.1V414.919L18003.9 517.955Z" fill="#E8E7E5"/>
<path d="M17855 643.89L17797.8 712.581L17614.6 540.854L17677.6 460.715H17746.3V540.854L17855 643.89Z" fill="#E8E7E5"/>
<path d="M17717.6 769.817L17660.4 838.508L17477.2 666.781L17540.2 586.642H17608.9V666.781L17717.6 769.817Z" fill="#E8E7E5"/>
<path d="M17591.7 918.65L17534.4 987.341L17351.3 815.614L17414.2 735.475H17482.9V815.614L17591.7 918.65Z" fill="#E8E7E5"/>
<path d="M17442.9 1044.59L17385.7 1113.28L17202.5 941.549L17265.5 861.41H17334.2V941.549L17442.9 1044.59Z" fill="#E8E7E5"/>
<path d="M17282.6 1170.51L17225.3 1239.2L17042.2 1067.48L17105.1 987.338H17173.8V1067.48L17282.6 1170.51Z" fill="#E8E7E5"/>
<path d="M17156.7 1319.35L17099.5 1388.04L16916.3 1216.31L16979.3 1136.17H17048V1216.31L17156.7 1319.35Z" fill="#E8E7E5"/>
<path d="M17007.9 1445.28L16950.6 1513.97L16767.5 1342.24L16830.4 1262.1H16899.1V1342.24L17007.9 1445.28Z" fill="#E8E7E5"/>
<path d="M16870.5 1571.21L16813.2 1639.9L16630.1 1468.18L16693 1388.04H16761.7V1468.18L16870.5 1571.21Z" fill="#E8E7E5"/>
<path d="M16744.5 1720.04L16687.3 1788.74L16504.1 1617.01L16567.1 1536.87H16635.8V1617.01L16744.5 1720.04Z" fill="#E8E7E5"/>
<path d="M16595.7 1845.97L16538.5 1914.66L16355.3 1742.94L16418.2 1662.8H16486.9V1742.94L16595.7 1845.97Z" fill="#E8E7E5"/>
<path d="M16422.6 1976.79L16360.7 2041.32L16190 1857.23L16258.4 1781.68L16326.9 1786.47L16321.3 1866.42L16422.6 1976.79Z" fill="#E8E7E5"/>
<path d="M16296.7 2125.62L16234.8 2190.15L16064 2006.06L16132.4 1930.51L16201 1935.3L16195.4 2015.24L16296.7 2125.62Z" fill="#E8E7E5"/>
<path d="M16147.8 2251.55L16086 2316.08L15915.2 2131.99L15983.6 2056.44L16052.1 2061.23L16046.5 2141.18L16147.8 2251.55Z" fill="#E8E7E5"/>
<path d="M16010.5 2377.49L15948.7 2442.02L15777.9 2257.93L15846.3 2182.38L15914.8 2187.17L15909.2 2267.11L16010.5 2377.49Z" fill="#E8E7E5"/>
<path d="M15884.6 2526.31L15822.7 2590.84L15651.9 2406.76L15720.4 2331.2L15788.9 2336L15783.3 2415.94L15884.6 2526.31Z" fill="#E8E7E5"/>
<path d="M14741.1 3563.25L14683.9 3631.94L14500.7 3460.22L14563.7 3380.08H14632.3V3460.22L14741.1 3563.25Z" fill="#E8E7E5"/>
<path d="M14592.3 3689.18L14535 3757.87L14351.8 3586.14L14414.8 3506H14483.5V3586.14L14592.3 3689.18Z" fill="#E8E7E5"/>
<path d="M14432 3815.11L14374.7 3883.8L14191.6 3712.08L14254.5 3631.94H14323.2V3712.08L14432 3815.11Z" fill="#E8E7E5"/>
<path d="M14306 3963.95L14248.8 4032.64L14065.6 3860.91L14128.6 3780.77H14197.3V3860.91L14306 3963.95Z" fill="#E8E7E5"/>
<path d="M14157.2 4089.88L14100 4158.57L13916.8 3986.84L13979.7 3906.7H14048.4V3986.84L14157.2 4089.88Z" fill="#E8E7E5"/>
<path d="M14019.8 4215.81L13962.6 4284.5L13779.4 4112.77L13842.3 4032.63H13911V4112.77L14019.8 4215.81Z" fill="#E8E7E5"/>
<path d="M13893.8 4364.64L13836.6 4433.33L13653.4 4261.6L13716.4 4181.46H13785.1V4261.6L13893.8 4364.64Z" fill="#E8E7E5"/>
<path d="M13745 4490.57L13687.8 4559.26L13504.6 4387.54L13567.6 4307.4H13636.3V4387.54L13745 4490.57Z" fill="#E8E7E5"/>
<path d="M13572.1 4621.39L13510.2 4685.92L13339.4 4501.83L13407.8 4426.28L13476.3 4431.07L13470.7 4511.02L13572.1 4621.39Z" fill="#E8E7E5"/>
<path d="M13446 4770.22L13384.1 4834.75L13213.4 4650.66L13281.8 4575.11L13350.3 4579.9L13344.7 4659.84L13446 4770.22Z" fill="#E8E7E5"/>
<path d="M12863.5 5291.97L12806.3 5360.66L12623.1 5188.93L12686.1 5108.79H12754.8V5188.93L12863.5 5291.97Z" fill="#E8E7E5"/>
<path d="M12726.1 5417.89L12668.9 5486.58L12485.7 5314.86L12548.7 5234.72H12617.4V5314.86L12726.1 5417.89Z" fill="#E8E7E5"/>
<path d="M12600.2 5566.73L12542.9 5635.42L12359.8 5463.69L12422.7 5383.55H12491.4V5463.69L12600.2 5566.73Z" fill="#E8E7E5"/>
<path d="M12451.3 5692.67L12394.1 5761.36L12210.9 5589.63L12273.9 5509.49H12342.6V5589.63L12451.3 5692.67Z" fill="#E8E7E5"/>
<path d="M12278.3 5823.47L12216.4 5888L12045.6 5703.92L12114 5628.36L12182.6 5633.16L12177 5713.1L12278.3 5823.47Z" fill="#E8E7E5"/>
<path d="M12116.7 5972.3L12054.8 6036.83L11884.1 5852.74L11952.5 5777.19L12021 5781.98L12015.4 5861.93L12116.7 5972.3Z" fill="#E8E7E5"/>
<path d="M13297.3 4896.15L13235.4 4960.68L13064.6 4776.59L13133 4701.04L13201.5 4705.83L13196 4785.78L13297.3 4896.15Z" fill="#E8E7E5"/>
<path d="M13159.9 5022.08L13098 5086.61L12927.2 4902.52L12995.6 4826.97L13064.1 4831.76L13058.6 4911.71L13159.9 5022.08Z" fill="#E8E7E5"/>
<path d="M13033.9 5170.91L12972 5235.44L12801.3 5051.35L12869.7 4975.8L12938.2 4980.59L12932.6 5060.53L13033.9 5170.91Z" fill="#E8E7E5"/>
<path d="M15735.8 2652.25L15673.9 2716.78L15503.1 2532.69L15571.5 2457.14L15640 2461.93L15634.5 2541.88L15735.8 2652.25Z" fill="#E8E7E5"/>
<path d="M15575.5 2778.17L15513.6 2842.7L15342.8 2658.62L15411.2 2583.06L15479.8 2587.86L15474.2 2667.8L15575.5 2778.17Z" fill="#E8E7E5"/>
<path d="M15438.1 2915.56L15376.2 2980.09L15205.4 2796L15273.8 2720.45L15342.4 2725.24L15336.8 2805.18L15438.1 2915.56Z" fill="#E8E7E5"/>
<path d="M15289.2 3041.49L15227.4 3106.02L15056.6 2921.94L15125 2846.38L15193.5 2851.17L15187.9 2931.12L15289.2 3041.49Z" fill="#E8E7E5"/>
<path d="M15151.9 3178.87L15090 3243.4L14919.2 3059.32L14987.6 2983.76L15056.1 2988.56L15050.5 3068.5L15151.9 3178.87Z" fill="#E8E7E5"/>
<path d="M15014.5 3316.26L14952.6 3380.79L14781.8 3196.7L14850.2 3121.15L14918.7 3125.94L14913.1 3205.89L15014.5 3316.26Z" fill="#E8E7E5"/>
<path d="M14877.1 3442.19L14815.2 3506.72L14644.4 3322.63L14712.8 3247.08L14781.3 3251.87L14775.8 3331.81L14877.1 3442.19Z" fill="#E8E7E5"/>
<rect x="11093.5" y="9047.07" width="377.8" height="183.176" fill="#D9D9D9"/>
<rect x="11471.4" y="9264.59" width="389.248" height="183.176" fill="#D9D9D9"/>
<rect x="11093.5" y="9470.66" width="377.8" height="183.176" fill="#D9D9D9"/>
<rect x="11471.4" y="9688.19" width="389.248" height="183.176" fill="#D9D9D9"/>
<rect x="11093.5" y="9894.25" width="377.8" height="183.176" fill="#D9D9D9"/>
<rect x="11471.4" y="10111.8" width="389.248" height="183.176" fill="#D9D9D9"/>
<rect x="11093.5" y="10317.9" width="377.8" height="183.176" fill="#D9D9D9"/>
<rect x="11471.4" y="10535.4" width="389.248" height="183.176" fill="#D9D9D9"/>
<rect x="11093.5" y="10752.9" width="377.8" height="183.176" fill="#D9D9D9"/>
<rect x="11471.4" y="10970.4" width="389.248" height="183.176" fill="#D9D9D9"/>
<rect x="11093.5" y="11176.5" width="377.8" height="183.176" fill="#D9D9D9"/>
<rect x="11471.4" y="11394" width="389.248" height="183.176" fill="#D9D9D9"/>
<rect x="11093.5" y="11600.1" width="377.8" height="183.176" fill="#D9D9D9"/>
<rect x="11471.4" y="11817.6" width="389.248" height="183.176" fill="#D9D9D9"/>
<rect x="11093.5" y="12023.7" width="377.8" height="183.176" fill="#D9D9D9"/>
<rect x="11471.4" y="12241.2" width="389.248" height="183.176" fill="#D9D9D9"/>
<rect x="11093.5" y="12458.7" width="377.8" height="183.176" fill="#D9D9D9"/>
<rect x="11471.4" y="12676.2" width="389.248" height="183.176" fill="#D9D9D9"/>
</svg>
